<svg width="100" height="80" viewBox="0 0 100 80" fill="none" xmlns="http://www.w3.org/2000/svg">
<path d="M95.4545 22.2199H74.61L53.2139 1.30144C51.4391 -0.433814 48.5609 -0.433814 46.7858 1.30144L25.39 22.2199H4.54545C2.03515 22.2199 0 24.2096 0 26.664V75.5559C0 78.0103 2.03515 80 4.54545 80H95.4545C97.9649 80 100 78.0103 100 75.5559V26.664C100 24.2096 97.9649 22.2199 95.4545 22.2199ZM50 10.7285L61.7536 22.2199H38.2464L50 10.7285ZM90.9091 71.1119H9.09091V31.108H90.9091V71.1119Z" fill="white"/>
<path d="M36.6089 55.3148H32.1707C32.3371 54.8882 33.3798 54.1682 34.0895 53.6785C35.8868 52.4383 38.1234 50.8956 38.1234 48.1889C38.1234 45.6102 36.0807 43.6652 33.3719 43.6652C30.775 43.6652 28.8168 45.4155 28.8168 47.7368C28.8168 49.1379 29.7571 49.6347 30.5625 49.6347C31.5913 49.6347 32.3971 48.908 32.3971 47.98C32.3971 47.53 32.5107 47.1134 33.3368 47.1134C34.4686 47.1134 34.5259 48.0378 34.5259 48.2233C34.5259 49.1577 33.2237 50.0747 31.9643 50.9614C30.3471 52.1 28.5146 53.3905 28.5146 55.4215V57.1078C28.5146 58.0873 29.4265 58.745 30.278 58.745H36.6092C37.5128 58.745 38.248 57.9718 38.248 57.0213C38.2477 56.0807 37.5122 55.3148 36.6089 55.3148Z" fill="white"/>
<path d="M47.519 52.3058V50.1191C47.519 49.1959 46.7456 48.4994 45.7202 48.4994C45.6738 48.4994 45.6278 48.5008 45.5823 48.5038L46.8372 46.0821C46.8535 46.0507 46.8684 46.0184 46.8817 45.9855C46.9769 45.7523 47.0211 45.5408 47.0211 45.3207C47.0211 44.3305 46.1002 43.6654 45.2402 43.6654C44.5472 43.6654 43.9205 44.05 43.6075 44.6627L39.1569 53.2438C39.0138 53.4959 38.9414 53.7839 38.9414 54.1006C38.9414 55.044 39.6614 55.7553 40.6156 55.7553H43.9205V57.1084C43.9205 58.0416 44.6941 58.7456 45.7199 58.7456C46.7284 58.7456 47.5187 58.0262 47.5187 57.1084V55.7378C48.3217 55.6181 48.9414 54.8908 48.9414 54.0141C48.9417 53.1298 48.3332 52.4208 47.519 52.3058ZM43.6205 52.2895L43.9211 51.7097V52.2895H43.6205Z" fill="white"/>
<path d="M58.4772 43.005C57.8448 43.005 57.2951 43.3389 57.0318 43.8793L50.2618 56.8568C50.1415 57.0921 50.0806 57.3406 50.0806 57.5951C50.0806 58.473 50.8472 59.2148 51.7548 59.2148C52.4224 59.2148 53.0121 58.8486 53.2778 58.2757L59.969 45.4854C60.1257 45.2404 60.2045 44.9631 60.2045 44.6594C60.2048 43.7629 59.4136 43.005 58.4772 43.005Z" fill="white"/>
<path d="M69.7224 43.6654H63.409C62.4793 43.6654 61.6636 44.4227 61.6636 45.2857V47.911C61.6636 48.8193 62.4539 49.5307 63.463 49.5307C64.4545 49.5307 65.2618 48.8042 65.2618 47.911V47.0968H67.6005L62.7084 56.2468C62.6893 56.2821 62.6724 56.3185 62.6572 56.3556C62.5984 56.4995 62.4993 56.741 62.4993 57.039C62.4993 57.9993 63.3624 58.7805 64.423 58.7805C65.0551 58.7805 65.6202 58.4428 65.8933 57.9098L71.1496 47.8739C71.3615 47.5362 71.4863 47.1335 71.4863 46.7813V45.286C71.486 44.3308 70.5566 43.6654 69.7224 43.6654Z" fill="white"/>
</svg>
