<svg width="100" height="80" viewBox="0 0 100 80" fill="none" xmlns="http://www.w3.org/2000/svg">
<path d="M74.3828 22.4523L74.4775 22.5449H74.61H95.4546C97.7923 22.5449 99.675 24.396 99.675 26.664V75.5559C99.675 77.8239 97.7923 79.675 95.4546 79.675H4.54545C2.20769 79.675 0.325 77.8239 0.325 75.5559V26.664C0.325 24.396 2.20769 22.5449 4.54545 22.5449H25.39H25.5225L25.6172 22.4523L47.0129 1.53385C48.6618 -0.0779598 51.3382 -0.0779323 52.9867 1.53383L74.3828 22.4523ZM50.2272 10.4961L50 10.2739L49.7728 10.4961L38.0192 21.9875L37.4491 22.5449H38.2464H61.7536H62.5509L61.9808 21.9875L50.2272 10.4961ZM90.9091 71.4369H91.2341V71.1119V31.108V30.783H90.9091H9.09091H8.76591V31.108V71.1119V71.4369H9.09091H90.9091Z" fill="white" stroke="black" stroke-width="0.65"/>
<path d="M31.8049 55.5648L31.9378 55.224C31.9986 55.0681 32.1251 54.9133 32.2622 54.7732C32.4047 54.6276 32.5817 54.4751 32.7707 54.3247C33.1485 54.0241 33.5935 53.7171 33.9468 53.4732L33.9475 53.4727L34.0895 53.6785L33.9475 53.4727C34.8505 52.8496 35.8333 52.1702 36.5939 51.3173C37.3488 50.4706 37.8734 49.465 37.8734 48.1889C37.8734 45.7597 35.9543 43.9152 33.3719 43.9152C30.8859 43.9152 29.0668 45.5792 29.0668 47.7368C29.0668 48.3771 29.2791 48.7795 29.554 49.0245C29.8347 49.2748 30.2076 49.3847 30.5625 49.3847C31.4781 49.3847 32.1471 48.7462 32.1471 47.98C32.1471 47.7454 32.1736 47.4513 32.3639 47.2194C32.5627 46.9772 32.8866 46.8634 33.3368 46.8634C33.985 46.8634 34.3653 47.1359 34.5689 47.4682C34.7603 47.7806 34.7759 48.113 34.7759 48.2233C34.7759 48.8024 34.3781 49.3293 33.8892 49.7918C33.3929 50.2613 32.7403 50.7208 32.1176 51.1592L32.1083 51.1658L32.1083 51.1658C31.2949 51.7384 30.4559 52.3305 29.8171 53.0259C29.1827 53.7166 28.7646 54.4894 28.7646 55.4215V57.1078C28.7646 57.9146 29.5272 58.495 30.278 58.495H36.6092C37.363 58.495 37.9979 57.8458 37.998 57.0214L31.8049 55.5648ZM31.8049 55.5648H32.1707M31.8049 55.5648H32.1707M32.1707 55.5648H36.6089M32.1707 55.5648H36.6089M36.6089 55.5648C37.3647 55.5648 37.9977 56.2091 37.998 57.0213L36.6089 55.5648Z" fill="white" stroke="black" stroke-width="0.5"/>
<path d="M47.269 52.3058V52.523L47.484 52.5534C48.1678 52.6499 48.6917 53.247 48.6914 54.014V54.0141C48.6914 54.7744 48.1552 55.3902 47.4818 55.4906L47.2687 55.5223V55.7378V57.1084C47.2687 57.8665 46.613 58.4956 45.7199 58.4956C44.8095 58.4956 44.1705 57.8819 44.1705 57.1084V55.7553V55.5053H43.9205H40.6156C39.7967 55.5053 39.1914 54.9031 39.1914 54.1006C39.1914 53.8231 39.2546 53.5783 39.3743 53.3672L39.3745 53.3673L39.3788 53.3589L43.8294 44.7778L43.8294 44.7778L43.8301 44.7764C44.1003 44.2475 44.6409 43.9154 45.2402 43.9154C45.9992 43.9154 46.7711 44.503 46.7711 45.3207C46.7711 45.5042 46.7349 45.6837 46.6502 45.891L46.65 45.8916C46.6396 45.9174 46.628 45.9425 46.6155 45.9666L46.6152 45.9671L45.3603 48.3888L45.1565 48.7821L45.5986 48.7533C45.6385 48.7507 45.6791 48.7494 45.7202 48.7494C46.6329 48.7494 47.269 49.358 47.269 50.1191V52.3058ZM43.3986 52.1745L43.2093 52.5395H43.6205H43.9211H44.1711V52.2895V51.7097L43.6992 51.5947L43.3986 52.1745Z" fill="white" stroke="black" stroke-width="0.5"/>
<path d="M57.2534 43.9949L57.2535 43.995L57.2565 43.9888C57.4755 43.5393 57.9348 43.255 58.4772 43.255C59.2858 43.255 59.9548 43.911 59.9545 44.6593V44.6594C59.9545 44.9178 59.8881 45.1479 59.7584 45.3507L59.7526 45.3599L59.7475 45.3695L53.0563 58.1598L53.0561 58.1596L53.051 58.1705C52.8287 58.6499 52.331 58.9648 51.7548 58.9648C50.9775 58.9648 50.3306 58.3272 50.3306 57.5951C50.3306 57.382 50.3813 57.1726 50.4839 56.9715C50.4841 56.9712 50.4842 56.9709 50.4844 56.9707L57.2534 43.9949Z" fill="white" stroke="black" stroke-width="0.5"/>
<path d="M65.2618 46.8468H65.0118V47.0968V47.911C65.0118 48.6421 64.3418 49.2807 63.463 49.2807C62.5666 49.2807 61.9136 48.6572 61.9136 47.911V45.2857C61.9136 44.5779 62.5996 43.9154 63.409 43.9154H69.7224C70.0768 43.9154 70.4612 44.0585 70.7553 44.3081C71.0469 44.5556 71.2361 44.895 71.2363 45.286C71.2363 45.286 71.2363 45.2861 71.2363 45.2861V46.7813C71.2363 47.0801 71.1284 47.4373 70.9378 47.7411L70.9327 47.7493L70.9282 47.7579L65.6718 57.7938L65.6718 57.7938L65.6708 57.7958C65.4428 58.2409 64.9664 58.5305 64.423 58.5305C63.4764 58.5305 62.7493 57.8384 62.7493 57.039C62.7493 56.7944 62.8303 56.5931 62.8887 56.45C62.9008 56.4204 62.914 56.3922 62.9283 56.3659L62.9289 56.3647L67.821 47.2147L68.0177 46.8468H67.6005H65.2618Z" fill="white" stroke="black" stroke-width="0.5"/>
</svg>
