<svg width="50" height="50" viewBox="0 0 50 50" fill="none" xmlns="http://www.w3.org/2000/svg">
<path d="M22.8261 10.8696C22.2261 10.8696 21.7391 11.3566 21.7391 11.9566V14.5458L18.9652 13.1588C18.4283 12.8914 17.7761 13.1087 17.5065 13.6458C17.237 14.1827 17.4565 14.8349 17.9935 15.1045L21.7414 16.9784V23.9131H16.9784L15.1045 20.1653C14.8349 19.6283 14.1828 19.4131 13.6457 19.6783C13.1088 19.9478 12.8914 20.6 13.1587 21.137L14.5457 23.9109H11.9566C11.3566 23.9109 10.8696 24.3979 10.8696 24.9979C10.8696 25.5979 11.3566 26.0849 11.9566 26.0849H14.5457L13.1587 28.8588C12.8892 29.3957 13.1087 30.0479 13.6457 30.3175C13.8023 30.3957 13.9674 30.4327 14.1305 30.4327C14.5305 30.4327 14.9131 30.2131 15.1044 29.8327L16.9783 26.0849H21.7391V33.0219L17.9913 34.8958C17.4543 35.1653 17.2369 35.8175 17.5043 36.3545C17.6955 36.7349 18.0782 36.9545 18.4782 36.9545C18.6412 36.9545 18.8064 36.9175 18.9629 36.8392L21.7368 35.4522V38.0414C21.7368 38.6414 22.2238 39.1284 22.8238 39.1284C23.4238 39.1284 23.9108 38.6414 23.9108 38.0414V11.9544C23.9131 11.3565 23.4261 10.8696 22.8261 10.8696Z" fill="white"/>
<path d="M27.174 19.5653C29.5805 19.5653 30.7588 18.7783 31.7066 18.1457C32.3849 17.6913 32.8327 17.3913 33.6957 17.3913C35.4436 17.3913 36.2087 17.9021 37.0197 18.4457C37.8044 18.9695 38.6958 19.5653 40.2175 19.5653C40.8175 19.5653 41.3045 19.0783 41.3045 18.4783C41.3045 17.8783 40.8175 17.3913 40.2175 17.3913C39.3545 17.3913 38.9066 17.0913 38.2283 16.6369C37.2806 16.0043 36.1023 15.2173 33.6957 15.2173C32.174 15.2173 31.2827 15.8129 30.4979 16.3369C29.6871 16.8803 28.9218 17.3913 27.174 17.3913C26.574 17.3913 26.087 17.8783 26.087 18.4783C26.087 19.0783 26.574 19.5653 27.174 19.5653Z" fill="white"/>
<path d="M40.2175 30.4348C39.3545 30.4348 38.9066 30.1348 38.2283 29.6805C37.2806 29.0479 36.1023 28.2609 33.6957 28.2609C32.174 28.2609 31.2827 28.8565 30.4979 29.3805C29.6871 29.9239 28.9218 30.4348 27.174 30.4348C26.574 30.4348 26.087 30.9218 26.087 31.5218C26.087 32.1218 26.574 32.6087 27.174 32.6087C29.5805 32.6087 30.7588 31.8217 31.7066 31.1891C32.3849 30.7347 32.8327 30.4347 33.6957 30.4347C35.4436 30.4347 36.2087 30.9456 37.0197 31.4891C37.8044 32.013 38.6958 32.6087 40.2175 32.6087C40.8175 32.6087 41.3045 32.1217 41.3045 31.5217C41.3045 30.9217 40.8175 30.4348 40.2175 30.4348Z" fill="white"/>
<path d="M40.2175 23.9131C39.3545 23.9131 38.9066 23.6131 38.2283 23.1587C37.2806 22.5261 36.1023 21.7391 33.6957 21.7391C32.174 21.7391 31.2827 22.3348 30.4979 22.8587C29.6871 23.4022 28.9218 23.9131 27.174 23.9131C26.574 23.9131 26.087 24.4001 26.087 25.0001C26.087 25.6001 26.574 26.087 27.174 26.087C29.5805 26.087 30.7588 25.3 31.7066 24.6674C32.3849 24.213 32.8327 23.913 33.6957 23.913C35.4436 23.913 36.2087 24.4239 37.0197 24.9674C37.8044 25.4913 38.6958 26.087 40.2175 26.087C40.8175 26.087 41.3045 25.6 41.3045 25C41.3045 24.4 40.8175 23.9131 40.2175 23.9131Z" fill="white"/>
<path d="M25 0C11.2153 0 0 11.2153 0 25C0 38.7847 11.2153 50 25 50C38.7847 50 50 38.7847 50 25C50 11.2153 38.7848 0 25 0ZM25 47.8261C12.413 47.8261 2.17388 37.587 2.17388 25C2.17388 12.413 12.413 2.17388 25 2.17388C37.587 2.17388 47.8261 12.413 47.8261 25C47.8261 37.587 37.587 47.8261 25 47.8261Z" fill="white"/>
</svg>
