<svg width="52" height="52" viewBox="0 0 52 52" fill="none" xmlns="http://www.w3.org/2000/svg">
<path d="M22.2391 14.7367V12.9566C22.2391 12.0805 22.95 11.3696 23.8261 11.3696C24.7008 11.3696 25.4136 12.0791 25.4108 12.9553M22.2391 14.7367L24.9108 39.0414C24.9108 39.6414 24.4238 40.1284 23.8238 40.1284C23.2238 40.1284 22.7368 39.6414 22.7368 39.0414V37.0113L22.2368 37.2613M22.2391 14.7367L20.1889 13.7116L20.1881 13.7112C19.4043 13.3208 18.4528 13.6384 18.0597 14.4214L18.0597 14.4214C17.665 15.2075 17.9878 16.159 18.7692 16.5513L18.7699 16.5517L22.2414 18.2874V24.4131H18.2874L16.5517 20.9417L16.5513 20.9409C16.1575 20.1564 15.2059 19.8441 14.4244 20.2299L14.4244 20.2299L14.4214 20.2314C13.6385 20.6244 13.3208 21.5759 13.7112 22.3599L13.7115 22.3606L14.7367 24.4109H12.9566C12.0805 24.4109 11.3696 25.1217 11.3696 25.9979C11.3696 26.874 12.0805 27.5849 12.9566 27.5849H14.7367L13.7119 29.6344C13.7118 29.6345 13.7118 29.6346 13.7117 29.6348C13.3174 30.4208 13.6401 31.3721 14.4214 31.7643L14.4221 31.7647C14.6491 31.8782 14.891 31.9327 15.1305 31.9327C15.7124 31.9327 16.2718 31.6128 16.5511 31.0573L16.5516 31.0563L18.2873 27.5849H22.2391V33.7128M22.2391 14.7367V33.7128M25.4108 12.9553C25.4108 12.9556 25.4108 12.956 25.4108 12.9563L24.9108 12.9544H25.4108V12.9553ZM25.4108 12.9553V39.0414C25.4108 39.9175 24.6999 40.6284 23.8238 40.6284C22.9476 40.6284 22.2368 39.9175 22.2368 39.0414V37.2613M22.2368 37.2613L20.1865 38.2864L19.9629 37.8392M22.2368 37.2613V36.7022L19.9629 37.8392M19.9629 37.8392L20.1865 38.2864C19.9595 38.4 19.7176 38.4545 19.4782 38.4545C18.8963 38.4545 18.3369 38.1346 18.0576 37.5791L18.0567 37.5773C17.6664 36.7934 17.9841 35.8419 18.7669 35.4489L18.7677 35.4485L22.2391 33.7128M19.9629 37.8392L22.2391 33.7128" fill="white" stroke="black"/>
<path d="M32.9842 19.5615L32.9849 19.5611C33.6584 19.1098 33.9959 18.8913 34.6957 18.8913C35.5181 18.8913 36.0845 19.011 36.5303 19.1816C36.982 19.3545 37.3329 19.5872 37.7413 19.861L37.7421 19.8615L37.7529 19.8687C38.5484 20.3998 39.5452 21.0653 41.2175 21.0653C42.0936 21.0653 42.8045 20.3544 42.8045 19.4783C42.8045 18.6021 42.0936 17.8913 41.2175 17.8913C40.5176 17.8913 40.1802 17.6727 39.5066 17.2215L39.5059 17.221L39.4952 17.2139C39.0237 16.8991 38.4542 16.519 37.6893 16.2235C36.9143 15.924 35.9566 15.7173 34.6957 15.7173C33.0231 15.7173 32.0263 16.3829 31.2306 16.9142L31.2203 16.9211L31.2196 16.9215C30.8112 17.1953 30.4603 17.428 30.0086 17.6009C29.5628 17.7715 28.9964 17.8913 28.174 17.8913C27.2978 17.8913 26.587 18.6021 26.587 19.4783C26.587 20.3544 27.2978 21.0653 28.174 21.0653C29.4348 21.0653 30.3925 20.8585 31.1675 20.5591C31.9325 20.2635 32.502 19.8834 32.9735 19.5687L32.9842 19.5615Z" fill="white" stroke="black"/>
<path d="M39.5066 30.2651L39.5059 30.2646L39.4952 30.2574C39.0237 29.9427 38.4542 29.5626 37.6893 29.267C36.9143 28.9676 35.9566 28.7609 34.6957 28.7609C33.0231 28.7609 32.0263 29.4264 31.2306 29.9577L31.2203 29.9646L31.2196 29.9651C30.8112 30.2388 30.4603 30.4716 30.0086 30.6445C29.5628 30.8151 28.9964 30.9348 28.174 30.9348C27.2978 30.9348 26.587 31.6457 26.587 32.5218C26.587 33.398 27.2979 34.1087 28.174 34.1087C29.4348 34.1087 30.3925 33.902 31.1675 33.6026C31.9325 33.307 32.502 32.9269 32.9735 32.6122L32.9842 32.605L32.9849 32.6045C33.6584 32.1533 33.9959 31.9347 34.6957 31.9347C35.5181 31.9347 36.0845 32.0544 36.5303 32.2251C36.982 32.398 37.3329 32.6307 37.7413 32.9045L37.7421 32.905L37.7529 32.9122C38.5484 33.4433 39.5452 34.1087 41.2175 34.1087C42.0936 34.1087 42.8045 33.3979 42.8045 32.5217C42.8045 31.6455 42.0936 30.9348 41.2175 30.9348C40.5176 30.9348 40.1802 30.7163 39.5066 30.2651Z" fill="white" stroke="black"/>
<path d="M39.5066 23.7433L39.5059 23.7429L39.4952 23.7357C39.0237 23.421 38.4542 23.0409 37.6893 22.7453C36.9143 22.4459 35.9566 22.2391 34.6957 22.2391C33.0231 22.2391 32.0263 22.9047 31.2306 23.436L31.2203 23.4429L31.2196 23.4434C30.8112 23.7171 30.4603 23.9499 30.0086 24.1228C29.5628 24.2934 28.9964 24.4131 28.174 24.4131C27.2978 24.4131 26.587 25.124 26.587 26.0001C26.587 26.8763 27.2979 27.587 28.174 27.587C29.4348 27.587 30.3925 27.3803 31.1675 27.0808C31.9325 26.7853 32.502 26.4051 32.9735 26.0904L32.9842 26.0833L32.9849 26.0828C33.6584 25.6316 33.9959 25.413 34.6957 25.413C35.5181 25.413 36.0845 25.5327 36.5303 25.7033C36.982 25.8762 37.3329 26.109 37.7413 26.3827L37.7421 26.3833L37.7529 26.3905C38.5484 26.9216 39.5452 27.587 41.2175 27.587C42.0936 27.587 42.8045 26.8762 42.8045 26C42.8045 25.1238 42.0936 24.4131 41.2175 24.4131C40.5176 24.4131 40.1802 24.1945 39.5066 23.7433Z" fill="white" stroke="black"/>
<path d="M26 0.5C11.9391 0.5 0.5 11.9391 0.5 26C0.5 40.0609 11.9391 51.5 26 51.5C40.0609 51.5 51.5 40.0609 51.5 26C51.5 11.9391 40.061 0.5 26 0.5ZM26 48.3261C13.6892 48.3261 3.67388 38.3108 3.67388 26C3.67388 13.6892 13.6892 3.67388 26 3.67388C38.3108 3.67388 48.3261 13.6892 48.3261 26C48.3261 38.3108 38.3108 48.3261 26 48.3261Z" fill="white" stroke="black"/>
</svg>
