<svg width="31" height="21" viewBox="0 0 31 21" fill="none" xmlns="http://www.w3.org/2000/svg">
<path d="M4.3822 12.5531V12.8031H4.6322H29.9447C30.1252 12.8031 30.2807 12.8693 30.4223 13.019C30.5642 13.1688 30.6322 13.3396 30.6322 13.5434V20.2254H27.3822V16.5142V16.2642H27.1322H4.6322H4.3822V16.5142V20.2254H1.1322V1.65996C1.1322 1.45614 1.20017 1.28543 1.34207 1.13554C1.48373 0.985907 1.63917 0.919678 1.8197 0.919678H3.6947C3.87524 0.919678 4.03068 0.985907 4.17233 1.13554C4.31423 1.28543 4.3822 1.45614 4.3822 1.65996V12.5531ZM11.7895 4.97289C12.4767 5.69878 12.8197 6.5703 12.8197 7.60167C12.8197 8.63304 12.4767 9.50456 11.7895 10.2304C11.1028 10.9559 10.2839 11.3128 9.3197 11.3128C8.35545 11.3128 7.53664 10.9559 6.84988 10.2304C6.16269 9.50456 5.8197 8.63304 5.8197 7.60167C5.8197 6.5703 6.16269 5.69878 6.84988 4.97289C7.53664 4.24747 8.35545 3.89053 9.3197 3.89053C10.2839 3.89053 11.1028 4.24747 11.7895 4.97289ZM30.6322 10.5725V11.3128H14.2572V5.6211C14.2572 5.41728 14.3252 5.24657 14.4671 5.09668C14.6087 4.94705 14.7642 4.88082 14.9447 4.88082H25.2572C26.739 4.88082 27.9997 5.43116 29.0527 6.54342C30.1061 7.65614 30.6322 8.99443 30.6322 10.5725Z" fill="white" stroke="black" stroke-width="0.5"/>
</svg>
