<svg width="31" height="21" viewBox="0 0 31 21" fill="none" xmlns="http://www.w3.org/2000/svg">
<path d="M4.6322 12.5531H29.9447C30.1986 12.5531 30.4183 12.6511 30.6039 12.8471C30.7894 13.0431 30.8822 13.2752 30.8822 13.5434V20.4754H27.1322V16.5142H4.6322V20.4754H0.882202V1.65996C0.882202 1.39176 0.974976 1.15966 1.16052 0.963668C1.34607 0.767675 1.5658 0.669678 1.8197 0.669678H3.6947C3.94861 0.669678 4.16833 0.767675 4.35388 0.963668C4.53943 1.15966 4.6322 1.39176 4.6322 1.65996V12.5531ZM13.0697 7.60167C13.0697 6.50823 12.7035 5.57468 11.9711 4.80102C11.2386 4.02736 10.3549 3.64053 9.3197 3.64053C8.28455 3.64053 7.40076 4.02736 6.66833 4.80102C5.93591 5.57468 5.5697 6.50823 5.5697 7.60167C5.5697 8.69511 5.93591 9.62866 6.66833 10.4023C7.40076 11.176 8.28455 11.5628 9.3197 11.5628C10.3549 11.5628 11.2386 11.176 11.9711 10.4023C12.7035 9.62866 13.0697 8.69511 13.0697 7.60167ZM30.8822 11.5628V10.5725C30.8822 8.93237 30.3329 7.53204 29.2343 6.37155C28.1356 5.21106 26.8099 4.63082 25.2572 4.63082H14.9447C14.6908 4.63082 14.4711 4.72881 14.2855 4.92481C14.1 5.1208 14.0072 5.3529 14.0072 5.6211V11.5628H30.8822Z" fill="white"/>
</svg>
