<svg width="33" height="23" viewBox="0 0 33 23" fill="none" xmlns="http://www.w3.org/2000/svg">
<path d="M31.8822 21.9754H32.3822V21.4754V14.5434C32.3822 14.1464 32.2398 13.7915 31.967 13.5033C31.7326 13.2557 31.443 13.1016 31.1125 13.0628H31.8822H32.3822V12.5628V11.5725C32.3822 9.80824 31.7864 8.28384 30.5974 7.02781C29.4074 5.77085 27.9518 5.13082 26.2572 5.13082H15.9447C15.5441 5.13082 15.1958 5.29235 14.9224 5.58106C14.6496 5.86926 14.5072 6.22413 14.5072 6.6211V7.80532C14.3635 6.91824 13.9721 6.13114 13.3342 5.45728C12.5104 4.58715 11.4967 4.14053 10.3197 4.14053C9.14273 4.14053 8.12898 4.58715 7.30524 5.45728C6.6673 6.13114 6.2759 6.91824 6.1322 7.80532V2.65996C6.1322 2.26299 5.98982 1.90813 5.71698 1.61992C5.44365 1.33121 5.09535 1.16968 4.6947 1.16968H2.8197C2.41905 1.16968 2.07075 1.33121 1.79742 1.61992C1.52459 1.90813 1.3822 2.26299 1.3822 2.65996V21.4754V21.9754H1.8822H5.6322H6.1322V21.4754V18.0142H27.6322V21.4754V21.9754H28.1322H31.8822ZM14.5072 12.5628V13.0531H10.617C11.6681 12.9836 12.5806 12.542 13.3342 11.7461C13.9721 11.0722 14.3635 10.2851 14.5072 9.39802V12.5628ZM7.30524 11.7461C8.05878 12.542 8.97133 12.9836 10.0224 13.0531H6.1322V9.39802C6.2759 10.2851 6.6673 11.0722 7.30524 11.7461Z" fill="white" stroke="black"/>
</svg>
