<svg width="38" height="62" viewBox="0 0 38 62" fill="none" xmlns="http://www.w3.org/2000/svg">
<path d="M3.31143 40.3657C3.33705 40.0536 3.31983 39.7357 3.31983 39.4216C3.32086 36.1906 3.31143 32.9587 3.33705 29.7284C3.3391 29.4506 3.56501 29.1758 3.68678 28.8991C3.84647 29.1824 4.04696 29.4484 4.15355 29.7533C4.22592 29.9605 4.16872 30.221 4.16872 30.4577C4.16872 40.0326 4.16606 49.6055 4.16975 59.181C4.16975 60.8671 4.9063 61.8524 6.1617 61.8802C7.49193 61.908 8.23935 60.947 8.24468 59.1609C8.25349 56.4028 8.24673 53.6456 8.2457 50.8876C8.2457 48.2472 8.22951 45.6066 8.26497 42.9674C8.26928 42.6473 8.54869 42.3297 8.70121 42.0099C8.83138 42.0655 8.95991 42.121 9.08988 42.1786C9.08988 42.6452 9.08988 43.1118 9.08988 43.5781C9.08988 48.8567 9.09296 54.1365 9.0866 59.4161C9.08558 60.4027 9.3615 61.339 10.2635 61.598C10.9244 61.789 11.8988 61.7468 12.386 61.3381C12.8889 60.9148 13.2021 59.9252 13.2058 59.181C13.2569 49.4889 13.2386 39.797 13.2366 30.1051C13.2366 29.9485 13.1808 29.7719 13.2302 29.6363C13.3218 29.3819 13.4707 29.1509 13.5967 28.9098C13.7363 29.1314 13.959 29.3375 13.9975 29.5785C14.0658 29.9997 14.0231 30.4415 14.0231 30.8738C14.0221 33.8681 14.0106 36.8628 14.0221 39.8569C14.0278 41.2823 14.617 42.0407 15.6658 42.053C16.7436 42.0674 17.3125 41.3409 17.3152 39.9048C17.3203 35.1371 17.3267 30.37 17.3115 25.6029C17.3043 23.2412 16.0264 21.895 13.7868 21.8832C10.4265 21.8648 7.06779 21.8673 3.7081 21.8778C1.28729 21.8854 0.0199947 23.2402 0.0132298 25.8112C0.00482493 29.3963 0.00994986 32.9819 0.0111798 36.5673C0.0111798 37.8275 -0.0226447 39.0904 0.0273746 40.3491C0.067964 41.3823 0.763929 42.0543 1.66284 42.0565C2.5718 42.0574 3.22922 41.3919 3.31143 40.3657Z" fill="white"/>
<path d="M11.9684 16.8718C11.982 14.9095 10.5189 13.3282 8.68849 13.3306C6.85417 13.3317 5.35729 14.9185 5.3702 16.849C5.38168 18.7369 6.84003 20.2944 8.61489 20.3149C10.4939 20.3353 11.9543 18.8362 11.9684 16.8718Z" fill="white"/>
<path d="M33.7865 21.8821C30.4262 21.8637 27.0682 21.8659 23.7079 21.8766C21.2877 21.8843 20.0198 23.239 20.0136 25.81C20.0052 29.3952 20.0116 32.981 20.0116 36.5662C20.0116 37.8264 19.9771 39.0882 20.0271 40.3478C20.0688 41.3809 20.7641 42.053 21.6626 42.0554C22.5732 42.0575 23.2302 41.3934 23.3124 40.3657C23.3385 40.0535 23.3208 39.7357 23.3208 39.4216C23.3219 36.1906 23.3124 32.9587 23.3385 29.7284C23.3407 29.4505 23.5654 29.1758 23.6884 28.8991C23.8475 29.1823 24.0486 29.4483 24.1545 29.7533C24.2273 29.9605 24.1681 30.221 24.1681 30.4577C24.1681 40.0325 24.1658 49.6054 24.1691 59.1809C24.1691 60.8671 24.9061 61.8524 26.1615 61.8802C27.4919 61.9079 28.2393 60.9469 28.2444 59.1608C28.2528 56.4028 28.2455 53.6456 28.2455 50.8876C28.2455 48.2472 28.2299 45.6066 28.2654 42.9673C28.2697 42.6473 28.5487 42.3297 28.7006 42.0099C28.8307 42.0654 28.9599 42.121 29.0898 42.1785C29.0898 42.6451 29.0898 43.1117 29.0898 43.5781C29.0898 48.8566 29.0929 54.1365 29.0866 59.4161C29.0855 60.4027 29.3615 61.339 30.2639 61.598C30.925 61.7889 31.8983 61.7467 32.3854 61.3381C32.8893 60.9148 33.2025 59.9251 33.2058 59.1809C33.2566 49.4888 33.239 39.7969 33.2369 30.105C33.2369 29.9484 33.1808 29.7719 33.2296 29.6363C33.3222 29.3818 33.4713 29.1508 33.5971 28.9098C33.7367 29.1314 33.9593 29.3374 33.9979 29.5785C34.0655 29.9996 34.0229 30.4415 34.0229 30.8737C34.0217 33.8681 34.0102 36.8628 34.0217 39.8569C34.0268 41.2823 34.6172 42.0407 35.6655 42.053C36.744 42.0674 37.3123 41.3409 37.3145 39.9048C37.3207 35.137 37.326 30.37 37.3113 25.6029C37.3051 23.2401 36.0267 21.8937 33.7865 21.8821Z" fill="white"/>
<path d="M31.9705 16.8718C31.9838 14.9095 30.5203 13.3282 28.6903 13.3306C26.8562 13.3317 25.3591 14.9185 25.3726 16.849C25.3841 18.7369 26.8425 20.2944 28.6173 20.3149C30.4961 20.3353 31.9567 18.8362 31.9705 16.8718Z" fill="white"/>
<path d="M13.1765 1.1981L15.8717 3.56548L18.273 0.614031C18.3402 0.531519 18.4252 0.465214 18.5217 0.420052C18.6182 0.37489 18.7236 0.352036 18.8301 0.353191C18.9367 0.354346 19.0416 0.379482 19.1371 0.426725C19.2325 0.473968 19.3161 0.542101 19.3815 0.626052L21.673 3.56477L24.4553 1.16345C24.5646 1.06934 24.7 1.01079 24.8435 0.995641C24.987 0.98049 25.1318 1.00946 25.2583 1.07867C25.3849 1.14788 25.4873 1.25403 25.5517 1.38291C25.6162 1.51179 25.6397 1.65726 25.6191 1.79984L24.5566 9.11623H13.0865L12.0078 1.83308C11.9863 1.6897 12.0096 1.54322 12.0743 1.41346C12.139 1.2837 12.2422 1.17695 12.3697 1.10765C12.4973 1.03835 12.6431 1.00987 12.7874 1.02604C12.9317 1.04222 13.0675 1.10229 13.1765 1.1981ZM13.1418 9.82334H24.4751V10.5304C24.4751 10.718 24.4005 10.8978 24.2677 11.0304C24.1348 11.163 23.9547 11.2375 23.7668 11.2375H13.8501C13.6623 11.2375 13.4821 11.163 13.3493 11.0304C13.2164 10.8978 13.1418 10.718 13.1418 10.5304V9.82334Z" fill="white" stroke="white" stroke-width="0.008"/>
</svg>
