<svg width="40" height="40" viewBox="0 0 40 40" fill="none" xmlns="http://www.w3.org/2000/svg">
<path d="M32.0625 6.375H7.9375V8H32.0625V6.375Z" fill="white"/>
<path d="M32.0625 38.75H8V40H32.0625V38.75Z" fill="white"/>
<path d="M27.375 12H25.375V14.25H27.375V12Z" fill="white"/>
<path d="M22.6875 32.75V37.4375H17.25V32.75C17.25 31.25 18.5 30 20 30C21.5 30 22.6875 31.25 22.6875 32.75Z" fill="white"/>
<path d="M9.6875 9.3125V37.4375H16V32.75C16 30.5 17.8125 28.75 20 28.75C22.25 28.75 24 30.5625 24 32.75V37.4375H30.3125V9.3125H9.6875V9.3125ZM15.9375 26.75C15.9375 27.125 15.625 27.375 15.3125 27.375H12C11.625 27.375 11.375 27.0625 11.375 26.75V23.1875C11.375 22.8125 11.6875 22.5625 12 22.5625H15.3125C15.6875 22.5625 15.9375 22.875 15.9375 23.1875V26.75ZM15.9375 20.8125C15.9375 21.1875 15.625 21.4375 15.3125 21.4375H12C11.625 21.4375 11.375 21.125 11.375 20.8125V17.25C11.375 16.875 11.6875 16.625 12 16.625H15.3125C15.6875 16.625 15.9375 16.9375 15.9375 17.25V20.8125ZM15.9375 14.875C15.9375 15.25 15.625 15.5 15.3125 15.5H12C11.625 15.5 11.375 15.1875 11.375 14.875V11.3125C11.375 10.9375 11.6875 10.6875 12 10.6875H15.3125C15.6875 10.6875 15.9375 11 15.9375 11.3125V14.875ZM22.3125 26.75C22.3125 27.125 22 27.375 21.6875 27.375H18.375C18 27.375 17.75 27.0625 17.75 26.75V23.1875C17.75 22.8125 18.0625 22.5625 18.375 22.5625H21.6875C22.0625 22.5625 22.3125 22.875 22.3125 23.1875V26.75ZM22.3125 20.8125C22.3125 21.1875 22 21.4375 21.6875 21.4375H18.375C18 21.4375 17.75 21.125 17.75 20.8125V17.25C17.75 16.875 18.0625 16.625 18.375 16.625H21.6875C22.0625 16.625 22.3125 16.9375 22.3125 17.25V20.8125ZM22.3125 14.875C22.3125 15.25 22 15.5 21.6875 15.5H18.375C18 15.5 17.75 15.1875 17.75 14.875V11.3125C17.75 10.9375 18.0625 10.6875 18.375 10.6875H21.6875C22.0625 10.6875 22.3125 11 22.3125 11.3125V14.875ZM28.6875 26.75C28.6875 27.125 28.375 27.375 28.0625 27.375H24.75C24.375 27.375 24.125 27.0625 24.125 26.75V23.1875C24.125 22.8125 24.4375 22.5625 24.75 22.5625H28.0625C28.4375 22.5625 28.6875 22.875 28.6875 23.1875V26.75ZM28.6875 20.8125C28.6875 21.1875 28.375 21.4375 28.0625 21.4375H24.75C24.375 21.4375 24.125 21.125 24.125 20.8125V17.25C24.125 16.875 24.4375 16.625 24.75 16.625H28.0625C28.4375 16.625 28.6875 16.9375 28.6875 17.25V20.8125ZM28.6875 14.875C28.6875 15.25 28.375 15.5 28.0625 15.5H24.75C24.375 15.5 24.125 15.1875 24.125 14.875V11.3125C24.125 10.9375 24.4375 10.6875 24.75 10.6875H28.0625C28.4375 10.6875 28.6875 11 28.6875 11.3125V14.875Z" fill="white"/>
<path d="M14.625 12H12.625V14.25H14.625V12Z" fill="white"/>
<path d="M21 12H19V14.25H21V12Z" fill="white"/>
<path d="M14.625 17.9375H12.625V20.1875H14.625V17.9375Z" fill="white"/>
<path d="M21 17.9375H19V20.1875H21V17.9375Z" fill="white"/>
<path d="M27.375 17.9375H25.375V20.1875H27.375V17.9375Z" fill="white"/>
<path d="M14.625 23.875H12.625V26.125H14.625V23.875Z" fill="white"/>
<path d="M21 23.875H19V26.125H21V23.875Z" fill="white"/>
<path d="M27.375 23.875H25.375V26.125H27.375V23.875Z" fill="white"/>
<path d="M28.9375 3.25L29.25 5.0625L27.625 4.1875L26 5.0625L26.3125 3.25L24.9375 1.9375L26.8125 1.6875L27.625 0L28.4375 1.6875L30.3125 1.9375L28.9375 3.25Z" fill="white"/>
<path d="M28.9375 3.25L29.25 5.0625L27.625 4.1875L26 5.0625L26.3125 3.25L24.9375 1.9375L26.8125 1.6875L27.625 0L28.4375 1.6875L30.3125 1.9375L28.9375 3.25Z" fill="white"/>
<path d="M21.3125 3.25L21.625 5.0625L20 4.1875L18.375 5.0625L18.625 3.5625L18.6875 3.25L17.3125 1.9375L19.1875 1.6875L20 0L20.8125 1.6875L22.6875 1.9375L21.3125 3.25Z" fill="white"/>
<path d="M21.3125 3.25L21.625 5.0625L20 4.1875L18.375 5.0625L18.625 3.5625L18.6875 3.25L17.3125 1.9375L19.1875 1.6875L20 0L20.8125 1.6875L22.6875 1.9375L21.3125 3.25Z" fill="white"/>
<path d="M13.6875 3.25L14 5.0625L12.375 4.1875L10.75 5.0625L11.0625 3.25L9.6875 1.9375L11.5625 1.6875L12.375 0L13.1875 1.6875L15.0625 1.9375L13.6875 3.25Z" fill="white"/>
<path d="M13.6875 3.25L14 5.0625L12.375 4.1875L10.75 5.0625L11.0625 3.25L9.6875 1.9375L11.5625 1.6875L12.375 0L13.1875 1.6875L15.0625 1.9375L13.6875 3.25Z" fill="white"/>
</svg>
