<svg width="37" height="37" viewBox="0 0 37 37" fill="none" xmlns="http://www.w3.org/2000/svg">
<path d="M7.46719 7.27501V6.02188H29.5328V7.27501H7.46719Z" fill="white" stroke="black" stroke-width="0.25"/>
<path d="M7.52499 36.875V35.9688H29.5328V36.875H7.52499Z" fill="white" stroke="black" stroke-width="0.25"/>
<path d="M23.5969 13.0563V11.225H25.1969V13.0563H23.5969Z" fill="white" stroke="black" stroke-width="0.25"/>
<path d="M20.8609 30.2938V34.5047H16.0812V30.2938C16.0812 28.9753 17.1815 27.875 18.5 27.875C19.8147 27.875 20.8609 28.9715 20.8609 30.2938Z" fill="white" stroke="black" stroke-width="0.25"/>
<path d="M14.675 34.5047H9.08594V8.73907H27.9141V34.5047H22.325V30.2938C22.325 28.2026 20.6516 26.4688 18.5 26.4688C16.4088 26.4688 14.675 28.1422 14.675 30.2938V34.5047ZM14.1641 25.4469C14.5139 25.4469 14.8672 25.1677 14.8672 24.7438V21.4484C14.8672 21.0986 14.588 20.7453 14.1641 20.7453H11.1C10.7502 20.7453 10.3969 21.0246 10.3969 21.4484V24.7438C10.3969 25.0936 10.6761 25.4469 11.1 25.4469H14.1641ZM14.1641 19.9547C14.5139 19.9547 14.8672 19.6755 14.8672 19.2516V15.9563C14.8672 15.6064 14.588 15.2531 14.1641 15.2531H11.1C10.7502 15.2531 10.3969 15.5324 10.3969 15.9563V19.2516C10.3969 19.6014 10.6761 19.9547 11.1 19.9547H14.1641ZM14.1641 14.4625C14.5139 14.4625 14.8672 14.1833 14.8672 13.7594V10.4641C14.8672 10.1142 14.588 9.76095 14.1641 9.76095H11.1C10.7502 9.76095 10.3969 10.0402 10.3969 10.4641V13.7594C10.3969 14.1092 10.6761 14.4625 11.1 14.4625H14.1641ZM20.0609 25.4469C20.4108 25.4469 20.7641 25.1677 20.7641 24.7438V21.4484C20.7641 21.0986 20.4848 20.7453 20.0609 20.7453H16.9969C16.647 20.7453 16.2937 21.0246 16.2937 21.4484V24.7438C16.2937 25.0936 16.573 25.4469 16.9969 25.4469H20.0609ZM20.0609 19.9547C20.4108 19.9547 20.7641 19.6755 20.7641 19.2516V15.9563C20.7641 15.6064 20.4848 15.2531 20.0609 15.2531H16.9969C16.647 15.2531 16.2937 15.5324 16.2937 15.9563V19.2516C16.2937 19.6014 16.573 19.9547 16.9969 19.9547H20.0609ZM20.0609 14.4625C20.4108 14.4625 20.7641 14.1833 20.7641 13.7594V10.4641C20.7641 10.1142 20.4848 9.76095 20.0609 9.76095H16.9969C16.647 9.76095 16.2937 10.0402 16.2937 10.4641V13.7594C16.2937 14.1092 16.573 14.4625 16.9969 14.4625H20.0609ZM25.9578 25.4469C26.3076 25.4469 26.6609 25.1677 26.6609 24.7438V21.4484C26.6609 21.0986 26.3817 20.7453 25.9578 20.7453H22.8937C22.5439 20.7453 22.1906 21.0246 22.1906 21.4484V24.7438C22.1906 25.0936 22.4699 25.4469 22.8937 25.4469H25.9578ZM25.9578 19.9547C26.3076 19.9547 26.6609 19.6755 26.6609 19.2516V15.9563C26.6609 15.6064 26.3817 15.2531 25.9578 15.2531H22.8937C22.5439 15.2531 22.1906 15.5324 22.1906 15.9563V19.2516C22.1906 19.6014 22.4699 19.9547 22.8937 19.9547H25.9578ZM25.9578 14.4625C26.3076 14.4625 26.6609 14.1833 26.6609 13.7594V10.4641C26.6609 10.1142 26.3817 9.76095 25.9578 9.76095H22.8937C22.5439 9.76095 22.1906 10.0402 22.1906 10.4641V13.7594C22.1906 14.1092 22.4699 14.4625 22.8937 14.4625H25.9578Z" fill="white" stroke="black" stroke-width="0.25"/>
<path d="M11.8031 13.0563V11.225H13.4031V13.0563H11.8031Z" fill="white" stroke="black" stroke-width="0.25"/>
<path d="M17.7 13.0563V11.225H19.3V13.0563H17.7Z" fill="white" stroke="black" stroke-width="0.25"/>
<path d="M11.8031 18.5484V16.7172H13.4031V18.5484H11.8031Z" fill="white" stroke="black" stroke-width="0.25"/>
<path d="M17.7 18.5484V16.7172H19.3V18.5484H17.7Z" fill="white" stroke="black" stroke-width="0.25"/>
<path d="M23.5969 18.5484V16.7172H25.1969V18.5484H23.5969Z" fill="white" stroke="black" stroke-width="0.25"/>
<path d="M11.8031 24.0406V22.2094H13.4031V24.0406H11.8031Z" fill="white" stroke="black" stroke-width="0.25"/>
<path d="M17.7 24.0406V22.2094H19.3V24.0406H17.7Z" fill="white" stroke="black" stroke-width="0.25"/>
<path d="M23.5969 24.0406V22.2094H25.1969V24.0406H23.5969Z" fill="white" stroke="black" stroke-width="0.25"/>
<path d="M26.6809 2.91583L26.6327 2.96183L26.644 3.02749L26.8895 4.45102L25.6124 3.76338L25.5531 3.73147L25.4939 3.76338L24.2168 4.45102L24.4623 3.02749L24.4736 2.96183L24.4254 2.91583L23.342 1.88166L24.8181 1.68484L24.8849 1.67593L24.9142 1.61516L25.5531 0.288141L26.1921 1.61516L26.2213 1.67593L26.2882 1.68484L27.7643 1.88166L26.6809 2.91583Z" fill="white" stroke="black" stroke-width="0.25"/>
<path d="M26.6809 2.91583L26.6327 2.96183L26.644 3.02749L26.8895 4.45102L25.6124 3.76338L25.5531 3.73147L25.4939 3.76338L24.2168 4.45102L24.4623 3.02749L24.4736 2.96183L24.4254 2.91583L23.342 1.88166L24.8181 1.68484L24.8849 1.67593L24.9142 1.61516L25.5531 0.288141L26.1921 1.61516L26.2213 1.67593L26.2882 1.68484L27.7643 1.88166L26.6809 2.91583Z" fill="white" stroke="black" stroke-width="0.25"/>
<path d="M19.6278 2.91583L19.5796 2.96183L19.5909 3.02749L19.8363 4.45102L18.5593 3.76338L18.5 3.73147L18.4407 3.76338L17.1621 4.45188L17.3511 3.31785L17.4085 3.03076L17.422 2.96332L17.3723 2.91583L16.2888 1.88166L17.765 1.68484L17.8318 1.67593L17.8611 1.61516L18.5 0.288141L19.1389 1.61516L19.1682 1.67593L19.235 1.68484L20.7112 1.88166L19.6278 2.91583Z" fill="white" stroke="black" stroke-width="0.25"/>
<path d="M19.6278 2.91583L19.5796 2.96183L19.5909 3.02749L19.8363 4.45102L18.5593 3.76338L18.5 3.73147L18.4407 3.76338L17.1621 4.45188L17.3511 3.31785L17.4085 3.03076L17.422 2.96332L17.3723 2.91583L16.2888 1.88166L17.765 1.68484L17.8318 1.67593L17.8611 1.61516L18.5 0.288141L19.1389 1.61516L19.1682 1.67593L19.235 1.68484L20.7112 1.88166L19.6278 2.91583Z" fill="white" stroke="black" stroke-width="0.25"/>
<path d="M12.5746 2.91583L12.5264 2.96183L12.5378 3.02749L12.7832 4.45102L11.5061 3.76338L11.4469 3.73147L11.3876 3.76338L10.1106 4.45102L10.356 3.02749L10.3673 2.96183L10.3191 2.91583L9.2357 1.88166L10.7118 1.68484L10.7787 1.67593L10.8079 1.61516L11.4469 0.288141L12.0858 1.61516L12.1151 1.67593L12.1819 1.68484L13.658 1.88166L12.5746 2.91583Z" fill="white" stroke="black" stroke-width="0.25"/>
<path d="M12.5746 2.91583L12.5264 2.96183L12.5378 3.02749L12.7832 4.45102L11.5061 3.76338L11.4469 3.73147L11.3876 3.76338L10.1106 4.45102L10.356 3.02749L10.3673 2.96183L10.3191 2.91583L9.2357 1.88166L10.7118 1.68484L10.7787 1.67593L10.8079 1.61516L11.4469 0.288141L12.0858 1.61516L12.1151 1.67593L12.1819 1.68484L13.658 1.88166L12.5746 2.91583Z" fill="white" stroke="black" stroke-width="0.25"/>
</svg>
