<svg width="40" height="40" viewBox="0 0 40 40" fill="none" xmlns="http://www.w3.org/2000/svg">
<g clip-path="url(#clip0_112_61)">
<path d="M7.9375 6.125H7.6875V6.375V8V8.25H7.9375H32.0625H32.3125V8V6.375V6.125H32.0625H7.9375Z" fill="white" stroke="black" stroke-width="0.5"/>
<path d="M8 38.5H7.75V38.75V40V40.25H8H32.0625H32.3125V40V38.75V38.5H32.0625H8Z" fill="white" stroke="black" stroke-width="0.5"/>
<path d="M25.375 11.75H25.125V12V14.25V14.5H25.375H27.375H27.625V14.25V12V11.75H27.375H25.375Z" fill="white" stroke="black" stroke-width="0.5"/>
<path d="M22.6875 37.6875H22.9375V37.4375V32.75C22.9375 31.1195 21.6455 29.75 20 29.75C18.3619 29.75 17 31.1119 17 32.75V37.4375V37.6875H17.25H22.6875Z" fill="white" stroke="black" stroke-width="0.5"/>
<path d="M9.4375 37.4375V37.6875H9.6875H16H16.25V37.4375V32.75C16.25 30.6406 17.948 29 20 29C22.1094 29 23.75 30.698 23.75 32.75V37.4375V37.6875H24H30.3125H30.5625V37.4375V9.3125V9.0625H30.3125H9.6875V9.3125H9.4375V37.4375ZM15.6875 26.75C15.6875 26.971 15.5035 27.125 15.3125 27.125H12C11.779 27.125 11.625 26.941 11.625 26.75V23.1875C11.625 22.9665 11.809 22.8125 12 22.8125H15.3125C15.5335 22.8125 15.6875 22.9965 15.6875 23.1875V26.75ZM15.6875 20.8125C15.6875 21.0335 15.5035 21.1875 15.3125 21.1875H12C11.779 21.1875 11.625 21.0035 11.625 20.8125V17.25C11.625 17.029 11.809 16.875 12 16.875H15.3125C15.5335 16.875 15.6875 17.059 15.6875 17.25V20.8125ZM15.6875 14.875C15.6875 15.096 15.5035 15.25 15.3125 15.25H12C11.779 15.25 11.625 15.066 11.625 14.875V11.3125C11.625 11.0915 11.809 10.9375 12 10.9375H15.3125C15.5335 10.9375 15.6875 11.1215 15.6875 11.3125V14.875ZM22.0625 26.75C22.0625 26.971 21.8785 27.125 21.6875 27.125H18.375C18.154 27.125 18 26.941 18 26.75V23.1875C18 22.9665 18.184 22.8125 18.375 22.8125H21.6875C21.9085 22.8125 22.0625 22.9965 22.0625 23.1875V26.75ZM22.0625 20.8125C22.0625 21.0335 21.8785 21.1875 21.6875 21.1875H18.375C18.154 21.1875 18 21.0035 18 20.8125V17.25C18 17.029 18.184 16.875 18.375 16.875H21.6875C21.9085 16.875 22.0625 17.059 22.0625 17.25V20.8125ZM22.0625 14.875C22.0625 15.096 21.8785 15.25 21.6875 15.25H18.375C18.154 15.25 18 15.066 18 14.875V11.3125C18 11.0915 18.184 10.9375 18.375 10.9375H21.6875C21.9085 10.9375 22.0625 11.1215 22.0625 11.3125V14.875ZM28.4375 26.75C28.4375 26.971 28.2535 27.125 28.0625 27.125H24.75C24.529 27.125 24.375 26.941 24.375 26.75V23.1875C24.375 22.9665 24.559 22.8125 24.75 22.8125H28.0625C28.2835 22.8125 28.4375 22.9965 28.4375 23.1875V26.75ZM28.4375 20.8125C28.4375 21.0335 28.2535 21.1875 28.0625 21.1875H24.75C24.529 21.1875 24.375 21.0035 24.375 20.8125V17.25C24.375 17.029 24.559 16.875 24.75 16.875H28.0625C28.2835 16.875 28.4375 17.059 28.4375 17.25V20.8125ZM28.4375 14.875C28.4375 15.096 28.2535 15.25 28.0625 15.25H24.75C24.529 15.25 24.375 15.066 24.375 14.875V11.3125C24.375 11.0915 24.559 10.9375 24.75 10.9375H28.0625C28.2835 10.9375 28.4375 11.1215 28.4375 11.3125V14.875Z" fill="white" stroke="black" stroke-width="0.5"/>
<path d="M12.625 11.75H12.375V12V14.25V14.5H12.625H14.625H14.875V14.25V12V11.75H14.625H12.625Z" fill="white" stroke="black" stroke-width="0.5"/>
<path d="M19 11.75H18.75V12V14.25V14.5H19H21H21.25V14.25V12V11.75H21H19Z" fill="white" stroke="black" stroke-width="0.5"/>
<path d="M12.625 17.6875H12.375V17.9375V20.1875V20.4375H12.625H14.625H14.875V20.1875V17.9375V17.6875H14.625H12.625Z" fill="white" stroke="black" stroke-width="0.5"/>
<path d="M19 17.6875H18.75V17.9375V20.1875V20.4375H19H21H21.25V20.1875V17.9375V17.6875H21H19Z" fill="white" stroke="black" stroke-width="0.5"/>
<path d="M25.375 17.6875H25.125V17.9375V20.1875V20.4375H25.375H27.375H27.625V20.1875V17.9375V17.6875H27.375H25.375Z" fill="white" stroke="black" stroke-width="0.5"/>
<path d="M12.625 23.625H12.375V23.875V26.125V26.375H12.625H14.625H14.875V26.125V23.875V23.625H14.625H12.625Z" fill="white" stroke="black" stroke-width="0.5"/>
<path d="M19 23.625H18.75V23.875V26.125V26.375H19H21H21.25V26.125V23.875V23.625H21H19Z" fill="white" stroke="black" stroke-width="0.5"/>
<path d="M25.375 23.625H25.125V23.875V26.125V26.375H25.375H27.375H27.625V26.125V23.875V23.625H27.375H25.375Z" fill="white" stroke="black" stroke-width="0.5"/>
<path d="M29.2065 3.33883L30.4851 2.11834L30.862 1.75856L30.3455 1.68969L28.6042 1.45752L27.8503 -0.108454L27.625 -0.576282L27.3997 -0.108454L26.6458 1.45752L24.9045 1.68969L24.388 1.75856L24.7649 2.11834L26.0435 3.33883L25.7536 5.02002L25.6664 5.52608L26.1185 5.28262L27.625 4.47144L29.1315 5.28262L29.5836 5.52608L29.4964 5.02002L29.2065 3.33883Z" fill="white" stroke="black" stroke-width="0.5"/>
<path d="M29.2065 3.33883L30.4851 2.11834L30.862 1.75856L30.3455 1.68969L28.6042 1.45752L27.8503 -0.108454L27.625 -0.576282L27.3997 -0.108454L26.6458 1.45752L24.9045 1.68969L24.388 1.75856L24.7649 2.11834L26.0435 3.33883L25.7536 5.02002L25.6664 5.52608L26.1185 5.28262L27.625 4.47144L29.1315 5.28262L29.5836 5.52608L29.4964 5.02002L29.2065 3.33883Z" fill="white" stroke="black" stroke-width="0.5"/>
<path d="M21.5815 3.33883L22.8601 2.11834L23.237 1.75856L22.7205 1.68969L20.9792 1.45752L20.2253 -0.108454L20 -0.576282L19.7747 -0.108454L19.0208 1.45752L17.2795 1.68969L16.763 1.75856L17.1399 2.11834L18.4154 3.33586L18.3799 3.51347L18.3797 3.51345L18.3784 3.5214L18.1284 5.0214L18.0446 5.52436L18.4935 5.28262L20 4.47144L21.5065 5.28262L21.9586 5.52608L21.8714 5.02002L21.5815 3.33883Z" fill="white" stroke="black" stroke-width="0.5"/>
<path d="M21.5815 3.33883L22.8601 2.11834L23.237 1.75856L22.7205 1.68969L20.9792 1.45752L20.2253 -0.108454L20 -0.576282L19.7747 -0.108454L19.0208 1.45752L17.2795 1.68969L16.763 1.75856L17.1399 2.11834L18.4154 3.33586L18.3799 3.51347L18.3797 3.51345L18.3784 3.5214L18.1284 5.0214L18.0446 5.52436L18.4935 5.28262L20 4.47144L21.5065 5.28262L21.9586 5.52608L21.8714 5.02002L21.5815 3.33883Z" fill="white" stroke="black" stroke-width="0.5"/>
<path d="M13.9565 3.33883L15.2351 2.11834L15.612 1.75856L15.0955 1.68969L13.3542 1.45752L12.6003 -0.108454L12.375 -0.576282L12.1497 -0.108454L11.3958 1.45752L9.65446 1.68969L9.13797 1.75856L9.51488 2.11834L10.7935 3.33883L10.5036 5.02002L10.4164 5.52608L10.8685 5.28262L12.375 4.47144L13.8815 5.28262L14.3336 5.52608L14.2464 5.02002L13.9565 3.33883Z" fill="white" stroke="black" stroke-width="0.5"/>
<path d="M13.9565 3.33883L15.2351 2.11834L15.612 1.75856L15.0955 1.68969L13.3542 1.45752L12.6003 -0.108454L12.375 -0.576282L12.1497 -0.108454L11.3958 1.45752L9.65446 1.68969L9.13797 1.75856L9.51488 2.11834L10.7935 3.33883L10.5036 5.02002L10.4164 5.52608L10.8685 5.28262L12.375 4.47144L13.8815 5.28262L14.3336 5.52608L14.2464 5.02002L13.9565 3.33883Z" fill="white" stroke="black" stroke-width="0.5"/>
</g>
<defs>
<clipPath id="clip0_112_61">
<rect width="40" height="40" fill="white"/>
</clipPath>
</defs>
</svg>
