<svg width="23" height="30" viewBox="0 0 23 30" fill="none" xmlns="http://www.w3.org/2000/svg">
<path d="M11.7517 29.3632L11.9322 29.5363L11.7517 29.3632C11.6844 29.4334 11.5889 29.4739 11.5 29.4739C11.4111 29.4739 11.3156 29.4334 11.2483 29.3632L11.0679 29.5363L11.2483 29.3632C11.0265 29.1321 8.27268 26.2297 5.57595 22.6249C4.22743 20.8223 2.89736 18.8496 1.90548 16.9513C0.910071 15.0463 0.271118 13.2455 0.271118 11.7788C0.271118 5.6522 5.30729 0.661469 11.5 0.661469C17.6927 0.661469 22.7289 5.6522 22.7289 11.7788C22.7289 13.2455 22.0899 15.0463 21.0945 16.9513C20.1027 18.8496 18.7726 20.8223 17.4241 22.6249C14.7273 26.2297 11.9735 29.1321 11.7517 29.3632ZM6.35936 11.7789C6.35936 14.5869 8.66786 16.8663 11.5 16.8663C14.3324 16.8663 16.6409 14.5869 16.6409 11.7789C16.6409 8.96807 14.3327 6.68577 11.5 6.68577C8.66758 6.68577 6.35936 8.96808 6.35936 11.7789Z" fill="white" stroke="black" stroke-width="0.5"/>
</svg>
