<svg width="82" height="83" viewBox="0 0 82 83" fill="none" xmlns="http://www.w3.org/2000/svg">
<path d="M41 0.864014C18.7969 0.864014 0.5 14.8971 0.5 32.388C0.5 36.717 2.88222 41.8579 6.37829 47.0983C9.88741 52.3582 14.5742 57.7984 19.2976 62.7434C28.7457 72.6349 38.3873 80.5938 39.1779 81.2393C39.6664 81.6381 40.3374 81.864 41 81.864C41.6626 81.864 42.3336 81.6381 42.8221 81.2393C43.6127 80.5938 53.2543 72.6349 62.7024 62.7434C67.4258 57.7984 72.1126 52.3582 75.6217 47.0983C79.1178 41.8579 81.5 36.717 81.5 32.388C81.5 14.8971 63.2031 0.864014 41 0.864014ZM41 45.0906C31.7529 45.0906 24.4578 39.2805 24.4578 32.3882C24.4578 25.4869 31.7535 19.6703 41 19.6703C50.2475 19.6703 57.5432 25.4869 57.5432 32.3882C57.5432 39.2805 50.2481 45.0906 41 45.0906Z" fill="white" stroke="black"/>
</svg>
