<svg width="40" height="40" viewBox="0 0 40 40" fill="none" xmlns="http://www.w3.org/2000/svg">
<path d="M15.4893 3.91936C15.4893 5.94713 13.8544 7.58873 11.8403 7.58873C9.82632 7.58873 8.19141 5.94713 8.19141 3.91936C8.19141 1.8916 9.82632 0.25 11.8403 0.25C13.8544 0.25 15.4893 1.8916 15.4893 3.91936Z" fill="white" stroke="black" stroke-width="0.5"/>
<path d="M14.5671 23.8246L14.5817 23.6172L14.6679 22.3962C13.9093 22.1815 13.2818 21.6294 12.972 20.9L12.9718 20.8996L10.2108 14.3723L10.638 14.121L14.8461 19.5053C15.1593 19.9059 15.6508 20.1235 16.1586 20.0832L19.7987 19.792L20.159 19.7632L20.0588 20.1105C20.0398 20.1763 20.0295 20.2444 20.0295 20.3144C20.0295 20.7187 20.3552 21.0443 20.7543 21.0443H20.7596H20.7652H20.7708H20.7766H20.7825H20.7886H20.7947H20.801H20.8075H20.814H20.8207H20.8276H20.8345H20.8416H20.8488H20.8562H20.8636H20.8712H20.8789H20.8868H20.8947H20.9028H20.911H20.9194H20.9278H20.9364H20.9451H20.9539H20.9628H20.9719H20.9811H20.9904H20.9998H21.0093H21.019H21.0287H21.0386H21.0486H21.0587H21.0689H21.0793H21.0897H21.1003H21.111H21.1218H21.1327H21.1437H21.1548H21.166H21.1774H21.1888H21.2004H21.212H21.2238H21.2357H21.2477H21.2598H21.2719H21.2842H21.2966H21.3092H21.3218H21.3345H21.3473H21.3602H21.3732H21.3863H21.3996H21.4129H21.4263H21.4398H21.4534H21.4671H21.4809H21.4948H21.5088H21.5229H21.5371H21.5514H21.5658H21.5802H21.5948H21.6094H21.6242H21.639H21.6539H21.669H21.6841H21.6993H21.7146H21.7299H21.7454H21.7609H21.7766H21.7923H21.8081H21.824H21.8399H21.856H21.8721H21.8884H21.9047H21.9211H21.9375H21.9541H21.9707H21.9874H22.0042H22.0211H22.038H22.055H22.0721H22.0893H22.1066H22.1239H22.1413H22.1588H22.1763H22.194H22.2117H22.2294H22.2473H22.2652H22.2832H22.3012H22.3194H22.3375H22.3558H22.3741H22.3925H22.411H22.4295H22.4481H22.4668H22.4855H22.5043H22.5232H22.5421H22.5611H22.5802H22.5993H22.6185H22.6377H22.657H22.6763H22.6958H22.7152H22.7348H22.7544H22.774H22.7937H22.8135H22.8333H22.8532H22.8731H22.8931H22.9131H22.9332H22.9534H22.9736H22.9938H23.0141H23.0345H23.0549H23.0753H23.0958H23.1164H23.1369H23.1576H23.1783H23.199H23.2198H23.2406H23.2615H23.2824H23.3034H23.3244H23.3454H23.3665H23.3877H23.4089H23.4301H23.4513H23.4726H23.494H23.5153H23.5368H23.5582H23.5797H23.6012H23.6228H23.6444H23.666H23.6877H23.7094H23.7311H23.7529H23.7747H23.7965H23.8184H23.8403H23.8622H23.8842H23.9062H23.9282H23.9502H23.9723H23.9944H24.0165H24.0387H24.0609H24.0831H24.1053H24.1276H24.1499H24.1722H24.1945H24.2168H24.2392H24.2616H24.284H24.3064H24.3289H24.3514H24.3739H24.3964H24.4189H24.4414H24.464H24.4866H24.5092H24.5318H24.5544H24.577H24.5997H24.6223H24.645H24.6677H24.6904H24.7131H24.7358H24.7586H24.7813H24.8041H24.8268H24.8496H24.8724H24.8951H24.9179H24.9407H24.9635H24.9863H25.0091H25.0319H25.0548H25.0776H25.1004H25.1232H25.146H25.1689H25.1917H25.2145H25.2373H25.2601H25.283H25.3058H25.3286H25.3514H25.3742H25.397H25.4198H25.4426H25.4654H25.4882H25.5109H25.5337H25.5564H25.5792H25.6019H25.6247H25.6474H25.6701H25.6928H25.7155H25.7381H25.7608H25.7834H25.8061H25.8287H25.8513H25.8739H25.8964H25.919H25.9415H25.9641H25.9866H26.0091H26.0315H26.054H26.0764H26.0988H26.1212H26.1435H26.1659H26.1882H26.2105H26.2328H26.255H26.2772H26.2994H26.3216H26.3438H26.3659H26.388H26.41H26.4321H26.4541H26.4761H26.498H26.5199H26.5418H26.5637H26.5855H26.6073H26.6291H26.6508H26.6725H26.6941H26.7157H26.7373H26.7589H26.7804H26.8019H26.8233H26.8447H26.8661H26.8874H26.9087H26.9299H26.9511H26.9723H26.9934H27.0145H27.0355H27.0565H27.0775H27.0984H27.1192H27.1401H27.1608H27.1816H27.2022H27.2229H27.2434H27.264H27.2845H27.3049H27.3253H27.3456H27.3659H27.3861H27.4063H27.4264H27.4465H27.4665H27.4865H27.5064H27.5262H27.546H27.5658H27.5855H27.6051H27.6247H27.6442H27.6637H27.6831H27.7024H27.7217H27.7409H27.76H27.7791H27.7982H27.8171H27.836H27.8549H27.8736H27.8924H27.911H27.9296H27.9481H27.9665H27.9849H28.0032H28.0215H28.0396H28.0577H28.0758H28.0937H28.1116H28.1295H28.1472H28.1649H28.1825H28.2H28.2175H28.2348H28.2521H28.2694H28.2865H28.3036H28.3206H28.3375H28.3544H28.3711H28.3878H28.4044H28.4209H28.4374H28.4537H28.47H28.4862H28.5023H28.5183H28.5343H28.5502H28.5659H28.5816H28.5972H28.6127H28.6282H28.6435H28.6588H28.6739H28.689H28.704H28.7189H28.7337H28.7484H28.763H28.7776H28.792H28.8063H28.8206H28.8348H28.8488H28.8628H28.8767H28.8904H28.9041H28.9177H28.9312H28.9445H28.9578H28.971H28.9841H28.9971H29.01H29.0227H29.0354H29.048H29.0605H29.0728H29.0851H29.0973H29.1093H29.1213H29.1331H29.1448H29.1565H29.168H29.1794H29.1907H29.2019H29.213H29.224H29.2348H29.2456H29.2562H29.2667H29.2772H29.2875H29.2976H29.3077H29.3177H29.3275H29.3372H29.3469H29.3563H29.3657H29.375H29.3841H29.3931H29.402H29.4108H29.4195H29.428H29.4364H29.4447H29.4529H29.4609H29.4689H29.4767H29.4843H29.4919H29.4993H29.5066H29.5138H29.5208H29.5277H29.5345H29.5412H29.5477C29.8746 21.0443 30.1621 20.8236 30.2476 20.5042L32.7226 11.2539C32.8271 10.8633 32.5965 10.4634 32.2107 10.3591C31.8252 10.255 31.4272 10.4841 31.3229 10.8741L31.3229 10.8741L29.042 19.399L28.9924 19.5844H28.8005H28.795H28.7894H28.7838H28.7782H28.7725H28.7668H28.7611H28.7553H28.7495H28.7436H28.7377H28.7318H28.7258H28.7198H28.7137H28.7076H28.7015H28.6953H28.6891H28.6829H28.6766H28.6703H28.6639H28.6575H28.6511H28.6446H28.6381H28.6315H28.625H28.6183H28.6117H28.605H28.5983H28.5915H28.5847H28.5779H28.571H28.5641H28.5572H28.5502H28.5432H28.5362H28.5291H28.522H28.5149H28.5077H28.5005H28.4933H28.486H28.4787H28.4714H28.464H28.4566H28.4492H28.4417H28.4342H28.4267H28.4191H28.4115H28.4039H28.3962H28.3886H28.3808H28.3731H28.3653H28.3575H28.3497H28.3418H28.3339H28.326H28.318H28.31H28.302H28.294H28.2859H28.2778H28.2697H28.2615H28.2533H28.2451H28.2369H28.2286H28.2203H28.212H28.2036H28.1952H28.1868H28.1784H28.1699H28.1614H28.1529H28.1444H28.1358H28.1272H28.1186H28.11H28.1013H28.0926H28.0839H28.0751H28.0664H28.0576H28.0488H28.0399H28.0311H28.0222H28.0133H28.0043H27.9954H27.9864H27.9774H27.9683H27.9593H27.9502H27.9411H27.932H27.9228H27.9137H27.9045H27.8953H27.8861H27.8768H27.8675H27.8582H27.8489H27.8396H27.8302H27.8209H27.8115H27.8021H27.7926H27.7832H27.7737H27.7642H27.7547H27.7452H27.7356H27.726H27.7164H27.7068H27.6972H27.6876H27.6779H27.6682H27.6585H27.6488H27.6391H27.6293H27.6196H27.6098H27.6H27.5902H27.5803H27.5705H27.5606H27.5507H27.5408H27.5309H27.521H27.5111H27.5011H27.4911H27.4811H27.4711H27.4611H27.4511H27.441H27.431H27.4209H27.4108H27.4007H27.3906H27.3805H27.3703H27.3602H27.35H27.3398H27.3296H27.3194H27.3092H27.299H27.2888H27.2785H27.2682H27.258H27.2477H27.2374H27.2271H27.2168H27.2064H27.1961H27.1858H27.1754H27.165H27.1547H27.1443H27.1339H27.1235H27.1131H27.1026H27.0922H27.0818H27.0713H27.0609H27.0504H27.0399H27.0294H27.0189H27.0085H26.9979H26.9874H26.9769H26.9664H26.9559H26.9453H26.9348H26.9242H26.9137H26.9031H26.8926H26.882H26.8714H26.8608H26.8502H26.8396H26.829H26.8184H26.8078H26.7972H26.7866H26.776H26.7654H26.7547H26.7441H26.7335H26.7228H26.7122H26.7016H26.6909H26.6803H26.6696H26.659H26.6483H26.6377H26.627H26.6164H26.6057H26.595H26.5844H26.5737H26.563H26.5524H26.5417H26.5311H26.5204H26.5097H26.4991H26.4884H26.4777H26.4671H26.4564H26.4457H26.4351H26.4244H26.4138H26.4031H26.3925H26.3818H26.3712H26.3605H26.3499H26.3392H26.3286H26.318H26.3073H26.2967H26.2861H26.2755H26.2648H26.2542H26.2436H26.233H26.2224H26.2118H26.2012H26.1906H26.18H26.1695H26.1589H26.1483H26.1378H26.1272H26.1167H26.1061H26.0956H26.0851H26.0745H26.064H26.0535H26.043H26.0325H26.022H26.0116H26.0011H25.9906H25.9802H25.9697H25.9593H25.9488H25.9384H25.928H25.9176H25.9072H25.8968H25.8865H25.8761H25.8657H25.8554H25.845H25.8347H25.8244H25.8141H25.8038H25.7935H25.7833H25.773H25.7627H25.7525H25.7423H25.7321H25.7219H25.7117H25.7015H25.6913H25.6812H25.6711H25.6609H25.6508H25.6407H25.6306H25.6206H25.6105H25.6005H25.5904H25.5804H25.5704H25.5604H25.5505H25.5405H25.5306H25.5206H25.5107H25.5008H25.4909H25.4811H25.4712H25.4614H25.4516H25.4418H25.432H25.4223H25.4125H25.4028H25.3931H25.3834H25.3737H25.364H25.3544H25.3448H25.3352H25.3256H25.316H25.3065H25.2969H25.2874H25.2779H25.2685H25.259H25.2496H25.2402H25.2308H25.2214H25.212H25.2027H25.1934H25.1841H25.1749H25.1656H25.1564H25.1472H25.138H25.1288H25.1197H25.1106H25.1015H25.0924H25.0834H25.0743H25.0653H25.0564H25.0474H25.0385H25.0296H25.0207H25.0118H25.003H24.9942H24.9854H24.9766H24.9679H24.9591H24.9505H24.9418H24.9332H24.9245H24.916H24.9074H24.8989H24.8903H24.8819H24.8734H24.865H24.8566H24.8482H24.8398H24.8315H24.8232H24.815H24.8067H24.7985H24.7903H24.7822H24.774H24.7659H24.7579H24.7498H24.7418H24.7338H24.7259H24.718H24.7101H24.7022H24.6944H24.6866H24.6788H24.6711H24.6634H24.6557H24.648H24.6404H24.6328H24.6253H24.6177H24.6102H24.6028H24.5954H24.588H24.5806H24.5733H24.566H24.5587H24.5515H24.5443H24.5371H24.53H24.5229H24.5158H24.5088H24.5018H24.4948H24.4879H24.481H24.4741H24.4673H24.4605H24.4538H24.4471H24.4404H24.4337H24.4271H24.4205H24.414H24.4075H24.401H24.3946H24.3882H24.3819H24.3756H24.3693H24.363H24.3568H24.3507H24.3445H24.3384H24.3324H24.3264H24.3204H24.3145H24.3086H24.3027H24.2969H24.2911H24.2854H24.2797H24.274H24.2684H24.2628H24.2573H24.2518H24.2463H24.2409H24.2355H23.5736L24.0703 19.1468C24.4194 18.8392 24.6248 18.3779 24.5853 17.8784C24.5187 17.037 23.788 16.4113 22.9536 16.4786L22.9534 16.4786L16.8623 16.9657L16.7282 16.9764L16.6454 16.8705L13.0223 12.2348L13.3693 11.8808L15.3078 13.3347L15.3495 12.7435C15.4429 11.4214 14.4525 10.2756 13.1404 10.182L13.1581 9.93268L13.1403 10.182L8.66985 9.86307C7.28599 9.76435 6.10683 10.8734 6.1174 12.273L6.21653 25.3799C6.22016 25.8634 6.39703 26.3249 6.70755 26.684L7.06511 27.0975H6.51844H4.71454H4.49406L4.4665 26.8788L2.56721 11.8029L2.56721 11.8029C2.48631 11.1604 1.90357 10.7075 1.26746 10.7888L1.26736 10.7888C0.631088 10.8698 0.17841 11.4547 0.259393 12.0973L0.259394 12.0973L2.31512 28.4153C2.31512 28.4153 2.31512 28.4153 2.31512 28.4153C2.38898 29.0012 2.88427 29.4387 3.46907 29.4387H8.57243H8.82243V29.6887V35.5062V35.6244L8.73102 35.6994L5.37408 38.4541L5.21549 38.2609L5.37408 38.4541C5.06356 38.7089 5.01695 39.1694 5.27085 39.482L5.27089 39.482C5.5241 39.7939 5.98009 39.8399 6.28975 39.5858L6.28976 39.5858L8.41375 37.8428L8.82234 37.5075V38.036V39.0199C8.82234 39.4243 9.14808 39.7498 9.54712 39.7498C9.94616 39.7498 10.2719 39.4243 10.2719 39.0199V38.036V37.5075L10.6805 37.8428L12.8044 39.5857C12.9393 39.6964 13.1009 39.7499 13.2617 39.7499L14.5671 23.8246ZM14.5671 23.8246L14.7683 23.8768M14.5671 23.8246L14.7683 23.8768M14.7683 23.8768L19.2974 25.0522C20.0376 25.2444 20.5878 25.8707 20.685 26.6349L22.0824 37.6302C22.2135 38.6619 21.4879 39.6031 20.4646 39.7345L20.4645 39.7345C19.4425 39.8659 18.5043 39.1395 18.3732 38.1073L18.1251 38.1388L18.3732 38.1073L17.1576 28.5441L17.1362 28.3762L16.9724 28.3337L16.6328 28.2455L16.3652 28.1761L16.323 28.4493C16.2362 29.0109 15.7548 29.4387 15.1754 29.4387H10.5219H10.2719V29.6887V35.5062V35.6244L10.3633 35.6994L13.7202 38.4541C14.0307 38.7089 14.0773 39.1694 13.8235 39.482L13.8234 39.482M14.7683 23.8768L13.8234 39.482M13.8234 39.482C13.6801 39.6585 13.4721 39.7498 13.2618 39.7499L13.8234 39.482ZM0.0113756 12.1285L0.0113703 12.1285L0.0113756 12.1285Z" fill="white" stroke="black" stroke-width="0.5"/>
<path d="M37.424 25.4078V25.1578H37.174H22.5353C21.8941 25.1578 21.3721 24.6349 21.3721 23.9871C21.3721 23.3394 21.8941 22.8165 22.5353 22.8165H38.5872C39.2284 22.8165 39.7504 23.3394 39.7504 23.9871V38.5794C39.7504 39.2271 39.2283 39.75 38.5872 39.75H30.5231C29.8819 39.75 29.3599 39.2271 29.3599 38.5794C29.3599 37.9316 29.882 37.4088 30.5231 37.4088H37.174H37.424V37.1588V25.4078Z" fill="white" stroke="black" stroke-width="0.5"/>
</svg>
