<svg width="80" height="80" viewBox="0 0 80 80" fill="none" xmlns="http://www.w3.org/2000/svg">
<path d="M23.6801 15.6775C27.9867 15.6775 31.4779 12.1679 31.4779 7.83873C31.4779 3.50952 27.9867 0 23.6801 0C19.3735 0 15.8823 3.50952 15.8823 7.83873C15.8823 12.1679 19.3735 15.6775 23.6801 15.6775Z" fill="white"/>
<path d="M41.8655 53.2068C41.6457 51.4769 40.3996 50.0565 38.72 49.6205L29.6619 47.2696L29.8641 44.4042C28.3189 44.1081 27.0172 43.0483 26.4038 41.6044L20.8818 28.5499L29.2981 39.3185C30.0271 40.2511 31.1726 40.7588 32.3564 40.6648L39.6368 40.0824C39.5868 40.256 39.5586 40.4389 39.5586 40.6288C39.5586 41.7111 40.4314 42.5885 41.5081 42.5885C43.3222 42.5885 56.8893 42.5885 59.0948 42.5885C59.9765 42.5885 60.7485 41.9936 60.9776 41.1377L65.9276 22.637C66.2072 21.5917 65.591 20.5165 64.5512 20.2354C63.5114 19.9547 62.4419 20.5735 62.1622 21.619L57.6004 38.6688C55.7286 38.6688 50.2982 38.6688 48.4706 38.6688C49.2814 37.9545 49.7605 36.8807 49.6685 35.7174C49.5137 33.7622 47.8141 32.3017 45.8665 32.4587L33.6844 33.433L26.4383 24.1616L31.0493 27.62L31.1975 25.5223C31.4034 22.6052 29.2181 20.0723 26.316 19.8653L17.3751 19.2274C14.314 19.009 11.7114 21.4615 11.7347 24.5497L11.933 50.7636C11.9411 51.8505 12.3387 52.8877 13.0368 53.6951H9.42899L5.63044 23.5433C5.43445 21.9866 4.02073 20.8837 2.47154 21.0816C0.923042 21.2788 -0.173462 22.7004 0.0227091 24.2571L4.13412 56.8931C4.31307 58.3129 5.51445 59.3774 6.93808 59.3774H17.1447V71.0124L10.4309 76.5218C9.59682 77.2062 9.47247 78.4408 10.1535 79.2793C10.8344 80.1179 12.0627 80.2425 12.8966 79.5581L17.1445 76.0721V78.0399C17.1445 79.1223 18.0174 79.9997 19.0941 79.9997C20.1707 79.9997 21.0436 79.1223 21.0436 78.0399V76.0721L25.2915 79.5581C25.6536 79.8551 26.0898 79.9999 26.5233 79.9999C27.0885 79.9997 27.6494 79.7539 28.0348 79.2793C28.7156 78.4408 28.5915 77.2062 27.7574 76.5218L21.0436 71.0124V59.3774H30.3506C31.7625 59.3774 32.9295 58.3352 33.1397 56.9751L33.8189 57.1513L36.2499 76.2777C36.5468 78.6142 38.672 80.2633 40.9925 79.9649C43.3151 79.6667 44.9571 77.5321 44.6604 75.1975L41.8655 53.2068Z" fill="white"/>
<path d="M77.1736 45.1331H45.0701C43.5093 45.1331 42.2437 46.4051 42.2437 47.9743C42.2437 49.5435 43.5091 50.8155 45.0701 50.8155H74.3472V74.3176H61.0457C59.4849 74.3176 58.2193 75.5896 58.2193 77.1588C58.2193 78.728 59.4847 80 61.0457 80H77.1736C78.7345 80 80 78.728 80 77.1588V47.9741C80 46.4051 78.7346 45.1331 77.1736 45.1331Z" fill="white"/>
</svg>
