<svg width="82" height="82" viewBox="0 0 82 82" fill="none" xmlns="http://www.w3.org/2000/svg">
<path d="M24.6801 17.1775C29.2653 17.1775 32.9779 13.4416 32.9779 8.83873C32.9779 4.23585 29.2653 0.5 24.6801 0.5C20.0949 0.5 16.3823 4.23585 16.3823 8.83873C16.3823 13.4416 20.0949 17.1775 24.6801 17.1775Z" fill="white" stroke="black"/>
<path d="M23.8138 32.8338L27.864 42.4089C28.4128 43.7008 29.5781 44.6487 30.9583 44.9132L31.3941 44.9967L31.3629 45.4395L31.1899 47.8901L39.8456 50.1365L39.7289 50.586L39.8456 50.1365C41.7244 50.6242 43.1161 52.2123 43.3615 54.1438L46.1564 76.1344L45.6604 76.1975L46.1564 76.1344C46.4876 78.7403 44.6548 81.1271 42.0562 81.4608M23.8138 32.8338L41.9925 80.9649M23.8138 32.8338L29.9041 40.6264L29.9041 40.6264C30.7359 41.6905 32.0439 42.2706 33.396 42.1632L33.3963 42.1632L40.0586 41.6303C40.0594 42.9856 41.1533 44.0885 42.5081 44.0885H42.5189H42.5299H42.5412H42.5528H42.5646H42.5767H42.5891H42.6017H42.6146H42.6277H42.6411H42.6547H42.6687H42.6828H42.6972H42.7119H42.7268H42.742H42.7575H42.7731H42.7891H42.8052H42.8217H42.8383H42.8552H42.8724H42.8898H42.9074H42.9253H42.9434H42.9618H42.9803H42.9992H43.0182H43.0375H43.0571H43.0768H43.0968H43.117H43.1375H43.1582H43.1791H43.2002H43.2215H43.2431H43.2649H43.2869H43.3092H43.3316H43.3543H43.3772H43.4003H43.4237H43.4472H43.471H43.4949H43.5191H43.5435H43.5681H43.5929H43.6179H43.6431H43.6685H43.6942H43.72H43.746H43.7723H43.7987H43.8253H43.8522H43.8792H43.9064H43.9338H43.9614H43.9892H44.0172H44.0454H44.0738H44.1024H44.1311H44.16H44.1892H44.2185H44.248H44.2776H44.3075H44.3375H44.3677H44.3981H44.4287H44.4594H44.4903H44.5214H44.5527H44.5841H44.6157H44.6475H44.6795H44.7116H44.7439H44.7763H44.8089H44.8417H44.8746H44.9077H44.941H44.9744H45.008H45.0417H45.0756H45.1096H45.1438H45.1782H45.2127H45.2474H45.2822H45.3171H45.3522H45.3875H45.4229H45.4584H45.4941H45.5299H45.5659H45.602H45.6383H45.6747H45.7112H45.7479H45.7847H45.8216H45.8587H45.8959H45.9332H45.9707H46.0083H46.046H46.0838H46.1218H46.1599H46.1981H46.2365H46.275H46.3135H46.3523H46.3911H46.43H46.4691H46.5083H46.5476H46.587H46.6265H46.6662H46.7059H46.7458H46.7857H46.8258H46.866H46.9063H46.9467H46.9872H47.0278H47.0685H47.1093H47.1502H47.1912H47.2323H47.2734H47.3147H47.3561H47.3976H47.4392H47.4808H47.5226H47.5644H47.6063H47.6483H47.6905H47.7326H47.7749H47.8173H47.8597H47.9022H47.9448H47.9875H48.0302H48.0731H48.116H48.1589H48.202H48.2451H48.2883H48.3316H48.3749H48.4183H48.4618H48.5053H48.5489H48.5926H48.6363H48.6801H48.724H48.7679H48.8119H48.8559H48.9H48.9442H48.9884H49.0326H49.0769H49.1213H49.1657H49.2102H49.2547H49.2992H49.3438H49.3885H49.4332H49.4779H49.5227H49.5675H49.6124H49.6573H49.7023H49.7472H49.7923H49.8373H49.8824H49.9275H49.9727H50.0179H50.0631H50.1083H50.1536H50.1989H50.2442H50.2896H50.3349H50.3803H50.4258H50.4712H50.5167H50.5622H50.6077H50.6532H50.6987H50.7442H50.7898H50.8354H50.881H50.9266H50.9722H51.0178H51.0634H51.109H51.1547H51.2003H51.2459H51.2916H51.3372H51.3829H51.4285H51.4742H51.5198H51.5654H51.6111H51.6567H51.7023H51.7479H51.7935H51.8391H51.8847H51.9303H51.9758H52.0214H52.0669H52.1124H52.1579H52.2034H52.2488H52.2943H52.3397H52.3851H52.4304H52.4758H52.5211H52.5664H52.6116H52.6569H52.7021H52.7473H52.7924H52.8375H52.8826H52.9276H52.9726H53.0176H53.0625H53.1074H53.1523H53.1971H53.2419H53.2866H53.3313H53.3759H53.4205H53.465H53.5095H53.554H53.5984H53.6427H53.687H53.7313H53.7754H53.8196H53.8636H53.9077H53.9516H53.9955H54.0394H54.0831H54.1268H54.1705H54.2141H54.2576H54.301H54.3444H54.3877H54.431H54.4742H54.5173H54.5603H54.6032H54.6461H54.6889H54.7316H54.7743H54.8169H54.8594H54.9018H54.9441H54.9863H55.0285H55.0706H55.1125H55.1544H55.1962H55.238H55.2796H55.3211H55.3626H55.4039H55.4452H55.4863H55.5274H55.5684H55.6092H55.65H55.6907H55.7312H55.7717H55.8121H55.8523H55.8925H55.9325H55.9724H56.0123H56.052H56.0916H56.1311H56.1704H56.2097H56.2488H56.2879H56.3268H56.3656H56.4042H56.4428H56.4812H56.5195H56.5577H56.5958H56.6337H56.6715H56.7092H56.7468H56.7842H56.8215H56.8586H56.8956H56.9325H56.9693H57.0059H57.0424H57.0787H57.115H57.151H57.1869H57.2227H57.2584H57.2939H57.3292H57.3644H57.3995H57.4344H57.4691H57.5037H57.5382H57.5725H57.6066H57.6406H57.6745H57.7082H57.7417H57.7751H57.8083H57.8413H57.8742H57.9069H57.9395H57.9719H58.0041H58.0361H58.068H58.0998H58.1313H58.1627H58.1939H58.2249H58.2558H58.2865H58.317H58.3473H58.3775H58.4074H58.4372H58.4668H58.4963H58.5255H58.5546H58.5835H58.6121H58.6406H58.669H58.6971H58.725H58.7527H58.7803H58.8076H58.8348H58.8618H58.8885H58.9151H58.9415H58.9676H58.9936H59.0194H59.0449H59.0703H59.0954H59.1204H59.1451H59.1696H59.194H59.2181H59.242H59.2657H59.2891H59.3124H59.3354H59.3583H59.3809H59.4032H59.4254H59.4474H59.4691H59.4906H59.5119H59.5329H59.5538H59.5744H59.5947H59.6149H59.6348H59.6545H59.6739H59.6931H59.7121H59.7309H59.7494H59.7677H59.7857H59.8035H59.8211H59.8384H59.8554H59.8723H59.8889H59.9052H59.9213H59.9371H59.9527H59.9681H59.9832H59.998H60.0126H60.027H60.041H60.0549H60.0684H60.0817H60.0948C61.2045 44.0885 62.1734 43.34 62.4606 42.2669L67.4106 23.7662C67.7609 22.4567 66.9897 21.1064 65.6817 20.7528L65.6816 20.7527C64.3729 20.3994 63.0299 21.1789 62.6792 22.4897C62.6792 22.4898 62.6792 22.4898 62.6792 22.4898L58.2166 39.1688H58.2095H58.196H58.1825H58.1689H58.1553H58.1415H58.1277H58.1139H58.0999H58.0859H58.0719H58.0577H58.0435H58.0292H58.0149H58.0005H57.986H57.9715H57.9569H57.9422H57.9275H57.9127H57.8978H57.8829H57.8679H57.8528H57.8377H57.8225H57.8073H57.7919H57.7766H57.7611H57.7456H57.7301H57.7145H57.6988H57.6831H57.6673H57.6514H57.6355H57.6195H57.6035H57.5874H57.5713H57.555H57.5388H57.5225H57.5061H57.4897H57.4732H57.4566H57.44H57.4234H57.4067H57.3899H57.3731H57.3562H57.3393H57.3223H57.3053H57.2882H57.2711H57.2539H57.2367H57.2194H57.2021H57.1847H57.1672H57.1497H57.1322H57.1146H57.097H57.0793H57.0616H57.0438H57.026H57.0081H56.9902H56.9722H56.9542H56.9361H56.918H56.8999H56.8817H56.8634H56.8452H56.8268H56.8085H56.79H56.7716H56.7531H56.7345H56.716H56.6973H56.6787H56.66H56.6412H56.6224H56.6036H56.5847H56.5658H56.5469H56.5279H56.5088H56.4898H56.4707H56.4515H56.4324H56.4131H56.3939H56.3746H56.3553H56.3359H56.3165H56.2971H56.2776H56.2581H56.2386H56.219H56.1994H56.1798H56.1601H56.1404H56.1207H56.1009H56.0811H56.0613H56.0415H56.0216H56.0017H55.9817H55.9617H55.9417H55.9217H55.9016H55.8815H55.8614H55.8413H55.8211H55.8009H55.7807H55.7604H55.7401H55.7198H55.6995H55.6791H55.6588H55.6384H55.6179H55.5975H55.577H55.5565H55.536H55.5154H55.4949H55.4743H55.4537H55.433H55.4124H55.3917H55.371H55.3503H55.3295H55.3088H55.288H55.2672H55.2464H55.2256H55.2047H55.1839H55.163H55.1421H55.1212H55.1003H55.0793H55.0584H55.0374H55.0164H54.9954H54.9744H54.9533H54.9323H54.9112H54.8901H54.8691H54.848H54.8269H54.8057H54.7846H54.7635H54.7423H54.7211H54.7H54.6788H54.6576H54.6364H54.6152H54.5939H54.5727H54.5515H54.5302H54.509H54.4877H54.4664H54.4452H54.4239H54.4026H54.3813H54.36H54.3387H54.3174H54.2961H54.2748H54.2535H54.2322H54.2109H54.1896H54.1682H54.1469H54.1256H54.1043H54.0829H54.0616H54.0403H54.0189H53.9976H53.9763H53.955H53.9336H53.9123H53.891H53.8697H53.8484H53.827H53.8057H53.7844H53.7631H53.7418H53.7205H53.6992H53.678H53.6567H53.6354H53.6142H53.5929H53.5717H53.5504H53.5292H53.5079H53.4867H53.4655H53.4443H53.4231H53.4019H53.3808H53.3596H53.3384H53.3173H53.2962H53.275H53.2539H53.2328H53.2118H53.1907H53.1696H53.1486H53.1275H53.1065H53.0855H53.0645H53.0436H53.0226H53.0017H52.9807H52.9598H52.9389H52.9181H52.8972H52.8764H52.8555H52.8347H52.8139H52.7932H52.7724H52.7517H52.731H52.7103H52.6896H52.6689H52.6483H52.6277H52.6071H52.5866H52.566H52.5455H52.525H52.5045H52.4841H52.4636H52.4432H52.4229H52.4025H52.3822H52.3619H52.3416H52.3214H52.3011H52.2809H52.2608H52.2406H52.2205H52.2004H52.1804H52.1603H52.1403H52.1204H52.1004H52.0805H52.0606H52.0408H52.021H52.0012H51.9814H51.9617H51.942H51.9223H51.9027H51.8831H51.8635H51.844H51.8245H51.8051H51.7856H51.7663H51.7469H51.7276H51.7083H51.6891H51.6698H51.6507H51.6315H51.6124H51.5934H51.5744H51.5554H51.5364H51.5175H51.4987H51.4798H51.4611H51.4423H51.4236H51.405H51.3863H51.3678H51.3492H51.3307H51.3123H51.2939H51.2755H51.2572H51.2389H51.2207H51.2025H51.1843H51.1662H51.1482H51.1302H51.1122H51.0943H51.0764H51.0586H51.0409H51.0231H51.0055H50.9878H50.9703H50.9527H50.9352H50.9178H50.9004H50.8831H50.8658H50.8486H50.8314H50.8143H50.7972H50.7802H50.7632H50.7463H50.7295H50.7127H50.6959H50.6792H50.6626H50.646H50.6294H50.613H50.5965H50.5802H50.5639H50.5491C51.0032 38.4538 51.2391 37.5901 51.167 36.678L51.167 36.678C50.9906 34.4504 49.0527 32.7811 46.8266 32.9603C46.8265 32.9603 46.8264 32.9603 46.8263 32.9604L34.9127 33.9132L30.1522 27.8221M23.8138 32.8338L30.1522 27.8221M42.0562 81.4608L41.9925 80.9649M42.0562 81.4608C42.0562 81.4608 42.0562 81.4608 42.0563 81.4608L41.9925 80.9649M42.0562 81.4608C39.4594 81.7947 37.0854 79.9493 36.7539 77.3408L34.4042 58.8544M41.9925 80.9649C39.672 81.2633 37.5468 79.6142 37.2499 77.2777L34.8189 58.1513M34.4042 58.8544C34.4416 58.7669 34.4754 58.6776 34.5054 58.5865L34.6933 58.6353L34.8189 58.1513M34.4042 58.8544C33.8962 60.0424 32.7234 60.8773 31.3506 60.8773H22.5436M34.4042 58.8544L34.3655 58.5503L34.0202 58.4607L22.5436 60.8773M34.8189 58.1513L34.6119 58.1776C34.6168 58.1523 34.6215 58.1268 34.6258 58.1012L34.8189 58.1513ZM30.1522 27.8221L31.7493 29.02L32.4834 29.5706L32.5481 28.6552L32.6963 26.5575L32.6963 26.5575C32.9214 23.3675 30.5314 20.5934 27.3516 20.3666L18.4107 19.7287L18.3751 20.2273L18.4107 19.7287C15.0561 19.4894 12.2092 22.1762 12.2347 25.5535L12.433 51.7674C12.4394 52.629 12.6663 53.4625 13.0777 54.1951H10.87L7.12653 24.4808C7.12653 24.4808 7.12652 24.4808 7.12652 24.4808C6.89632 22.6526 5.23447 21.3524 3.40837 21.5856L30.1522 27.8221ZM22.5436 60.8773V71.7759L29.0746 77.1352C30.1217 77.9945 30.2769 79.5428 29.4229 80.5944C28.9389 81.1906 28.2332 81.4997 27.5235 81.4999H27.5233C26.9779 81.4999 26.4288 81.3174 25.9744 80.9447L25.9743 80.9446L22.5436 78.1292V79.0399C22.5436 80.3959 21.4493 81.4997 20.0941 81.4997C18.7388 81.4997 17.6445 80.3959 17.6445 79.0399V78.1292L14.2138 80.9446C14.2138 80.9446 14.2138 80.9446 14.2138 80.9446C13.1653 81.8051 11.6206 81.6479 10.7653 80.5944C9.91115 79.5427 10.0666 77.9945 11.1137 77.1352L17.6447 71.7759V60.8773H7.93808C6.26042 60.8773 4.84825 59.6233 4.63805 57.9556L4.63804 57.9556L0.526633 25.3196C0.526632 25.3196 0.526631 25.3196 0.52663 25.3196C0.296274 23.4916 1.58383 21.818 3.40818 21.5856L22.5436 60.8773Z" fill="white" stroke="black"/>
<path d="M78.1736 45.6331H46.0701C44.2307 45.6331 42.7437 47.1314 42.7437 48.9743C42.7437 50.8172 44.2305 52.3155 46.0701 52.3155H74.8472V74.8176H62.0457C60.2063 74.8176 58.7193 76.3159 58.7193 78.1588C58.7193 80.0017 60.2061 81.5 62.0457 81.5H78.1736C80.013 81.5 81.5 80.0017 81.5 78.1588V48.9741C81.5 47.1314 80.0132 45.6331 78.1736 45.6331Z" fill="white" stroke="black"/>
</svg>
