<svg width="82" height="82" viewBox="0 0 82 82" fill="none" xmlns="http://www.w3.org/2000/svg">
<path d="M37.1702 24.9701C36.1746 24.9701 35.3936 24.142 35.3936 23.1534C35.3936 21.0334 35.9622 19.9048 36.4434 18.954L37.1702 24.9701ZM37.1702 24.9701C38.1658 24.9701 38.9468 24.142 38.9468 23.1534M37.1702 24.9701L38.9468 23.1534M38.9468 23.1534C38.9468 22.5142 39.0198 22.07 39.1306 21.7027M38.9468 23.1534L39.1306 21.7027M39.1306 21.7027C39.2433 21.3294 39.3997 21.0178 39.5992 20.6234M39.1306 21.7027L39.5992 20.6234M39.5992 20.6234C40.0801 19.6728 40.6489 18.5441 40.6489 16.4241M39.5992 20.6234L40.6489 16.4241M40.6489 16.4241C40.6489 14.304 40.0803 13.1751 39.5992 12.2242M40.6489 16.4241L39.5992 12.2242M39.5992 12.2242C39.3997 11.8299 39.2433 11.5182 39.1306 11.1448M39.5992 12.2242L39.1306 11.1448M39.1306 11.1448C39.0198 10.7775 38.9468 10.3332 38.9468 9.69395M39.1306 11.1448L38.9468 9.69395M38.9468 9.69395C38.9468 9.05468 39.0198 8.61035 39.1306 8.24306M38.9468 9.69395L39.1306 8.24306M39.1306 8.24306C39.2433 7.86969 39.3997 7.55797 39.5992 7.16367M39.1306 8.24306L39.5992 7.16367M39.5992 7.16367C40.0803 6.21262 40.6489 5.08377 40.6489 2.9638M39.5992 7.16367L40.6489 2.9638M40.6489 2.9638C40.6489 1.97518 39.868 1.14709 38.8723 1.14709M40.6489 2.9638L38.8723 1.14709M38.8723 1.14709C37.8767 1.14709 37.0957 1.97518 37.0957 2.9638M38.8723 1.14709L37.0957 2.9638M37.0957 2.9638C37.0957 3.60307 37.0228 4.0474 36.9119 4.41469M37.0957 2.9638L36.9119 4.41469M36.9119 4.41469C36.7992 4.78806 36.6428 5.09979 36.4434 5.49408M36.9119 4.41469L36.4434 5.49408M36.4434 5.49408C35.9622 6.44514 35.3936 7.57397 35.3936 9.69395M36.4434 5.49408L35.3936 9.69395M35.3936 9.69395C35.3936 11.8139 35.9622 12.9428 36.4434 13.8938M35.3936 9.69395L36.4434 13.8938M36.4434 13.8938C36.6428 14.2881 36.7992 14.5999 36.9119 14.9733C37.0228 15.3406 37.0957 15.785 37.0957 16.4243C37.0957 17.0633 37.0228 17.5075 36.9119 17.8747C36.7992 18.248 36.6428 18.5597 36.4434 18.9539L36.4434 13.8938Z" fill="white" stroke="black"/>
<path d="M47.383 24.9701C46.3873 24.9701 45.6064 24.142 45.6064 23.1534C45.6064 21.0334 46.175 19.9047 46.6562 18.9539C46.8556 18.5597 47.012 18.248 47.1247 17.8747C47.2356 17.5075 47.3085 17.0633 47.3085 16.4243C47.3085 15.785 47.2356 15.3406 47.1247 14.9733C47.012 14.5999 46.8556 14.2881 46.6561 13.8938C46.175 12.9428 45.6064 11.8139 45.6064 9.69395C45.6064 7.57397 46.175 6.44511 46.6561 5.49406C46.8556 5.09977 47.012 4.78806 47.1247 4.41469C47.2356 4.0474 47.3085 3.60307 47.3085 2.9638C47.3085 1.97518 48.0895 1.14709 49.0851 1.14709C50.0807 1.14709 50.8617 1.97518 50.8617 2.9638C50.8617 5.08377 50.2931 6.21262 49.812 7.16367C49.6125 7.55797 49.4561 7.86969 49.3434 8.24306C49.2325 8.61035 49.1596 9.05468 49.1596 9.69395C49.1596 10.3332 49.2325 10.7775 49.3434 11.1448C49.4561 11.5182 49.6125 11.8299 49.8119 12.2242L47.383 24.9701ZM47.383 24.9701C48.3786 24.9701 49.1596 24.142 49.1596 23.1534M47.383 24.9701L49.1596 23.1534M49.1596 23.1534C49.1596 22.5142 49.2325 22.07 49.3434 21.7027M49.1596 23.1534L49.3434 21.7027M49.3434 21.7027C49.4561 21.3294 49.6125 21.0177 49.812 20.6234M49.3434 21.7027L49.812 20.6234M49.812 20.6234C50.2929 19.6728 50.8617 18.5441 50.8617 16.4241M49.812 20.6234L50.8617 16.4241M50.8617 16.4241C50.8617 14.304 50.2931 13.1751 49.812 12.2242L50.8617 16.4241Z" fill="white" stroke="black"/>
<path d="M6.53191 72.0918V71.5918C5.53627 71.5918 4.75531 72.4199 4.75531 73.4085C4.75531 74.3971 5.53627 75.2252 6.53191 75.2252H6.89082L7.52545 77.5162C7.52545 77.5162 7.52545 77.5162 7.52546 77.5162C8.12461 79.6793 10.2838 81.3699 12.4894 81.3699H73.7659C75.9715 81.3699 78.1307 79.6793 78.7298 77.5163L79.3645 75.2252H79.7234C80.719 75.2252 81.5 74.3971 81.5 73.4085C81.5 72.4199 80.719 71.5918 79.7234 71.5918H77.9925H77.9917H77.9892H77.9851H77.9794H77.9721H77.9632H77.9527H77.9406H77.9269H77.9117H77.8949H77.8765H77.8565H77.835H77.812H77.7874H77.7612H77.7336H77.7044H77.6737H77.6415H77.6078H77.5726H77.536H77.4978H77.4582H77.4171H77.3745H77.3305H77.285H77.2381H77.1897H77.1399H77.0887H77.0361H76.982H76.9266H76.8697H76.8115H76.7519H76.6908H76.6285H76.5647H76.4996H76.4331H76.3653H76.2962H76.2257H76.1539H76.0807H76.0063H75.9305H75.8534H75.7751H75.6954H75.6145H75.5322H75.4488H75.364H75.278H75.1907H75.1022H75.0125H74.9215H74.8293H74.7358H74.6412H74.5453H74.4483H74.35H74.2506H74.15H74.0482H73.9452H73.8411H73.7358H73.6294H73.5218H73.4131H73.3033H73.1923H73.0802H72.967H72.8527H72.7373H72.6208H72.5032H72.3846H72.2648H72.144H72.0222H71.8992H71.7753H71.6503H71.5242H71.3972H71.2691H71.14H71.0099H70.8787H70.7466H70.6135H70.4794H70.3444H70.2083H70.0713H69.9334H69.7944H69.6546H69.5138H69.3721H69.2294H69.0858H68.9413H68.7959H68.6496H68.5025H68.3544H68.2054H68.0556H67.9049H67.7533H67.6009H67.4476H67.2935H67.1385H66.9827H66.8261H66.6687H66.5105H66.3514H66.1916H66.0309H65.8695H65.7073H65.5443H65.3806H65.2161H65.0509H64.8849H64.7181H64.5506H64.3824H64.2135H64.0439H63.8735H63.7025H63.5307H63.3583H63.1851H63.0113H62.8369H62.6617H62.4859H62.3095H62.1324H61.9547H61.7763H61.5973H61.4177H61.2375H61.0567H60.8752H60.6932H60.5106H60.3274H60.1436H59.9593H59.7744H59.5889H59.4029H59.2164H59.0293H58.8417H58.6535H58.4649H58.2757H58.0861H57.8959H57.7052H57.5141H57.3225H57.1304H56.9378H56.7448H56.5513H56.3574H56.163H55.9682H55.773H55.5773H55.3812H55.1848H54.9879H54.7906H54.593H54.3949H54.1965H53.9977H53.7985H53.599H53.3991H53.1989H52.9984H52.7975H52.5963H52.3948H52.1929H51.9908H51.7883H51.5856H51.3826H51.1792H50.9757H50.7718H50.5677H50.3633H50.1587H49.9538H49.7487H49.5434H49.3379H49.1321H48.9261H48.7199H48.5135H48.307H48.1002H47.8933H47.6861H47.4789H47.2714H47.0638H46.8561H46.6482H46.4402H46.2321H46.0238H45.8154H45.6069H45.3984H45.1897H44.9809H44.772H44.5631H44.3541H44.145H43.9359H43.7267H43.5175H43.3083H43.099H42.8897H42.6803H42.471H42.2616H42.0523H41.8429H41.6336H41.4243H41.215H41.0057H40.7965H40.5873H40.3782H40.1691H39.9601H39.7512H39.5424H39.3336H39.1249H38.9163H38.7078H38.4994H38.2912H38.083H37.875H37.6672H37.4594H37.2518H37.0444H36.8371H36.63H36.4231H36.2163H36.0097H35.8034H35.5972H35.3912H35.1854H34.9799H34.7745H34.5694H34.3646H34.16H33.9556H33.7515H33.5476H33.344H33.1407H32.9377H32.735H32.5325H32.3304H32.1285H31.927H31.7258H31.5249H31.3244H31.1242H30.9243H30.7248H30.5256H30.3268H30.1284H29.9304H29.7327H29.5354H29.3386H29.1421H28.946H28.7504H28.5551H28.3603H28.166H27.9721H27.7786H27.5856H27.393H27.2009H27.0093H26.8181H26.6275H26.4373H26.2476H26.0585H25.8698H25.6817H25.4941H25.307H25.1204H24.9344H24.749H24.5641H24.3798H24.196H24.0128H23.8302H23.6482H23.4668H23.2859H23.1057H22.9261H22.7471H22.5688H22.391H22.2139H22.0375H21.8617H21.6866H21.5121H21.3383H21.1652H20.9927H20.821H20.65H20.4796H20.31H20.141H19.9728H19.8054H19.6386H19.4726H19.3074H19.1429H18.9792H18.8162H18.654H18.4926H18.3319H18.1721H18.0131H17.8548H17.6974H17.5408H17.385H17.2301H17.076H16.9227H16.7703H16.6187H16.468H16.3182H16.1692H16.0211H15.8739H15.7277H15.5823H15.4378H15.2942H15.1516H15.0098H14.869H14.7292H14.5903H14.4523H14.3153H14.1793H14.0442H13.9101H13.777H13.6449H13.5138H13.3837H13.2546H13.1265H12.9995H12.8734H12.7484H12.6245H12.5016H12.3797H12.2589H12.1392H12.0205H11.903H11.7865H11.6711H11.5568H11.4436H11.3315H11.2205H11.1107H11.002H10.8944H10.788H10.6827H10.5786H10.4756H10.3739H10.2732H10.1738H10.0756H9.97853H9.88268H9.78804H9.69462H9.60242H9.51144H9.42169H9.33319H9.24593H9.15992H9.07517H8.99169H8.90948H8.82854H8.74889H8.67053H8.59347H8.51771H8.44326H8.37013H8.29832H8.22784H8.15869H8.09089H8.02443H7.95933H7.89559H7.83321H7.77221H7.71259H7.65436H7.59752H7.54207H7.48804H7.43541H7.38421H7.33442H7.28607H7.23916H7.19369H7.14967H7.10711H7.06601H7.02638H6.98823H6.95156H6.91638H6.88269H6.8505H6.81982H6.79066H6.76301H6.7369H6.71231H6.68927H6.66777H6.64783H6.62944H6.61262H6.59737H6.5837H6.57161H6.56112H6.55222H6.54492H6.53924H6.53517H6.53272C6.53218 71.5918 6.53191 71.5918 6.53191 72.0918ZM10.9441 76.5259L10.9441 76.5259L10.5838 75.2252H75.6715L75.3111 76.5259L75.793 76.6594L75.3111 76.5259C75.2324 76.8101 75.0111 77.1198 74.6988 77.3628C74.3855 77.6065 74.0409 77.7364 73.7659 77.7364H12.4894C12.2143 77.7364 11.8697 77.6065 11.5565 77.3628C11.2442 77.1198 11.0229 76.8101 10.9441 76.5259Z" fill="white" stroke="black"/>
<path d="M18.4468 48.827H16.8448C10.633 48.827 5.60638 43.6197 5.60638 37.251C5.60638 35.7921 5.86657 34.37 6.38062 33.0254L18.4468 48.827ZM18.4468 48.827C18.9808 48.827 19.4825 48.5818 19.8179 48.1657M18.4468 48.827L19.8179 48.1657M19.8179 48.1657C20.1526 47.7505 20.2889 47.2064 20.194 46.6808M19.8179 48.1657L20.194 46.6808M20.194 46.6808C19.9312 45.2231 19.7979 43.7309 19.7979 42.2463M20.194 46.6808L19.7979 42.2463M19.7979 42.2463V33.6869M19.7979 42.2463V33.6869M19.7979 33.6869C19.7979 32.6983 19.0169 31.8702 18.0213 31.8702M19.7979 33.6869L18.0213 31.8702M18.0213 31.8702H8.03524M18.0213 31.8702H8.03524M8.03524 31.8702C7.2963 31.8702 6.64429 32.3357 6.38063 33.0254L8.03524 31.8702ZM9.3456 35.5037H16.2447V42.2463C16.2447 43.2246 16.2951 44.2054 16.395 45.1801C12.3789 44.9388 9.15958 41.4877 9.15958 37.251C9.15958 36.6558 9.22207 36.0716 9.3456 35.5037Z" fill="white" stroke="black"/>
<path d="M3.62453 27.3561L3.62451 27.3561C1.57999 30.2494 0.5 33.6723 0.5 37.251C0.5 46.5238 7.8173 54.0938 16.8448 54.0938H18.8188C23.2523 63.7648 32.6649 69.9583 43.1277 69.9583C57.9658 69.9583 70.0106 57.5124 70.0106 42.2463V28.4201C70.0106 27.4315 69.2297 26.6034 68.234 26.6034H5.06451C4.49009 26.6034 3.95621 26.8868 3.62453 27.3561ZM4.05319 37.251C4.05319 34.7425 4.72746 32.3368 6.00961 30.2368H59.6489V35.4426C59.6489 36.4312 60.4299 37.2593 61.4255 37.2593C62.4212 37.2593 63.2021 36.4312 63.2021 35.4426V30.2368H66.4574V42.2463C66.4574 55.5375 55.9768 66.3249 43.1277 66.3249C33.7179 66.3249 25.2705 60.5439 21.6147 51.5778C21.3414 50.9075 20.6988 50.4604 19.9748 50.4604H16.8448C9.80636 50.4604 4.05319 44.5489 4.05319 37.251Z" fill="white" stroke="black"/>
<path d="M43.1277 62.936C54.2116 62.936 63.2021 53.6404 63.2021 42.2464V40.7095C63.2021 39.7209 62.4212 38.8928 61.4255 38.8928C60.4299 38.8928 59.6489 39.7209 59.6489 40.7095V42.2464C59.6489 51.6654 52.2226 59.3025 43.1277 59.3025C42.132 59.3025 41.3511 60.1306 41.3511 61.1192C41.3511 62.1079 42.132 62.936 43.1277 62.936Z" fill="white" stroke="black"/>
</svg>
