<svg width="40" height="40" viewBox="0 0 40 40" fill="none" xmlns="http://www.w3.org/2000/svg">
<path d="M17.4468 10.8586C17.4468 11.2258 17.7326 11.5234 18.0851 11.5234C18.4376 11.5234 18.7234 11.2258 18.7234 10.8586C18.7234 10.1722 18.8792 9.86114 19.0765 9.46731C19.3099 9.00149 19.5745 8.47345 19.5745 7.46099C19.5745 6.44843 19.31 5.9203 19.0765 5.4544C18.8792 5.06056 18.7234 4.74943 18.7234 4.0629C18.7234 3.37637 18.8792 3.06524 19.0765 2.6714C19.31 2.20541 19.5745 1.67728 19.5745 0.664814C19.5745 0.297659 19.2887 0 18.9362 0C18.5837 0 18.2979 0.297659 18.2979 0.664814C18.2979 1.35135 18.142 1.66248 17.9448 2.05631C17.7113 2.5223 17.4468 3.05043 17.4468 4.0629C17.4468 5.07537 17.7113 5.6035 17.9448 6.06949C18.142 6.46332 18.2979 6.77454 18.2979 7.46107C18.2979 8.14743 18.142 8.45847 17.9448 8.85231C17.7113 9.31812 17.4468 9.84616 17.4468 10.8586Z" fill="white"/>
<path d="M22.5532 10.8586C22.5532 11.2258 22.839 11.5234 23.1915 11.5234C23.544 11.5234 23.8298 11.2258 23.8298 10.8586C23.8298 10.1722 23.9856 9.86114 24.1829 9.46731C24.4163 9.00149 24.6809 8.47345 24.6809 7.46099C24.6809 6.44843 24.4163 5.9203 24.1829 5.4544C23.9856 5.06056 23.8298 4.74943 23.8298 4.0629C23.8298 3.37637 23.9856 3.06524 24.1829 2.6714C24.4163 2.20541 24.6809 1.67728 24.6809 0.664814C24.6809 0.297659 24.3951 0 24.0426 0C23.69 0 23.4043 0.297659 23.4043 0.664814C23.4043 1.35135 23.2484 1.66248 23.0512 2.05631C22.8177 2.5223 22.5532 3.05043 22.5532 4.0629C22.5532 5.07537 22.8177 5.6035 23.0512 6.06949C23.2484 6.46332 23.4043 6.77454 23.4043 7.46107C23.4043 8.14743 23.2484 8.45847 23.0512 8.85231C22.8177 9.31812 22.5532 9.84616 22.5532 10.8586Z" fill="white"/>
<path d="M39.3617 35.5679H38.4962C38.4955 35.5679 2.76595 35.5679 2.76595 35.5679C2.41344 35.5679 2.12766 35.8655 2.12766 36.2327C2.12766 36.5998 2.41344 36.8975 2.76595 36.8975H3.13557L3.50365 38.2393C3.77446 39.2266 4.7588 40 5.74468 40H36.383C37.3688 40 38.3532 39.2266 38.624 38.2394L38.9921 36.8975H39.3617C39.7142 36.8975 40 36.5998 40 36.2327C40 35.8655 39.7142 35.5679 39.3617 35.5679ZM37.3965 37.8741C37.2822 38.2908 36.7991 38.6703 36.383 38.6703H5.74468C5.32851 38.6703 4.84544 38.2908 4.73114 37.8741L4.46323 36.8975H37.6644L37.3965 37.8741Z" fill="white"/>
<path d="M7.92238 23.569H8.7234C8.91311 23.569 9.09302 23.4811 9.2143 23.3291C9.33557 23.1772 9.3857 22.9769 9.35098 22.7826C9.21694 22.0318 9.14894 21.2634 9.14894 20.4988V16.1771C9.14894 15.81 8.86315 15.5123 8.51064 15.5123H3.51762C3.25549 15.5123 3.02 15.6792 2.92383 15.9333C2.67787 16.5829 2.55319 17.2704 2.55319 17.9767C2.55319 21.0602 4.96179 23.569 7.92238 23.569ZM3.97626 16.842H7.87234V20.4988C7.87234 21.0796 7.90783 21.6622 7.97796 22.2394H7.92238C5.6657 22.2394 3.82979 20.3271 3.82979 17.9767C3.82979 17.5887 3.87898 17.2087 3.97626 16.842Z" fill="white"/>
<path d="M7.92238 26.2283H9.07081C11.22 31.1091 15.8814 34.2383 21.0638 34.2383C28.3376 34.2383 34.2553 28.0748 34.2553 20.4988V13.5179C34.2553 13.1507 33.9695 12.8531 33.617 12.8531H2.03226C1.82826 12.8531 1.6366 12.9547 1.51643 13.1264C0.524341 14.5441 0 16.2213 0 17.9767C0 22.5266 3.55396 26.2283 7.92238 26.2283ZM2.36621 14.1827H29.5745V17.0636C29.5745 17.4307 29.8603 17.7284 30.2128 17.7284C30.5653 17.7284 30.8511 17.4307 30.8511 17.0636V14.1827H32.9787V20.4988C32.9787 27.3416 27.6337 32.9087 21.0638 32.9087C16.2538 32.9087 11.9408 29.9244 10.0758 25.3057C9.97625 25.059 9.74434 24.8986 9.4874 24.8986H7.92238C4.25787 24.8986 1.2766 21.7934 1.2766 17.9767C1.2766 16.6159 1.65234 15.3112 2.36621 14.1827Z" fill="white"/>
<path d="M21.0638 30.6926C26.4605 30.6926 30.8511 26.1196 30.8511 20.4988V19.7228C30.8511 19.3556 30.5653 19.058 30.2128 19.058C29.8603 19.058 29.5745 19.3556 29.5745 19.7228V20.4988C29.5745 25.3865 25.7566 29.363 21.0638 29.363C20.7113 29.363 20.4255 29.6606 20.4255 30.0278C20.4255 30.3949 20.7113 30.6926 21.0638 30.6926Z" fill="white"/>
</svg>
