<svg width="80" height="80" viewBox="0 0 80 80" fill="none" xmlns="http://www.w3.org/2000/svg">
<path d="M34.8936 22.1534C34.8936 22.8805 35.4652 23.4701 36.1702 23.4701C36.8752 23.4701 37.4468 22.8805 37.4468 22.1534C37.4468 20.7938 37.7585 20.1778 38.153 19.3977C38.6197 18.4752 39.1489 17.4294 39.1489 15.4241C39.1489 13.4187 38.6199 12.3727 38.153 11.4499C37.7585 10.6699 37.4468 10.0537 37.4468 8.69395C37.4468 7.33423 37.7585 6.71801 38.153 5.93799C38.6199 5.01506 39.1489 3.96907 39.1489 1.9638C39.1489 1.23663 38.5774 0.647095 37.8723 0.647095C37.1673 0.647095 36.5957 1.23663 36.5957 1.9638C36.5957 3.32353 36.2841 3.93975 35.8895 4.71977C35.4226 5.64269 34.8936 6.68869 34.8936 8.69395C34.8936 10.6992 35.4226 11.7452 35.8895 12.6681C36.2841 13.4482 36.5957 14.0645 36.5957 15.4243C36.5957 16.7836 36.2841 17.3997 35.8895 18.1797C35.4226 19.1023 34.8936 20.1481 34.8936 22.1534Z" fill="white"/>
<path d="M45.1064 22.1534C45.1064 22.8805 45.678 23.4701 46.383 23.4701C47.088 23.4701 47.6596 22.8805 47.6596 22.1534C47.6596 20.7938 47.9712 20.1778 48.3658 19.3977C48.8325 18.4752 49.3617 17.4294 49.3617 15.4241C49.3617 13.4187 48.8327 12.3727 48.3658 11.4499C47.9712 10.6699 47.6596 10.0537 47.6596 8.69395C47.6596 7.33423 47.9712 6.71801 48.3658 5.93799C48.8327 5.01506 49.3617 3.96907 49.3617 1.9638C49.3617 1.23663 48.7901 0.647095 48.0851 0.647095C47.3801 0.647095 46.8085 1.23663 46.8085 1.9638C46.8085 3.32353 46.4969 3.93975 46.1023 4.71977C45.6354 5.64269 45.1064 6.68869 45.1064 8.69395C45.1064 10.6992 45.6354 11.7452 46.1023 12.6681C46.4969 13.4482 46.8085 14.0645 46.8085 15.4243C46.8085 16.7836 46.4969 17.3997 46.1023 18.1797C45.6354 19.1023 45.1064 20.1481 45.1064 22.1534Z" fill="white"/>
<path d="M78.7234 71.0918H76.9925C76.991 71.0918 5.53191 71.0918 5.53191 71.0918C4.82688 71.0918 4.25531 71.6813 4.25531 72.4085C4.25531 73.1357 4.82688 73.7252 5.53191 73.7252H6.27114L7.00731 76.3827C7.54893 78.3381 9.51761 79.8699 11.4894 79.8699H72.7659C74.7377 79.8699 76.7064 78.3381 77.248 76.3829L77.9842 73.7252H78.7234C79.4284 73.7252 80 73.1357 80 72.4085C80 71.6813 79.4284 71.0918 78.7234 71.0918ZM74.793 75.6594C74.5644 76.4847 73.5981 77.2364 72.7659 77.2364H11.4894C10.657 77.2364 9.69088 76.4847 9.46229 75.6594L8.92646 73.7252H75.3288L74.793 75.6594V75.6594Z" fill="white"/>
<path d="M15.8448 47.327H17.4468C17.8262 47.327 18.186 47.1529 18.4286 46.8519C18.6711 46.551 18.7714 46.1543 18.702 45.7696C18.4339 44.2826 18.2979 42.7607 18.2979 41.2463V32.6869C18.2979 31.9598 17.7263 31.3702 17.0213 31.3702H7.03524C6.51098 31.3702 6.04 31.7008 5.84766 32.204C5.35575 33.4907 5.10638 34.8521 5.10638 36.251C5.10638 42.3583 9.92357 47.327 15.8448 47.327V47.327ZM7.95251 34.0037H15.7447V41.2463C15.7447 42.3965 15.8157 43.5505 15.9559 44.6936H15.8448C11.3314 44.6936 7.65958 40.9062 7.65958 36.251C7.65958 35.4826 7.75796 34.73 7.95251 34.0037V34.0037Z" fill="white"/>
<path d="M15.8448 52.5938H18.1416C22.44 62.2606 31.7627 68.4583 42.1277 68.4583C56.6752 68.4583 68.5106 56.251 68.5106 41.2463V27.4201C68.5106 26.6929 67.9391 26.1034 67.234 26.1034H4.06451C3.65651 26.1034 3.27319 26.3046 3.03285 26.6446C1.04868 29.4526 0 32.7744 0 36.251C0 45.2624 7.10791 52.5938 15.8448 52.5938ZM4.73243 28.7368H59.1489V34.4426C59.1489 35.1697 59.7205 35.7593 60.4255 35.7593C61.1306 35.7593 61.7021 35.1697 61.7021 34.4426V28.7368H65.9574V41.2463C65.9574 54.7989 55.2674 65.8249 42.1277 65.8249C32.5076 65.8249 23.8815 59.9142 20.1517 50.7666C19.9525 50.278 19.4887 49.9604 18.9748 49.9604H15.8448C8.51574 49.9604 2.55319 43.8103 2.55319 36.251C2.55319 33.556 3.30468 30.9719 4.73243 28.7368Z" fill="white"/>
<path d="M42.1277 61.436C52.921 61.436 61.7021 52.3789 61.7021 41.2464V39.7095C61.7021 38.9824 61.1306 38.3928 60.4255 38.3928C59.7205 38.3928 59.1489 38.9824 59.1489 39.7095V41.2464C59.1489 50.9268 51.5132 58.8025 42.1277 58.8025C41.4226 58.8025 40.8511 59.3921 40.8511 60.1192C40.8511 60.8464 41.4226 61.436 42.1277 61.436Z" fill="white"/>
</svg>
