<svg width="18" height="49" viewBox="0 0 18 49" fill="none" xmlns="http://www.w3.org/2000/svg">
<path d="M13.7865 8.56644C10.4262 8.54803 7.06817 8.55022 3.70786 8.56096C1.28767 8.56863 0.0197593 9.92573 0.0136094 12.5012C0.0052045 16.0926 0.0115574 19.6847 0.0115574 23.2761C0.0115574 24.5385 -0.0228813 25.8025 0.027138 27.0643C0.0687524 28.0992 0.764102 28.7724 1.6626 28.7748C2.5732 28.777 3.23022 28.1117 3.31242 27.0822C3.33845 26.7695 3.32083 26.4511 3.32083 26.1364C3.32185 22.8998 3.31242 19.6623 3.33845 16.4264C3.34071 16.1481 3.56539 15.8728 3.68838 15.5956C3.84746 15.8794 4.04856 16.1459 4.15455 16.4513C4.22732 16.6589 4.16808 16.9199 4.16808 17.157C4.16808 26.7485 4.16582 36.338 4.1691 45.9302C4.1691 47.6193 4.90607 48.6063 6.16147 48.6341C7.4919 48.6619 8.23932 47.6993 8.24444 45.9101C8.25285 43.1472 8.24547 40.3852 8.24547 37.6224C8.24547 34.9774 8.22989 32.3323 8.26535 29.6884C8.26966 29.3678 8.54866 29.0496 8.70056 28.7292C8.83073 28.7849 8.95988 28.8406 9.08985 28.8982C9.08985 29.3656 9.08985 29.833 9.08985 30.3002C9.08985 35.5879 9.09293 40.877 9.08657 46.1658C9.08555 47.1541 9.36147 48.092 10.2639 48.3514C10.925 48.5427 11.8983 48.5004 12.3854 48.0911C12.8893 47.6671 13.2025 46.6757 13.2058 45.9302C13.2566 36.2212 13.239 26.5125 13.2369 16.8037C13.2369 16.6468 13.1808 16.47 13.2296 16.3341C13.3222 16.0793 13.4713 15.8478 13.5971 15.6064C13.7367 15.8283 13.9593 16.0348 13.9979 16.2763C14.0655 16.6981 14.0229 17.1407 14.0229 17.5738C14.0217 20.5733 14.0102 23.5732 14.0217 26.5725C14.0268 28.0004 14.6172 28.7601 15.6655 28.7724C16.744 28.7869 17.3123 28.0591 17.3145 26.6205C17.3207 21.8445 17.326 17.0691 17.3113 12.2937C17.3051 9.92683 16.0267 8.57805 13.7865 8.56644Z" fill="white"/>
<path d="M11.9705 3.54736C11.9838 1.58172 10.5203 -0.00240773 8.69032 2.74728e-06C6.85621 0.00109842 5.35912 1.5907 5.37265 3.52457C5.38413 5.4157 6.84248 6.97594 8.61734 6.99654C10.4961 7.01692 11.9567 5.51518 11.9705 3.54736Z" fill="white"/>
</svg>
