<svg width="20" height="51" viewBox="0 0 20 51" fill="none" xmlns="http://www.w3.org/2000/svg">
<path d="M0.513611 13.5001L0.513611 13.5C0.516865 12.1371 0.854099 11.0125 1.59056 10.2263C2.33221 9.43459 3.40412 9.06509 4.70626 9.06096C8.06731 9.05022 11.4269 9.04803 14.7891 9.06644L0.513611 13.5001ZM0.513611 13.5001C0.507733 16.0114 0.50907 18.5236 0.510407 21.0348C0.510982 22.1154 0.511557 23.1959 0.511557 24.2761C0.511557 24.6331 0.508711 24.9938 0.505846 25.3569C0.498729 26.2589 0.491499 27.1751 0.52753 28.0841L0.527542 28.0843M0.513611 13.5001L0.527542 28.0843M0.527542 28.0843C0.578786 29.3588 1.46771 30.2716 2.66126 30.2748L2.6614 30.2748M0.527542 28.0843L2.6614 30.2748M2.6614 30.2748C3.24543 30.2762 3.76861 30.0606 4.15556 29.6651C4.38425 29.4313 4.5559 29.1448 4.66754 28.822M2.6614 30.2748L4.66754 28.822M4.66754 28.822C4.66717 34.8577 4.66704 40.8935 4.6691 46.9302L4.66754 28.822ZM7.15101 50.134L7.15039 50.134C6.3789 50.1169 5.73188 49.7966 5.29249 49.2024C4.86629 48.6261 4.66913 47.8391 4.6691 46.9304L7.15101 50.134ZM7.15101 50.134C7.95262 50.1508 8.63286 49.8619 9.09655 49.258C9.36832 48.904 9.54834 48.4643 9.64819 47.9594M7.15101 50.134L9.64819 47.9594M9.64819 47.9594C9.69416 48.2316 9.76902 48.4976 9.8831 48.7428C10.115 49.2412 10.5123 49.6555 11.1252 49.8318M9.64819 47.9594L14.7893 9.06644C16.0104 9.0728 17.0338 9.44646 17.7499 10.2032C18.4623 10.9561 18.8079 12.0223 18.8113 13.2922C18.826 18.0688 18.8207 22.8452 18.8145 27.6211V27.6213C18.8133 28.393 18.6624 29.0625 18.2898 29.5464C17.8981 30.0551 17.3227 30.2813 16.6588 30.2724C16.0023 30.2645 15.4382 30.0144 15.0533 29.5046C14.9247 29.3341 14.8214 29.1418 14.7414 28.9308C14.7425 34.931 14.7372 40.9319 14.7058 46.9328C14.7038 47.3674 14.613 47.8579 14.4538 48.3004C14.2978 48.7341 14.0549 49.1812 13.7073 49.4737L13.7071 49.4739C13.3544 49.7702 12.8747 49.9015 12.4385 49.9441C11.9929 49.9877 11.5205 49.9462 11.1252 49.8318M11.1252 49.8318C11.1251 49.8318 11.125 49.8318 11.1249 49.8317L11.2639 49.3514L11.1257 49.832C11.1256 49.8319 11.1254 49.8319 11.1252 49.8318Z" fill="white" stroke="black"/>
<path d="M5.87266 4.52781C5.88572 6.66209 7.53553 8.47241 9.61154 8.4965L9.61192 8.49651C11.789 8.52012 13.4549 6.77363 13.4705 4.55084L13.4705 4.55074C13.4854 2.34271 11.8315 0.497389 9.69002 0.500003C9.68997 0.500003 9.68992 0.500003 9.68986 0.500003M5.87266 4.52781C5.8575 2.34197 7.55393 0.50137 9.68986 0.500003M5.87266 4.52781C5.87266 4.52774 5.87266 4.52767 5.87266 4.5276L6.37265 4.52457L5.87266 4.52806C5.87266 4.52798 5.87266 4.5279 5.87266 4.52781ZM9.68986 0.500003C9.6898 0.500003 9.68973 0.500003 9.68966 0.500003L9.69032 1L9.68986 0.500003Z" fill="white" stroke="black"/>
</svg>
