<svg width="30" height="31" viewBox="0 0 30 31" fill="none" xmlns="http://www.w3.org/2000/svg">
<path d="M27.7352 27.676L25.3363 27.7985L24.6027 19.8266C25.984 19.5473 27.2267 18.9693 28.1927 18.1438C29.4802 17.0434 30.1159 15.6398 29.9826 14.1916L29.1937 5.61858C29.1183 4.79899 28.1623 4.17806 27.062 4.23417L16.4492 4.77618C15.8093 4.80897 15.2612 5.06456 14.9281 5.43331C14.6028 5.21003 14.1913 5.07315 13.7442 5.0453L3.14338 4.38666C2.04485 4.31866 1.07616 4.9289 0.984488 5.7474L0.474982 10.2982C0.474671 10.3008 0.474281 10.3035 0.474126 10.3061L0.02568 14.3108C-0.136237 15.7574 0.471478 17.1678 1.73706 18.2823C2.68645 19.1183 3.91769 19.71 5.29332 20.0044L4.40165 27.9674L2.00552 27.8185C1.21525 27.7698 0.523192 28.2063 0.457459 28.7942C0.391727 29.3822 0.978023 29.8985 1.76713 29.9476L9.41718 30.423C9.45768 30.4255 9.49803 30.4268 9.53798 30.4268C10.2759 30.4268 10.9028 30.005 10.9653 29.4473C11.0311 28.8593 10.4448 28.343 9.65566 28.2939L7.25953 28.145L8.15121 20.1808C9.57303 20.0602 10.919 19.6299 12.041 18.9228C13.5369 17.98 14.45 16.664 14.6119 15.2175L15.0476 11.3262L15.38 14.9377C15.6224 17.5726 18.3525 19.6452 21.7416 19.9713L22.4753 27.9449L20.0765 28.0673C19.2864 28.1077 18.6899 28.6176 18.744 29.2062C18.7958 29.77 19.4259 30.2014 20.1731 30.2014C20.206 30.2014 20.2392 30.2006 20.2726 30.1989L27.9313 29.8077C28.7213 29.7673 29.3178 29.2574 29.2637 28.6688C29.2095 28.0802 28.5255 27.6359 27.7352 27.676ZM11.7543 15.0397C11.6559 15.9176 11.1001 16.7173 10.1889 17.2916C9.27777 17.8659 8.12683 18.1421 6.94886 18.0686C5.77058 17.9954 4.69721 17.5813 3.92641 16.9024C3.15561 16.2237 2.78528 15.3664 2.88349 14.4885L3.17726 11.8649C4.67034 12.2031 6.25392 12.3042 7.80455 12.1552C9.08393 12.0322 10.4019 12.1393 11.6159 12.4648L12.0301 12.5758L11.7543 15.0397ZM12.2763 10.3751C10.7233 9.99775 9.05752 9.88048 7.4375 10.0363C6.08741 10.166 4.70344 10.0406 3.43466 9.67333L3.4229 9.66991L3.77002 6.56955L12.6407 7.12078L12.2763 10.3751ZM17.7971 9.96746L17.5115 6.86356L26.3922 6.40998L26.6919 9.66794C25.0802 9.46967 23.4097 9.54133 21.8399 9.8777C20.5319 10.158 19.1381 10.1897 17.8094 9.96955L17.7971 9.96746ZM19.7615 17.0601C18.8618 16.4759 18.3218 15.6702 18.2409 14.7914L17.9993 12.1653C18.5232 12.2217 19.052 12.2504 19.5806 12.2504C20.6103 12.2504 21.6395 12.1436 22.6323 11.931C23.872 11.6653 25.1965 11.6227 26.4626 11.8079L26.8946 11.8711L27.1216 14.3378C27.2024 15.2166 26.8151 16.0697 26.0309 16.7399C25.2467 17.4102 24.1652 17.8125 22.9857 17.8727C21.8061 17.9329 20.6611 17.6444 19.7615 17.0601Z" fill="white"/>
<path d="M13.348 1.79976C12.8977 1.77162 12.4599 1.87618 12.115 2.09354C11.7699 2.31101 11.5593 2.61564 11.5218 2.95085C11.4841 3.28635 11.6241 3.61273 11.9161 3.86978C12.2079 4.12671 12.6165 4.28367 13.0672 4.31176C13.1147 4.31477 13.1618 4.31617 13.2087 4.31617C14.0781 4.31617 14.8196 3.81762 14.8933 3.16066C14.9711 2.46814 14.2781 1.85767 13.348 1.79976Z" fill="white"/>
<path d="M9.12532 0.965678C8.19572 0.907305 7.3764 1.42419 7.29867 2.11712C7.22126 2.80941 7.91433 3.41977 8.84417 3.47768C8.89168 3.48069 8.93879 3.48209 8.9856 3.48209C9.85516 3.48209 10.5967 2.98354 10.6703 2.32658C10.748 1.63406 10.0549 1.02359 9.12532 0.965678Z" fill="white"/>
<path d="M27.8159 2.24181V2.24146C27.7849 1.90562 27.5803 1.59878 27.2396 1.37759C26.899 1.15646 26.463 1.04714 26.0127 1.07035C25.5618 1.09327 25.1499 1.24576 24.8528 1.49956C24.556 1.75336 24.4094 2.07818 24.4403 2.41368C24.4711 2.7497 24.6757 3.05653 25.0166 3.27784C25.3273 3.47959 25.7173 3.58815 26.1253 3.58815C26.1645 3.58815 26.2039 3.58717 26.2434 3.58514C27.174 3.53779 27.8794 2.9352 27.8159 2.24181Z" fill="white"/>
<path d="M23.472 1.89231C23.4082 1.19915 22.5985 0.674084 21.6684 0.7212C21.2177 0.744294 20.8059 0.896666 20.509 1.15041C20.2121 1.40421 20.0655 1.72897 20.0965 2.06493C20.1274 2.40072 20.3321 2.70744 20.6726 2.92863C20.9834 3.13044 21.3734 3.239 21.7814 3.239C21.8206 3.239 21.8601 3.23801 21.8996 3.23598C22.3505 3.21301 22.7624 3.06058 23.0594 2.80678C23.3565 2.55298 23.503 2.22821 23.472 1.89231Z" fill="white"/>
</svg>
