<svg width="42" height="52" viewBox="0 0 42 52" fill="none" xmlns="http://www.w3.org/2000/svg">
<path d="M37.9644 45.6801L37.9643 45.6801L35.0129 45.8685L34.0682 33.036C35.8737 32.541 37.4988 31.5743 38.7728 30.2135L38.5964 30.0483L38.7728 30.2134C40.5351 28.3306 41.4091 25.9234 41.2261 23.4372L40.1743 9.14887C40.0625 7.63008 38.6541 6.5092 37.0668 6.61038L37.0827 6.85987L37.0668 6.61038L22.9163 7.51373L22.9162 7.51373C22.085 7.56697 21.3566 7.94497 20.8632 8.50901C20.4255 8.19643 19.9034 8.00598 19.3451 7.9625L19.345 7.9625L5.21053 6.86477L5.21046 6.86477C3.62586 6.74215 2.19952 7.84311 2.06365 9.3596L2.06365 9.35961L1.38444 16.9428L1.38431 16.9443L1.38424 16.9448L1.38377 16.9497C1.38352 16.9523 1.38316 16.9563 1.38284 16.961L0.785237 23.632L1.03424 23.6543L0.785236 23.632C0.562859 26.1154 1.39854 28.5344 3.13104 30.4415C4.38311 31.8197 5.99273 32.8088 7.79018 33.3286L6.6419 46.1468L3.69339 45.9178L3.69323 45.9178C2.51968 45.8274 1.46221 46.6388 1.36094 47.771C1.25943 48.906 2.1629 49.8736 3.33681 49.9648L13.5369 50.7572L13.537 50.7572C13.5972 50.7618 13.6574 50.7642 13.7173 50.7642C14.8147 50.7642 15.7731 49.9777 15.8694 48.9041L15.8694 48.904C15.971 47.7689 15.0675 46.8015 13.8936 46.7102L13.8743 46.9578L13.8936 46.7102L10.951 46.4816L12.0991 33.6625C13.9651 33.4281 15.7294 32.7032 17.2094 31.5373L17.0547 31.3409L17.2094 31.5373C19.255 29.9256 20.5092 27.6708 20.7316 25.1877L21.0391 21.7539L21.2573 24.7175C21.5855 29.1758 25.2266 32.6758 29.7544 33.31L30.6992 46.1443L27.7527 46.3323C26.5776 46.4073 25.6591 47.3621 25.7427 48.4982C25.8225 49.584 26.7864 50.3886 27.8975 50.3886C27.9469 50.3886 27.9964 50.387 28.0459 50.3839L28.0461 50.3839L38.2576 49.7319C39.4327 49.6569 40.3511 48.7021 40.2676 47.5659C40.1841 46.4321 39.1383 45.6056 37.9644 45.6801ZM3.31609 30.2733C4.58193 31.6668 6.22358 32.6529 8.05776 33.1435L3.31609 30.2733ZM10.2846 29.668L10.2845 29.668C8.77484 29.5507 7.40368 28.8881 6.42026 27.8055L6.23521 27.9736L6.42026 27.8055C5.43738 26.7236 4.96923 25.3631 5.09366 23.9727C5.09366 23.9727 5.09366 23.9727 5.09366 23.9727L5.4587 19.8976C7.39537 20.4064 9.43569 20.55 11.4359 20.3098L11.4359 20.3098C13.1052 20.1092 14.8252 20.2839 16.4084 20.8146L16.4084 20.8146L16.7735 20.9369L16.4234 24.8468C16.4234 24.8468 16.4234 24.8468 16.4234 24.8468C16.2987 26.2376 15.5945 27.5088 14.4305 28.4259C13.266 29.3434 11.7938 29.7858 10.2846 29.668ZM27.5062 28.0423L27.5062 28.0423C26.357 27.1095 25.6731 25.8289 25.5706 24.4369L25.2707 20.3642C25.8802 20.4345 26.4938 20.4702 27.1074 20.4702C28.5018 20.4702 29.896 20.2895 31.2411 19.9293L31.2411 19.9293C32.8582 19.4961 34.5867 19.4267 36.2386 19.7286L36.6243 19.7992L36.9128 23.7175C37.0152 25.1094 36.5255 26.4634 35.5254 27.5319L35.7079 27.7028L35.5254 27.5319C34.5247 28.6011 33.1429 29.2448 31.6317 29.3412L31.6477 29.5907L31.6317 29.3412C30.1202 29.4377 28.6558 28.9756 27.5062 28.0423ZM6.25366 11.0205L17.5827 11.9005L17.1466 16.7693C15.1275 16.1991 12.9792 16.0303 10.8868 16.2818C9.18377 16.4864 7.43933 16.3019 5.83018 15.7485L6.25366 11.0205ZM24.6165 11.4756L35.9584 10.7515L36.3171 15.6245C34.2306 15.3458 32.0814 15.4816 30.0552 16.0243C28.4041 16.4665 26.6475 16.5293 24.9648 16.2075L24.6165 11.4756Z" fill="white" stroke="black" stroke-width="0.5"/>
<path d="M16.7031 6.42056C16.2685 5.94224 16.0567 5.32981 16.1134 4.69864L16.7031 6.42056ZM16.7031 6.42056C17.1368 6.89802 17.7419 7.18675 18.4034 7.23831L16.7031 6.42056ZM18.8167 2.55318C18.1555 2.50154 17.5092 2.69343 16.9987 3.09567L18.8167 2.55318ZM16.9987 3.09568C16.4871 3.49862 16.1698 4.06808 16.1134 4.69852L16.9987 3.09568ZM21.1068 5.09294C21.2244 3.78354 20.1785 2.6592 18.8168 2.55318L21.1068 5.09294Z" fill="white" stroke="black" stroke-width="0.5"/>
<path d="M10.4826 3.30907L10.4826 3.309C10.5998 2.00213 11.8267 1.05638 13.1865 1.16303L10.4826 3.30907ZM10.4826 3.30907C10.3655 4.61799 11.4113 5.7421 12.7726 5.84817L10.4826 3.30907Z" fill="white" stroke="black" stroke-width="0.5"/>
<path d="M36.0071 6.02769C37.3662 5.94125 38.4282 4.83714 38.3378 3.53043M36.0071 6.02769L35.9912 5.7782L36.0073 6.02768C36.0072 6.02769 36.0072 6.02769 36.0071 6.02769ZM36.0071 6.02769C35.9491 6.03142 35.8911 6.03323 35.8337 6.03323C35.2341 6.03323 34.6581 5.83361 34.1979 5.46015L34.1979 5.46014C33.6925 5.04993 33.3842 4.4761 33.3378 3.84415L33.5871 3.82577L33.3377 3.84408C33.2912 3.21274 33.5128 2.60346 33.9546 2.13142L33.9546 2.13137C34.396 1.65997 35.0057 1.37949 35.6676 1.3374M38.3378 3.53043L37.4769 1.90483C36.9725 1.49549 36.3288 1.29482 35.6676 1.3374M38.3378 3.53043V3.52952L38.3372 3.52033C38.2905 2.88872 37.9823 2.31488 37.4769 1.90484L38.3378 3.53043ZM35.6676 1.3374C35.6676 1.3374 35.6677 1.3374 35.6677 1.33739L35.6836 1.58689L35.6675 1.33741C35.6675 1.33741 35.6675 1.3374 35.6676 1.3374Z" fill="white" stroke="black" stroke-width="0.5"/>
<path d="M29.8753 0.755409L29.8755 0.755397C31.2355 0.669276 32.449 1.63016 32.5454 2.93837M29.8753 0.755409L32.5454 2.93837M29.8753 0.755409C29.2136 0.797783 28.6041 1.07801 28.1628 1.5494L28.1628 1.54942C27.7211 2.02149 27.4995 2.63069 27.5461 3.26277L29.8753 0.755409ZM32.5454 2.93837C32.592 3.57038 32.3704 4.17963 31.9284 4.65173C31.487 5.12318 30.8773 5.40353 30.2154 5.4457M32.5454 2.93837L30.2154 5.4457M30.2154 5.4457L30.1995 5.1962L30.2155 5.44569C30.2155 5.44569 30.2154 5.44569 30.2154 5.4457ZM30.2154 5.4457C30.1573 5.44943 30.0994 5.45123 30.042 5.45123C29.4423 5.45123 28.8662 5.25162 28.406 4.87804L28.406 4.87804C27.901 4.46807 27.5925 3.89446 27.5461 3.26285L30.2154 5.4457Z" fill="white" stroke="black" stroke-width="0.5"/>
</svg>
