<svg width="30" height="31" viewBox="0 0 30 31" fill="none" xmlns="http://www.w3.org/2000/svg">
<path d="M25.1094 28.0604L25.0874 27.8214L24.3538 19.8495L24.3332 19.626L24.5532 19.5815C25.8982 19.3096 27.1006 18.7482 28.0303 17.9538C29.2677 16.8961 29.8582 15.5677 29.7337 14.2145L28.9448 5.64148C28.9158 5.32677 28.7156 5.02815 28.3761 4.80765C28.0374 4.58772 27.5762 4.45828 27.0748 4.48385C27.0748 4.48385 27.0748 4.48385 27.0747 4.48385L16.462 5.02585C15.8777 5.05579 15.3957 5.28861 15.1136 5.60089L14.967 5.76322L14.7867 5.63943C14.5025 5.44442 14.1356 5.32017 13.7287 5.29482L25.1094 28.0604ZM25.1094 28.0604L25.3491 28.0482L27.7478 27.9257C28.0945 27.9081 28.4102 27.9975 28.6393 28.1463C28.8692 28.2956 28.9964 28.4923 29.0147 28.6917C29.0328 28.8884 28.9451 29.0884 28.7516 29.2538C28.5572 29.4199 28.2651 29.5403 27.9185 29.558L27.9313 29.8077L27.9185 29.558L20.2601 29.9492C20.2306 29.9507 20.2017 29.9514 20.1731 29.9514C19.8458 29.9514 19.5522 29.8566 19.3402 29.7097C19.1279 29.5626 19.0106 29.3745 18.993 29.1833C18.9749 28.9866 19.0627 28.7866 19.2561 28.6212C19.4505 28.4551 19.7426 28.3347 20.0892 28.317L20.0765 28.0673L20.0892 28.317L22.4881 28.1945L22.7481 28.1812L22.7243 27.9219L21.9905 19.9484L21.9716 19.7423L21.7655 19.7224C18.4387 19.4023 15.8559 17.3808 15.6289 14.9148L15.2965 11.3033L14.7992 11.2983L14.3635 15.1897L14.6119 15.2175L14.3635 15.1897C14.2118 16.5443 13.3546 17.7993 11.9077 18.7113C10.8228 19.395 9.51608 19.8142 8.13008 19.9317L7.9256 19.9491L7.90276 20.153L7.01109 28.1172L6.98186 28.3783L7.24403 28.3946L9.64014 28.5434C9.64014 28.5434 9.64015 28.5434 9.64015 28.5434C9.98628 28.565 10.2754 28.6885 10.4658 28.8561C10.6551 29.0229 10.7388 29.223 10.7169 29.4195C10.6956 29.6091 10.5762 29.7949 10.364 29.9396C10.1523 30.0841 9.86107 30.1768 9.53798 30.1768C9.50338 30.1768 9.46822 30.1757 9.43269 30.1735C9.43264 30.1735 9.4326 30.1735 9.43255 30.1735L1.78263 29.698C1.43651 29.6765 1.14735 29.553 0.956957 29.3854C0.76764 29.2186 0.683945 29.0185 0.705911 28.822C0.728252 28.6222 0.859727 28.4262 1.09312 28.2791C1.3256 28.1325 1.64342 28.0467 1.99002 28.068C1.99006 28.068 1.99011 28.068 1.99015 28.068L4.38614 28.2169L4.62362 28.2316L4.65009 27.9952L5.54177 20.0322L5.56695 19.8073L5.34563 19.7599C4.00625 19.4733 2.81546 18.8988 1.90229 18.0946L1.73706 18.2823L1.90228 18.0946C0.686768 17.0243 0.122826 15.6904 0.274128 14.3386L0.722573 10.3339L0.722908 10.334L0.723326 10.3269L0.72343 10.326L1.23293 5.77522C1.23293 5.77522 1.23294 5.77521 1.23294 5.77521C1.26819 5.46045 1.47497 5.16331 1.81965 4.9461C2.1633 4.72953 2.62742 4.60521 3.12788 4.63618C3.1279 4.63618 3.12792 4.63618 3.12794 4.63619L13.7287 5.29482L25.1094 28.0604ZM12.0027 15.0676L12.0027 15.0675L12.2785 12.6036L12.3024 12.39L12.0948 12.3343L11.6806 12.2233C10.4371 11.8899 9.08909 11.7806 7.78065 11.9064C6.2563 12.0528 4.69944 11.9534 3.23249 11.6211L2.95991 11.5594L2.92881 11.8371L2.63504 14.4607L2.63504 14.4607C2.52619 15.4337 2.9406 16.3674 3.76118 17.0901C4.5797 17.8109 5.70831 18.242 6.93329 18.3181C8.15842 18.3946 9.36244 18.108 10.3222 17.5031C11.2821 16.8981 11.894 16.0376 12.0027 15.0676ZM12.2173 10.6181L12.4932 10.6851L12.5248 10.403L12.8892 7.1486L12.9184 6.88755L12.6562 6.87126L3.78553 6.32003L3.54805 6.30527L3.52157 6.54173L3.17445 9.64209L3.15105 9.85114L3.35301 9.90994L3.36477 9.91337L3.36515 9.91348C4.66507 10.2897 6.08078 10.4178 7.46141 10.2851L7.46143 10.2851C9.05409 10.132 10.6918 10.2474 12.2173 10.6181ZM17.5481 9.99037L17.5657 10.1818L17.7552 10.2139L17.7676 10.216L17.7685 10.2162C19.128 10.4414 20.5534 10.409 21.8923 10.1221L21.8399 9.8777L21.8923 10.1221C23.4345 9.7917 25.0769 9.72115 26.6614 9.91607L26.9693 9.95394L26.9409 9.64503L26.6411 6.38707L26.6191 6.14806L26.3794 6.1603L17.4987 6.61388L17.2387 6.62716L17.2625 6.88646L17.5481 9.99037ZM17.992 14.8143L17.992 14.8143C18.0814 15.7858 18.6768 16.6538 19.6253 17.2697C20.5736 17.8857 21.7718 18.185 22.9985 18.1223C24.2247 18.0598 25.3613 17.6412 26.1934 16.93C27.0273 16.2172 27.4602 15.289 27.3705 14.3149L27.1216 14.3378L27.3705 14.3148L27.1435 11.8482L27.1255 11.6522L26.9308 11.6237L26.4988 11.5605L26.4626 11.8079L26.4988 11.5605C25.2035 11.3711 23.849 11.4145 22.5799 11.6865C21.6049 11.8954 20.5931 12.0004 19.5806 12.0004C19.061 12.0004 18.5412 11.9721 18.026 11.9167L17.7223 11.884L17.7503 12.1882L17.992 14.8143Z" fill="white" stroke="black" stroke-width="0.5"/>
<path d="M13.3324 2.04927L13.3325 2.04927C13.7489 2.0752 14.1001 2.22436 14.3334 2.42984C14.5657 2.63446 14.6728 2.8843 14.6449 3.13275L14.6449 3.1328C14.6181 3.37181 14.4675 3.60172 14.2086 3.77821C13.9502 3.95437 13.5974 4.06616 13.2087 4.06616C13.1668 4.06616 13.125 4.06492 13.0831 4.06226L13.0828 4.06224C12.6781 4.03703 12.325 3.89671 12.0813 3.68217L12.0813 3.68214C11.8399 3.46958 11.7432 3.21987 11.7702 2.97876L11.7703 2.97861C11.7975 2.73486 11.9527 2.49134 12.2483 2.30504L12.2483 2.30503C12.5442 2.11857 12.9288 2.02405 13.3324 2.04927Z" fill="white" stroke="black" stroke-width="0.5"/>
<path d="M9.10978 1.21519L9.10966 1.21519C8.69375 1.18907 8.30928 1.29244 8.02588 1.47113C7.7415 1.65044 7.57543 1.89281 7.54713 2.1449L9.10978 1.21519ZM9.10978 1.21519C9.52597 1.24112 9.87702 1.39026 10.1103 1.59575C10.3426 1.80038 10.4497 2.05023 10.4218 2.2987L10.4218 2.29875C10.3951 2.53775 10.2445 2.76764 9.9856 2.94413C9.7272 3.12029 9.37438 3.23209 8.9856 3.23209C8.94376 3.23209 8.90194 3.23084 8.86001 3.22818L8.85971 3.22816M9.10978 1.21519L8.85971 3.22816M8.85971 3.22816C8.44338 3.20223 8.09226 3.0531 7.8589 2.84765M8.85971 3.22816L7.8589 2.84765M7.8589 2.84765C7.62655 2.64307 7.51938 2.39331 7.54712 2.14498L7.8589 2.84765Z" fill="white" stroke="black" stroke-width="0.5"/>
<path d="M27.5663 2.25818C27.5419 2.01639 27.392 1.77462 27.1034 1.58729L27.1034 1.58727C26.8118 1.39796 26.4292 1.29922 26.0255 1.32002L26.0254 1.32003C25.6207 1.3406 25.2641 1.47705 25.0153 1.68959L27.5663 2.25818ZM27.5663 2.25818L27.5669 2.26463C27.5897 2.51345 27.4774 2.76291 27.2401 2.96566C27.002 3.16906 26.6474 3.31426 26.2307 3.33546L26.2306 3.33547C26.1955 3.33727 26.1603 3.33815 26.1253 3.33815C25.7602 3.33815 25.4186 3.24076 25.1527 3.06817L27.5663 2.25818ZM24.6893 2.39074L24.6893 2.39083C24.7117 2.63478 24.8615 2.87908 25.1527 3.06816L24.6893 2.39074ZM24.6893 2.39074C24.667 2.1498 24.7688 1.90032 25.0152 1.68963L24.6893 2.39074Z" fill="white" stroke="black" stroke-width="0.5"/>
<path d="M23.2231 1.91528L23.2231 1.91525C23.1999 1.66387 23.0393 1.42078 22.759 1.23885C22.4796 1.05752 22.0975 0.949815 21.6812 0.970873C21.2766 0.991604 20.92 1.12799 20.6715 1.34044L23.2231 1.91528ZM23.2231 1.91528C23.2454 2.15664 23.1436 2.40604 22.897 2.61671C22.6483 2.82925 22.2916 2.96568 21.8869 2.98631L21.8868 2.98631M23.2231 1.91528L21.8868 2.98631M20.3455 2.04196L20.3455 2.04207L20.3455 2.04196ZM20.3455 2.04196C20.3232 1.80053 20.425 1.55112 20.6714 1.34045L20.3455 2.04196ZM21.8868 2.98631C21.8516 2.98812 21.8164 2.989 21.7814 2.989C21.4163 2.989 21.0746 2.8916 20.8088 2.71896L21.8868 2.98631Z" fill="white" stroke="black" stroke-width="0.5"/>
</svg>
