<svg width="50" height="50" viewBox="0 0 50 50" fill="none" xmlns="http://www.w3.org/2000/svg">
<path d="M48.3833 22.2761H44.7111C43.3015 18.9359 40.9038 16.162 37.8264 14.3145L37.8118 8.54863C37.8103 7.9645 37.5078 7.42449 37.0163 7.12779C36.5244 6.83088 35.9163 6.82161 35.4164 7.10309L31.1614 9.4963C30.5496 4.15707 26.104 0 20.725 0C14.9289 0 10.2132 4.82525 10.2132 10.7561C10.2132 11.5939 10.3105 12.4083 10.4883 13.1917C4.23951 15.7678 0 22.0712 0 29.0699C0 34.6209 2.58872 39.7499 6.9692 42.9675V48.3453C6.9692 49.259 7.69307 49.9998 8.58594 49.9998H16.7192C17.6116 49.9998 18.3353 49.2597 18.3359 48.3464L18.3374 46.1815H27.7389L27.7311 48.3394C27.7296 48.7792 27.899 49.2017 28.2023 49.5131C28.5058 49.8248 28.9178 50 29.3478 50H36.9991C37.8919 50 38.6158 49.2592 38.6158 48.3456V43.3211C41.987 41.0256 44.4249 37.5703 45.4865 33.5987H48.3833C49.2761 33.5987 50 32.858 50 31.9443V23.9308C50 23.0166 49.2761 22.2761 48.3833 22.2761ZM20.725 3.30889C24.7378 3.30889 28.0025 6.64977 28.0025 10.7561C28.0025 11.1805 27.9656 11.5961 27.8988 12.0013C27.8954 12.0181 27.8928 12.0351 27.8898 12.0521C27.2883 15.5423 24.3056 18.2033 20.725 18.2033C16.7119 18.2033 13.4467 14.8624 13.4467 10.7561C13.4467 6.64977 16.7116 3.30889 20.725 3.30889ZM46.7665 30.2896H44.2013C43.4236 30.2896 42.7559 30.8563 42.6124 31.6385C41.8948 35.5476 39.5503 38.9521 36.1802 40.9791C35.6861 41.2762 35.3826 41.8189 35.3826 42.4054V46.6911H30.9708L30.9788 44.5333C30.9803 44.0934 30.8109 43.671 30.5074 43.3595C30.2038 43.0478 29.7919 42.8729 29.3621 42.8729H16.7218C15.8293 42.8729 15.1057 43.613 15.105 44.5262L15.1035 46.6911H10.2027V42.0915C10.2027 41.5277 9.92201 41.0027 9.45833 40.6987C5.56049 38.1423 3.23347 33.7953 3.23347 29.0699C3.23347 23.4219 6.65513 18.3357 11.6978 16.259C12.1096 16.9634 12.5985 17.6148 13.1512 18.2031H11.83C10.9371 18.2031 10.2132 18.9436 10.2132 19.8575C10.2132 20.7712 10.9371 21.512 11.83 21.512H29.619C30.5119 21.512 31.2357 20.7712 31.2357 19.8575C31.2357 18.9436 30.5119 18.2031 29.619 18.2031H28.298C29.5384 16.8826 30.4548 15.2416 30.9105 13.4129L34.5854 11.346L34.5955 15.2992C34.597 15.9195 34.9376 16.4869 35.4776 16.7688C38.5828 18.3897 40.929 21.1284 42.084 24.4803C42.3121 25.1421 42.9232 25.5846 43.6087 25.5846H46.7663L46.7665 30.2896Z" fill="white"/>
</svg>
