<svg width="52" height="52" viewBox="0 0 52 52" fill="none" xmlns="http://www.w3.org/2000/svg">
<path d="M19.8371 47.6815H28.2371L28.2311 49.3376V49.3377C28.2291 49.9065 28.4481 50.4553 28.8441 50.862C29.2404 51.269 29.781 51.5 30.3478 51.5H37.9991C39.1789 51.5 40.1158 50.5245 40.1158 49.3456V44.5831C43.3699 42.2935 45.7489 38.9432 46.8661 35.0987H49.3833C50.5631 35.0987 51.5 34.1232 51.5 32.9443V24.9308C51.5 23.7514 50.5631 22.7761 49.3833 22.7761H46.0395C44.6124 19.5627 42.2855 16.8769 39.3257 15.0337L39.3118 9.54736C39.3098 8.79215 38.9188 8.08858 38.2747 7.69974L38.2747 7.69973C37.6287 7.3098 36.8282 7.29742 36.1711 7.66741L32.5496 9.70427C31.6044 4.48191 27.1201 0.5 21.725 0.5C15.642 0.5 10.7132 5.55999 10.7132 11.7561C10.7132 12.4874 10.784 13.2012 10.9153 13.8926C4.68692 16.6427 0.5 23.0151 0.5 30.0699C0.5 35.6911 3.08242 40.897 7.4692 44.2183V49.3453C7.4692 50.5242 8.40612 51.4998 9.58594 51.4998H17.7192C18.8985 51.4998 19.8351 50.5251 19.8359 49.3468L19.8371 47.6815ZM28.3975 12.9646L28.397 12.9672C27.8347 16.2306 25.0492 18.7033 21.725 18.7033C17.9988 18.7033 14.9467 15.5972 14.9467 11.7561C14.9467 7.91503 17.9985 4.80889 21.725 4.80889C25.4508 4.80889 28.5025 7.91498 28.5025 11.7561C28.5025 12.1487 28.4686 12.5344 28.4068 12.912C28.4045 12.9238 28.4027 12.9342 28.4013 12.942L28.3975 12.9646ZM35.8826 43.4054V47.1911H32.4727L32.4788 45.5351V45.535C32.4807 44.9662 32.2618 44.4173 31.8656 44.0107C31.4691 43.6036 30.9285 43.3729 30.3621 43.3729H17.7218C16.5425 43.3729 15.6059 44.3476 15.605 45.5259L15.6039 47.1911H11.7027V43.0915C11.7027 42.3625 11.3399 41.6788 10.7325 41.2806C6.97789 38.818 4.73347 34.6295 4.73347 30.0699C4.73347 24.7689 7.85936 19.9854 12.4977 17.8899C12.6766 18.17 12.8674 18.4412 13.0693 18.7031H12.83C11.6502 18.7031 10.7132 19.6784 10.7132 20.8575C10.7132 22.0364 11.6502 23.012 12.83 23.012H30.619C31.7988 23.012 32.7357 22.0364 32.7357 20.8575C32.7357 19.6784 31.7988 18.7031 30.619 18.7031H30.3795C31.2717 17.5448 31.9472 16.2043 32.341 14.7444L35.0876 13.1996L35.0955 16.3004C35.0955 16.3005 35.0955 16.3005 35.0955 16.3005C35.0975 17.1023 35.5378 17.8422 36.2462 18.212L36.2463 18.212C39.2366 19.773 41.4974 22.4105 42.6113 25.6432L43.084 25.4803L42.6113 25.6432C42.9069 26.501 43.7039 27.0846 44.6087 27.0846H47.2663V30.7896H45.2013C44.1743 30.7896 43.3063 31.5366 43.1206 32.5483C42.4286 36.318 40.1682 39.5984 36.9224 41.5506C36.2749 41.94 35.8826 42.6471 35.8826 43.4054Z" fill="white" stroke="black"/>
</svg>
