<svg width="44" height="54" viewBox="0 0 44 54" fill="none" xmlns="http://www.w3.org/2000/svg">
<path d="M9.64827 47.9597C9.54837 48.4644 9.36835 48.904 9.09663 49.2579C8.63296 49.8619 7.95279 50.1508 7.15125 50.134L7.15062 50.134C6.37912 50.1169 5.73218 49.7966 5.29289 49.2023C4.86678 48.6259 4.66975 47.839 4.66975 46.9302M9.64827 47.9597L4.81983 27.1366C4.81983 27.2103 4.82108 27.2905 4.8224 27.3749C4.82604 27.6083 4.83019 27.8737 4.80976 28.123C4.79015 28.3672 4.74261 28.6002 4.66809 28.8168M9.64827 47.9597C9.69423 48.2318 9.76906 48.4977 9.88306 48.7428C10.1149 49.2412 10.5122 49.6556 11.1253 49.8319C11.5204 49.9462 11.9929 49.9877 12.4385 49.9441C12.8748 49.9015 13.3549 49.7703 13.7076 49.4739L13.7083 49.4733C14.0552 49.1808 14.2978 48.7338 14.4536 48.3003C14.6127 47.8578 14.7036 47.3674 14.7058 46.9328L9.64827 47.9597ZM4.66975 46.9302H5.1648L4.66975 46.9304C4.66975 46.9303 4.66975 46.9303 4.66975 46.9302ZM4.66975 46.9302C4.66743 40.8917 4.66762 34.8543 4.66809 28.8168M4.66809 28.8168C4.6681 28.5817 4.66812 28.3466 4.66814 28.1114M4.66809 28.8168C4.55646 29.1413 4.38431 29.4294 4.15481 29.6643C3.7684 30.0598 3.24586 30.2765 2.66236 30.2759H2.66162C1.46797 30.273 0.577876 29.3605 0.527768 28.0854L4.66814 28.1114M4.66814 28.1114L4.31143 28.0822L4.66814 28.1107L4.66814 28.1114ZM14.7412 28.9288C14.7424 34.9296 14.7374 40.9311 14.7058 46.9327L14.7412 28.9288ZM14.7412 28.9288C14.8213 29.1405 14.9247 29.3335 15.0537 29.5044C15.4384 30.0144 16.0024 30.2645 16.6591 30.2723C17.3227 30.2812 17.898 30.055 18.2898 29.5465C18.6625 29.0627 18.8138 28.3932 18.8152 27.6214V27.621C18.8155 27.3627 18.8157 27.1044 18.816 26.8461C18.8209 22.3286 18.8258 17.8104 18.8115 13.2921C18.8076 12.0228 18.4618 10.9569 17.7494 10.2042C17.0335 9.44767 16.0103 9.07399 14.7895 9.06752L14.7412 28.9288ZM4.70651 9.06204L4.70653 9.06204C8.06693 9.05151 11.4271 9.0491 14.7894 9.06752L4.70651 9.06204ZM4.70651 9.06204C3.40407 9.06616 2.33215 9.43565 1.59049 10.2274C0.854038 11.0136 0.516811 12.1382 0.513232 13.501L0.513231 13.5011M4.70651 9.06204L0.513231 13.5011M0.513231 13.5011C0.506703 16.2906 0.508335 19.0804 0.509966 21.8694M0.513231 13.5011L0.509966 21.8694M0.509966 21.8694C0.510436 22.6721 0.510905 23.4747 0.51118 24.2771L0.509966 21.8694ZM0.505654 25.3501C0.498696 26.255 0.491627 27.1742 0.527759 28.0851L0.51118 24.2773C0.511179 24.6317 0.508425 24.9898 0.505654 25.3501ZM14.9975 17.2762C15.0468 17.581 15.0383 17.8967 15.0297 18.2117C15.0264 18.3327 15.0231 18.4536 15.0231 18.5737C15.0228 19.5122 15.0215 20.4507 15.0201 21.3892L14.9975 17.2762Z" fill="white" stroke="black"/>
<path d="M13.4684 4.5508L13.4684 4.55095C13.4524 6.77362 11.7868 8.52012 9.60947 8.49651L9.60909 8.4965C7.53311 8.47241 5.88332 6.66214 5.87021 4.5279L13.4684 4.5508ZM13.4684 4.5508C13.4836 2.34275 11.8301 0.497389 9.68819 0.500003L13.4684 4.5508ZM9.68803 0.500003C7.55186 0.50137 5.85577 2.34195 5.87021 4.5276L9.68803 0.500003Z" fill="white" stroke="black"/>
<path d="M24.5136 13.5001L24.5136 13.5C24.5169 12.1371 24.8541 11.0125 25.5906 10.2263C26.3322 9.43459 27.4041 9.06509 28.7063 9.06096C32.0673 9.05022 35.4269 9.04803 38.7891 9.06644L24.5136 13.5001ZM24.5136 13.5001C24.5077 16.0114 24.5091 18.5236 24.5104 21.0348C24.511 22.1154 24.5116 23.1959 24.5116 24.2761C24.5116 24.6331 24.5087 24.9938 24.5058 25.3569C24.4987 26.2589 24.4915 27.1751 24.5275 28.0841L24.5275 28.0843M24.5136 13.5001L24.5275 28.0843M24.5275 28.0843C24.5788 29.3588 25.4677 30.2716 26.6613 30.2748L26.6614 30.2748M24.5275 28.0843L26.6614 30.2748M26.6614 30.2748C27.2454 30.2762 27.7686 30.0606 28.1556 29.6651C28.3843 29.4313 28.5559 29.1448 28.6675 28.822M26.6614 30.2748L28.6675 28.822M28.6675 28.822C28.6672 34.8577 28.667 40.8935 28.6691 46.9302L28.6675 28.822ZM31.151 50.134L31.1504 50.134C30.3789 50.1169 29.7319 49.7966 29.2925 49.2024C28.8663 48.6261 28.6691 47.8391 28.6691 46.9304L31.151 50.134ZM31.151 50.134C31.9526 50.1508 32.6329 49.8619 33.0965 49.258C33.3683 48.904 33.5483 48.4643 33.6482 47.9594M31.151 50.134L33.6482 47.9594M33.6482 47.9594C33.6942 48.2316 33.769 48.4976 33.8831 48.7428C34.115 49.2412 34.5123 49.6555 35.1252 49.8318M33.6482 47.9594L38.7893 9.06644C40.0104 9.0728 41.0338 9.44646 41.7499 10.2032C42.4623 10.9561 42.8079 12.0223 42.8113 13.2922C42.826 18.0688 42.8207 22.8452 42.8145 27.6211V27.6213C42.8133 28.393 42.6624 29.0625 42.2898 29.5464C41.8981 30.0551 41.3227 30.2813 40.6588 30.2724C40.0023 30.2645 39.4382 30.0144 39.0533 29.5046C38.9247 29.3341 38.8214 29.1418 38.7414 28.9308C38.7425 34.931 38.7372 40.9319 38.7058 46.9328C38.7038 47.3674 38.613 47.8579 38.4538 48.3004C38.2978 48.7341 38.0549 49.1812 37.7073 49.4737L37.7071 49.4739C37.3544 49.7702 36.8747 49.9015 36.4385 49.9441C35.9929 49.9877 35.5205 49.9462 35.1252 49.8318M35.1252 49.8318C35.1251 49.8318 35.125 49.8318 35.1249 49.8317L35.2639 49.3514L35.1257 49.832C35.1256 49.8319 35.1254 49.8319 35.1252 49.8318Z" fill="white" stroke="black"/>
<path d="M29.8727 4.52781C29.8857 6.66209 31.5355 8.47241 33.6115 8.4965L33.6119 8.49651C35.789 8.52012 37.4549 6.77363 37.4705 4.55084L37.4705 4.55074C37.4854 2.34271 35.8315 0.497389 33.69 0.500003C33.69 0.500003 33.6899 0.500003 33.6899 0.500003M29.8727 4.52781C29.8575 2.34197 31.5539 0.50137 33.6899 0.500003M29.8727 4.52781C29.8727 4.52774 29.8727 4.52767 29.8727 4.5276L30.3726 4.52457L29.8727 4.52806C29.8727 4.52798 29.8727 4.5279 29.8727 4.52781ZM33.6899 0.500003C33.6898 0.500003 33.6897 0.500003 33.6897 0.500003L33.6903 1L33.6899 0.500003Z" fill="white" stroke="black"/>
<path d="M12.5278 31.0841L12.5278 31.0838C12.4916 30.1721 12.4987 29.2533 12.5057 28.3486C12.5084 27.9883 12.5112 27.6303 12.5112 27.2758C12.5112 26.1955 12.5106 25.1149 12.51 24.0342C12.5087 21.5231 12.5074 19.0111 12.5132 16.4998C12.5163 15.1369 12.8535 14.0124 13.5902 13.2263C14.332 12.4347 15.4043 12.0655 16.7067 12.0618L12.5278 31.0841ZM12.5278 31.0841C12.579 32.3585 13.4675 33.2714 14.6615 33.2746L14.6616 33.2746M12.5278 31.0841L14.6616 33.2746M14.6616 33.2746C15.2456 33.276 15.7687 33.0603 16.1557 32.6648C16.3846 32.431 16.5563 32.1443 16.668 31.8212M14.6616 33.2746L16.668 31.8212M16.668 31.8212C16.6677 37.8572 16.6676 43.893 16.6695 49.93C16.6695 49.93 16.6695 49.9301 16.6695 49.9301L17.1695 49.93L16.668 31.8212ZM23.1259 52.8316C22.5128 52.6553 22.1154 52.241 21.8835 51.7426C21.7694 51.4973 21.6946 51.2312 21.6486 50.9589L26.7897 12.0673C28.0103 12.0737 29.0334 12.4474 29.7494 13.2039C30.4618 13.9566 30.8077 15.0225 30.8117 16.2919C30.8265 21.0685 30.8211 25.8449 30.8148 30.6209V30.621C30.8137 31.3927 30.6628 32.0622 30.2902 32.5461C29.8986 33.0548 29.3231 33.281 28.6593 33.2721C28.0028 33.2642 27.4387 33.0142 27.0538 32.5043C26.9251 32.3339 26.8219 32.1416 26.7419 31.9307C26.743 37.9309 26.7378 43.9317 26.7062 49.9326M23.1259 52.8316C23.1257 52.8316 23.1255 52.8315 23.1253 52.8315L23.2643 52.3512L23.1261 52.8317C23.1261 52.8317 23.126 52.8317 23.1259 52.8316ZM23.1259 52.8316C23.5211 52.9459 23.9937 52.9874 24.4394 52.9439C24.8754 52.9012 25.3556 52.77 25.7079 52.4733M25.7079 52.4733C26.0554 52.1808 26.2983 51.7338 26.4542 51.3002C26.6134 50.8576 26.7042 50.3672 26.7062 49.9326M25.7079 52.4733C25.7079 52.4733 25.7078 52.4734 25.7078 52.4734L25.3858 52.0908L25.7079 52.4733ZM26.7062 49.9326L26.2062 49.93L26.7062 49.9322C26.7062 49.9323 26.7062 49.9324 26.7062 49.9326ZM26.7896 12.0673C23.4274 12.0489 20.0674 12.0513 16.7069 12.0618L26.7896 12.0673Z" fill="white" stroke="black"/>
<path d="M21.6105 11.4965L21.6101 11.4965C19.5341 11.4724 17.8843 9.66217 17.8712 7.52796L21.6105 11.4965ZM21.6105 11.4965C23.7879 11.5201 25.4539 9.77367 25.4692 7.5508C25.4844 5.34271 23.8305 3.49739 21.689 3.5L21.6105 11.4965ZM21.6888 3.5C19.5522 3.50137 17.8565 5.34197 17.8712 7.5276L21.6888 3.5Z" fill="white" stroke="black"/>
</svg>
