<svg width="40" height="32" viewBox="0 0 40 32" fill="none" xmlns="http://www.w3.org/2000/svg">
<path d="M4.81205 30.7789L4.90818 30.1974L5.52115 26.4892L5.59032 26.0707H6.01445H7.22797H7.79239L7.72432 26.631L7.51393 28.3629C7.5037 28.4471 7.53001 28.5317 7.58642 28.5954L4.81205 30.7789ZM4.81205 30.7789H5.40148M4.81205 30.7789H5.40148M5.40148 30.7789H34.5984H35.1878L35.0917 30.1973L34.4785 26.4891L34.4093 26.0707H33.9852H32.7717H32.2073L32.2754 26.631L32.4857 28.3629L32.4857 28.3631M5.40148 30.7789L32.4857 28.3631M32.4857 28.3631C32.4959 28.4469 32.4697 28.5316 32.4133 28.5954C32.3569 28.6591 32.276 28.6955 32.1911 28.6955H7.80859C7.72373 28.6955 7.64288 28.6591 7.5865 28.5955L32.4857 28.3631ZM4.8926 26.6522L4.98874 26.0706H4.3993H0.796797C0.632861 26.0706 0.5 25.9378 0.5 25.7738V0.796797C0.5 0.632861 0.632861 0.5 0.796797 0.5H39.2032C39.367 0.5 39.5 0.632846 39.5001 0.796797C39.5001 0.796827 39.5001 0.796856 39.5001 0.796886V25.7738C39.5001 25.9377 39.3672 26.0706 39.2033 26.0706H35.6008H35.0113L35.1075 26.6522L35.8307 31.0272C35.8307 31.0272 35.8308 31.0272 35.8308 31.0273C35.8449 31.1133 35.8206 31.2012 35.7644 31.2675C35.7078 31.3341 35.625 31.3724 35.5379 31.3724H4.46219C4.37489 31.3724 4.29218 31.3341 4.23585 31.2677L4.23578 31.2676C4.17941 31.2012 4.1551 31.1132 4.16931 31.0273L4.16932 31.0273L4.8926 26.6522ZM8.21185 27.5414L8.1438 28.1017H8.7082H31.2917H31.8561L31.7881 27.5415L31.6629 26.5104L31.6095 26.0706H31.1666H8.83344H8.39049L8.33709 26.5103L8.21185 27.5414ZM1.09359 24.977V25.477H1.59359H37.9063H38.4063H38.4064L38.4063 24.977H38.9063V1.59359V1.09359H38.4063H1.59359H1.09359V1.59359V24.977Z" fill="white" stroke="white"/>
<path d="M3.4841 22.6189V23.1189H3.9841H36.016V22.6189H36.516V3.95199V3.45199H36.016H3.9841H3.4841V3.95199V22.6189ZM3.1873 2.8584H36.8128C36.9767 2.8584 37.1096 2.99129 37.1096 3.1552V23.4157C37.1096 23.5796 36.9767 23.7125 36.8128 23.7125H3.1873C3.02336 23.7125 2.8905 23.5796 2.8905 23.4157V3.1552C2.8905 2.99126 3.02336 2.8584 3.1873 2.8584Z" fill="white" stroke="white"/>
<path d="M24.4621 20.707H24.8605C25.0244 20.707 25.1573 20.8399 25.1573 21.0038C25.1573 21.1677 25.0244 21.3006 24.8605 21.3006H24.4621C24.2982 21.3006 24.1653 21.1677 24.1653 21.0038C24.1653 20.8399 24.2982 20.707 24.4621 20.707Z" fill="white" stroke="white"/>
<path d="M27.729 20.707H34.1833C34.3472 20.707 34.4801 20.8399 34.4801 21.0038C34.4801 21.1677 34.3472 21.3006 34.1833 21.3006H27.729C27.5652 21.3006 27.4323 21.1677 27.4323 21.0038C27.4323 20.8399 27.5652 20.707 27.729 20.707Z" fill="white" stroke="white"/>
</svg>
