<svg width="100" height="80" viewBox="0 0 100 80" fill="none" xmlns="http://www.w3.org/2000/svg">
<path d="M98.0078 0.647095H1.99199C0.891795 0.647095 0 1.53376 0 2.62763V64.7111C0 65.8049 0.891795 66.6916 1.99199 66.6916H10.9982L9.19002 77.5664C9.09451 78.1402 9.2578 78.7271 9.63631 79.1706C10.0148 79.6143 10.5703 79.8699 11.1554 79.8699H88.8446C89.4299 79.8699 89.9852 79.6139 90.3637 79.1706C90.7422 78.7271 90.9053 78.1402 90.81 77.5664L89.0018 66.6916H98.008C99.108 66.6916 100 65.8049 100 64.7111V2.62763C99.9998 1.53376 99.1078 0.647095 98.0078 0.647095ZM13.5037 75.909L15.0361 66.6918H18.0699L17.5439 70.9966C17.4752 71.5593 17.6523 72.1242 18.0304 72.5487C18.4086 72.973 18.9513 73.216 19.5214 73.216H80.4776C81.0477 73.216 81.5905 72.973 81.9686 72.5487C82.3465 72.1242 82.5239 71.5592 82.4549 70.9966L81.9291 66.6918H84.9627L86.4957 75.909H13.5037ZM21.7705 69.2545L22.0836 66.6916H77.9163L78.2291 69.2545H21.7705ZM96.0158 62.7305H3.98398V4.60817H96.0156V62.7305H96.0158Z" fill="white"/>
<path d="M92.0318 6.50916H7.96825C6.86805 6.50916 5.97626 7.39582 5.97626 8.48969V58.8495C5.97626 59.9434 6.86805 60.8301 7.96825 60.8301H92.0318C93.1318 60.8301 94.0237 59.9434 94.0237 58.8495V8.48969C94.0237 7.39582 93.1318 6.50916 92.0318 6.50916ZM90.0398 56.869H9.96023V10.4702H90.0398V56.869V56.869Z" fill="white"/>
<path d="M62.1512 50.874H61.1551C60.0551 50.874 59.1631 51.7607 59.1631 52.8546C59.1631 53.9484 60.0551 54.8351 61.1551 54.8351H62.1512C63.2512 54.8351 64.1432 53.9484 64.1432 52.8546C64.1432 51.7607 63.2512 50.874 62.1512 50.874Z" fill="white"/>
<path d="M85.458 50.874H69.3225C68.2225 50.874 67.3305 51.7607 67.3305 52.8546C67.3305 53.9484 68.2225 54.8351 69.3225 54.8351H85.458C86.558 54.8351 87.45 53.9484 87.45 52.8546C87.45 51.7607 86.558 50.874 85.458 50.874Z" fill="white"/>
</svg>
