<svg width="40" height="51" viewBox="0 0 40 51" fill="none" xmlns="http://www.w3.org/2000/svg">
<path d="M9.64827 47.9597C9.54837 48.4644 9.36835 48.904 9.09663 49.2579C8.63296 49.8619 7.95279 50.1508 7.15125 50.134L7.15062 50.134C6.37912 50.1169 5.73218 49.7966 5.29289 49.2023C4.86678 48.6259 4.66975 47.839 4.66975 46.9302M9.64827 47.9597L4.81983 27.1366C4.81983 27.2103 4.82108 27.2905 4.8224 27.3749C4.82604 27.6083 4.83019 27.8737 4.80976 28.123C4.79015 28.3672 4.74261 28.6002 4.66809 28.8168M9.64827 47.9597C9.69423 48.2318 9.76906 48.4977 9.88306 48.7428C10.1149 49.2412 10.5122 49.6556 11.1253 49.8319C11.5204 49.9462 11.9929 49.9877 12.4385 49.9441C12.8748 49.9015 13.3549 49.7703 13.7076 49.4739L13.7083 49.4733C14.0552 49.1808 14.2978 48.7338 14.4536 48.3003C14.6127 47.8578 14.7036 47.3674 14.7058 46.9328L9.64827 47.9597ZM4.66975 46.9302H5.1648L4.66975 46.9304C4.66975 46.9303 4.66975 46.9303 4.66975 46.9302ZM4.66975 46.9302C4.66743 40.8917 4.66762 34.8543 4.66809 28.8168M4.66809 28.8168C4.6681 28.5817 4.66812 28.3466 4.66814 28.1114M4.66809 28.8168C4.55646 29.1413 4.38431 29.4294 4.15481 29.6643C3.7684 30.0598 3.24586 30.2765 2.66236 30.2759H2.66162C1.46797 30.273 0.577876 29.3605 0.527768 28.0854L4.66814 28.1114M4.66814 28.1114L4.31143 28.0822L4.66814 28.1107L4.66814 28.1114ZM14.7412 28.9288C14.7424 34.9296 14.7374 40.9311 14.7058 46.9327L14.7412 28.9288ZM14.7412 28.9288C14.8213 29.1405 14.9247 29.3335 15.0537 29.5044C15.4384 30.0144 16.0024 30.2645 16.6591 30.2723C17.3227 30.2812 17.898 30.055 18.2898 29.5465C18.6625 29.0627 18.8138 28.3932 18.8152 27.6214V27.621C18.8155 27.3627 18.8157 27.1044 18.816 26.8461C18.8209 22.3286 18.8258 17.8104 18.8115 13.2921C18.8076 12.0228 18.4618 10.9569 17.7494 10.2042C17.0335 9.44767 16.0103 9.07399 14.7895 9.06752L14.7412 28.9288ZM4.70651 9.06204L4.70653 9.06204C8.06693 9.05151 11.4271 9.0491 14.7894 9.06752L4.70651 9.06204ZM4.70651 9.06204C3.40407 9.06616 2.33215 9.43565 1.59049 10.2274C0.854038 11.0136 0.516811 12.1382 0.513232 13.501L0.513231 13.5011M4.70651 9.06204L0.513231 13.5011M0.513231 13.5011C0.506703 16.2906 0.508335 19.0804 0.509966 21.8694M0.513231 13.5011L0.509966 21.8694M0.509966 21.8694C0.510436 22.6721 0.510905 23.4747 0.51118 24.2771L0.509966 21.8694ZM0.505654 25.3501C0.498696 26.255 0.491627 27.1742 0.527759 28.0851L0.51118 24.2773C0.511179 24.6317 0.508425 24.9898 0.505654 25.3501ZM14.9975 17.2762C15.0468 17.581 15.0383 17.8967 15.0297 18.2117C15.0264 18.3327 15.0231 18.4536 15.0231 18.5737C15.0228 19.5122 15.0215 20.4507 15.0201 21.3892L14.9975 17.2762Z" fill="white" stroke="black"/>
<path d="M13.4684 4.5508L13.4684 4.55095C13.4524 6.77362 11.7868 8.52012 9.60947 8.49651L9.60909 8.4965C7.53311 8.47241 5.88332 6.66214 5.87021 4.5279L13.4684 4.5508ZM13.4684 4.5508C13.4836 2.34275 11.8301 0.497389 9.68819 0.500003L13.4684 4.5508ZM9.68803 0.500003C7.55186 0.50137 5.85577 2.34195 5.87021 4.5276L9.68803 0.500003Z" fill="white" stroke="black"/>
<path d="M20.5136 13.5001L20.5136 13.5C20.5169 12.1371 20.8541 11.0125 21.5906 10.2263C22.3322 9.43459 23.4041 9.06509 24.7063 9.06096C28.0673 9.05022 31.4269 9.04803 34.7891 9.06644L20.5136 13.5001ZM20.5136 13.5001C20.5077 16.0114 20.5091 18.5236 20.5104 21.0348C20.511 22.1154 20.5116 23.1959 20.5116 24.2761C20.5116 24.6331 20.5087 24.9938 20.5058 25.3569C20.4987 26.2589 20.4915 27.1751 20.5275 28.0841L20.5275 28.0843M20.5136 13.5001L20.5275 28.0843M20.5275 28.0843C20.5788 29.3588 21.4677 30.2716 22.6613 30.2748L22.6614 30.2748M20.5275 28.0843L22.6614 30.2748M22.6614 30.2748C23.2454 30.2762 23.7686 30.0606 24.1556 29.6651C24.3843 29.4313 24.5559 29.1448 24.6675 28.822M22.6614 30.2748L24.6675 28.822M24.6675 28.822C24.6672 34.8577 24.667 40.8935 24.6691 46.9302L24.6675 28.822ZM27.151 50.134L27.1504 50.134C26.3789 50.1169 25.7319 49.7966 25.2925 49.2024C24.8663 48.6261 24.6691 47.8391 24.6691 46.9304L27.151 50.134ZM27.151 50.134C27.9526 50.1508 28.6329 49.8619 29.0965 49.258C29.3683 48.904 29.5483 48.4643 29.6482 47.9594M27.151 50.134L29.6482 47.9594M29.6482 47.9594C29.6942 48.2316 29.769 48.4976 29.8831 48.7428C30.115 49.2412 30.5123 49.6555 31.1252 49.8318M29.6482 47.9594L34.7893 9.06644C36.0104 9.0728 37.0338 9.44646 37.7499 10.2032C38.4623 10.9561 38.8079 12.0223 38.8113 13.2922C38.826 18.0688 38.8207 22.8452 38.8145 27.6211V27.6213C38.8133 28.393 38.6624 29.0625 38.2898 29.5464C37.8981 30.0551 37.3227 30.2813 36.6588 30.2724C36.0023 30.2645 35.4382 30.0144 35.0533 29.5046C34.9247 29.3341 34.8214 29.1418 34.7414 28.9308C34.7425 34.931 34.7372 40.9319 34.7058 46.9328C34.7038 47.3674 34.613 47.8579 34.4538 48.3004C34.2978 48.7341 34.0549 49.1812 33.7073 49.4737L33.7071 49.4739C33.3544 49.7702 32.8747 49.9015 32.4385 49.9441C31.9929 49.9877 31.5205 49.9462 31.1252 49.8318M31.1252 49.8318C31.1251 49.8318 31.125 49.8318 31.1249 49.8317L31.2639 49.3514L31.1257 49.832C31.1256 49.8319 31.1254 49.8319 31.1252 49.8318Z" fill="white" stroke="black"/>
<path d="M25.8727 4.52781C25.8857 6.66209 27.5355 8.47241 29.6115 8.4965L29.6119 8.49651C31.789 8.52012 33.4549 6.77363 33.4705 4.55084L33.4705 4.55074C33.4854 2.34271 31.8315 0.497389 29.69 0.500003C29.69 0.500003 29.6899 0.500003 29.6899 0.500003M25.8727 4.52781C25.8575 2.34197 27.5539 0.50137 29.6899 0.500003M25.8727 4.52781C25.8727 4.52774 25.8727 4.52767 25.8727 4.5276L26.3726 4.52457L25.8727 4.52806C25.8727 4.52798 25.8727 4.5279 25.8727 4.52781ZM29.6899 0.500003C29.6898 0.500003 29.6897 0.500003 29.6897 0.500003L29.6903 1L29.6899 0.500003Z" fill="white" stroke="black"/>
</svg>
