<svg width="38" height="49" viewBox="0 0 38 49" fill="none" xmlns="http://www.w3.org/2000/svg">
<path d="M3.31143 27.0822C3.33705 26.7695 3.31983 26.4511 3.31983 26.1364C3.32086 22.8998 3.31143 19.6623 3.33705 16.4263C3.3391 16.148 3.56501 15.8728 3.68678 15.5956C3.84647 15.8794 4.04696 16.1458 4.15355 16.4513C4.22592 16.6588 4.16872 16.9198 4.16872 17.1569C4.16872 26.7485 4.16606 36.338 4.16975 45.9302C4.16975 47.6193 4.9063 48.6063 6.1617 48.6341C7.49193 48.6619 8.23935 47.6993 8.24468 45.91C8.25349 43.1472 8.24673 40.3852 8.2457 37.6224C8.2457 34.9774 8.22951 32.3322 8.26497 29.6884C8.26928 29.3678 8.54869 29.0496 8.70121 28.7292C8.83138 28.7849 8.95991 28.8405 9.08988 28.8982C9.08988 29.3656 9.08988 29.833 9.08988 30.3002C9.08988 35.5879 9.09296 40.877 9.0866 46.1658C9.08558 47.1541 9.3615 48.092 10.2635 48.3514C10.9244 48.5427 11.8988 48.5004 12.386 48.0911C12.8889 47.6671 13.2021 46.6757 13.2058 45.9302C13.2569 36.2212 13.2386 26.5125 13.2366 16.8037C13.2366 16.6468 13.1808 16.4699 13.2302 16.3341C13.3218 16.0792 13.4707 15.8478 13.5967 15.6063C13.7363 15.8283 13.959 16.0347 13.9975 16.2762C14.0658 16.6981 14.0231 17.1407 14.0231 17.5737C14.0221 20.5732 14.0106 23.5732 14.0221 26.5725C14.0278 28.0004 14.617 28.7601 15.6658 28.7724C16.7436 28.7869 17.3125 28.0591 17.3152 26.6205C17.3203 21.8444 17.3267 17.0691 17.3115 12.2937C17.3043 9.9279 16.0264 8.57934 13.7868 8.56751C10.4265 8.5491 7.06779 8.55151 3.7081 8.56203C1.28729 8.5697 0.0199947 9.9268 0.0132298 12.5023C0.00482493 16.0937 0.00994986 19.6855 0.0111798 23.2771C0.0111798 24.5396 -0.0226447 25.8046 0.0273746 27.0655C0.067964 28.1005 0.763929 28.7737 1.66284 28.7759C2.5718 28.7768 3.22922 28.1102 3.31143 27.0822Z" fill="white"/>
<path d="M11.9684 3.54736C11.982 1.58172 10.5189 -0.00240773 8.68849 2.74728e-06C6.85417 0.00109842 5.35729 1.5907 5.3702 3.52457C5.38168 5.4157 6.84003 6.97594 8.61489 6.99654C10.4939 7.01692 11.9543 5.51518 11.9684 3.54736Z" fill="white"/>
<path d="M33.7865 8.56644C30.4262 8.54803 27.0682 8.55022 23.7079 8.56096C21.2877 8.56863 20.0198 9.92573 20.0136 12.5012C20.0052 16.0926 20.0116 19.6847 20.0116 23.2761C20.0116 24.5385 19.9771 25.8025 20.0271 27.0643C20.0688 28.0992 20.7641 28.7724 21.6626 28.7748C22.5732 28.777 23.2302 28.1117 23.3124 27.0822C23.3385 26.7695 23.3208 26.4511 23.3208 26.1364C23.3219 22.8998 23.3124 19.6623 23.3385 16.4264C23.3407 16.1481 23.5654 15.8728 23.6884 15.5956C23.8475 15.8794 24.0486 16.1459 24.1545 16.4513C24.2273 16.6589 24.1681 16.9199 24.1681 17.157C24.1681 26.7485 24.1658 36.338 24.1691 45.9302C24.1691 47.6193 24.9061 48.6063 26.1615 48.6341C27.4919 48.6619 28.2393 47.6993 28.2444 45.9101C28.2528 43.1472 28.2455 40.3852 28.2455 37.6224C28.2455 34.9774 28.2299 32.3323 28.2654 29.6884C28.2697 29.3678 28.5487 29.0496 28.7006 28.7292C28.8307 28.7849 28.9599 28.8406 29.0898 28.8982C29.0898 29.3656 29.0898 29.833 29.0898 30.3002C29.0898 35.5879 29.0929 40.877 29.0866 46.1658C29.0855 47.1541 29.3615 48.092 30.2639 48.3514C30.925 48.5427 31.8983 48.5004 32.3854 48.0911C32.8893 47.6671 33.2025 46.6757 33.2058 45.9302C33.2566 36.2212 33.239 26.5125 33.2369 16.8037C33.2369 16.6468 33.1808 16.47 33.2296 16.3341C33.3222 16.0793 33.4713 15.8478 33.5971 15.6064C33.7367 15.8283 33.9593 16.0348 33.9979 16.2763C34.0655 16.6981 34.0229 17.1407 34.0229 17.5738C34.0217 20.5733 34.0102 23.5732 34.0217 26.5725C34.0268 28.0004 34.6172 28.7601 35.6655 28.7724C36.744 28.7869 37.3123 28.0591 37.3145 26.6205C37.3207 21.8445 37.326 17.0691 37.3113 12.2937C37.3051 9.92683 36.0267 8.57805 33.7865 8.56644Z" fill="white"/>
<path d="M31.9705 3.54736C31.9838 1.58172 30.5203 -0.00240773 28.6903 2.74728e-06C26.8562 0.00109842 25.3591 1.5907 25.3726 3.52457C25.3841 5.4157 26.8425 6.97594 28.6173 6.99654C30.4961 7.01692 31.9567 5.51518 31.9705 3.54736Z" fill="white"/>
</svg>
