<svg width="100" height="80" viewBox="0 0 100 80" fill="none" xmlns="http://www.w3.org/2000/svg">
<path d="M50.0006 59.511C45.658 59.511 41.5748 61.3702 38.5029 64.7461C38.0795 65.212 37.8412 65.8434 37.8412 66.5023C37.8412 67.1612 38.0792 67.7926 38.5026 68.2585L48.4031 79.1424C48.8443 79.6271 49.4226 79.8698 50.0006 79.8698C50.5786 79.8698 51.1568 79.6274 51.5981 79.1424L61.4985 68.2585C61.922 67.7926 62.1599 67.1612 62.1599 66.5023C62.1599 65.8434 61.922 65.212 61.4982 64.7465C58.4264 61.3702 54.3434 59.511 50.0006 59.511ZM50.0006 73.8744L43.4473 66.6705C45.3689 65.2441 47.6314 64.4776 50.0006 64.4776C52.37 64.4776 54.6326 65.2441 56.5539 66.6702L50.0006 73.8744Z" fill="white"/>
<path d="M50.0005 39.7513C40.8678 39.7513 32.274 43.6697 25.8017 50.7845C25.3779 51.25 25.14 51.8818 25.14 52.5404C25.14 53.1989 25.3779 53.8307 25.8017 54.2962L32.4914 61.6501C32.9324 62.1349 33.5107 62.3776 34.0887 62.3776C34.6666 62.3776 35.2449 62.1352 35.6862 61.6501C39.5179 57.4378 44.6017 55.1177 50.0005 55.1177C55.3994 55.1177 60.4832 57.4375 64.3146 61.6495C65.1965 62.6193 66.6272 62.6193 67.5088 61.6495L74.1985 54.2956C74.6223 53.83 74.8602 53.1983 74.8602 52.5397C74.8602 51.8811 74.6223 51.2494 74.1985 50.7835C67.7265 43.6693 59.1329 39.7513 50.0005 39.7513ZM65.8408 56.4597C61.3949 52.3752 55.8497 50.1511 50.0005 50.1511C44.1511 50.1511 38.6059 52.3748 34.1597 56.4604L30.6527 52.6053C36.0419 47.5019 42.8307 44.7176 50.0003 44.7176C57.1698 44.7176 63.9583 47.5016 69.3472 52.6046L65.8408 56.4597Z" fill="white"/>
<path d="M50.0006 20.1993C36.1247 20.1993 23.0666 26.1536 13.2315 36.9653C12.8081 37.4308 12.5701 38.0626 12.5701 38.7212C12.5701 39.3797 12.8081 40.0115 13.2318 40.477L19.9213 47.8309C20.3625 48.316 20.9408 48.5584 21.5188 48.5584C22.0968 48.5584 22.6751 48.316 23.1163 47.8309C30.3109 39.9214 39.8586 35.5657 50.0009 35.5657C60.1432 35.5657 69.6909 39.9214 76.8858 47.8303C77.7676 48.8001 79.198 48.8001 80.0802 47.8303L86.7696 40.4764C87.1931 40.0108 87.431 39.3791 87.431 38.7205C87.431 38.0619 87.1931 37.4302 86.7693 36.9646C76.9345 26.1533 63.8764 20.1993 50.0006 20.1993ZM78.4414 42.6077C70.6095 34.8459 60.5953 30.5991 50.0006 30.5991C39.4059 30.5991 29.3916 34.8462 21.5598 42.6087L18.0605 38.7619C26.8297 29.9756 38.0852 25.166 50.0006 25.166C61.916 25.166 73.1715 29.9753 81.9403 38.7612L78.4414 42.6077Z" fill="white"/>
<path d="M99.3383 23.1455C86.1407 8.63705 68.6187 0.647095 50.0006 0.647095C31.3816 0.647095 13.8592 8.63738 0.66164 23.1465C-0.220547 24.1163 -0.220547 25.6888 0.66164 26.6582L7.35108 34.0121C7.77486 34.478 8.34923 34.7396 8.9486 34.7396C9.54797 34.7396 10.122 34.478 10.5461 34.0121C21.1034 22.4055 35.1151 16.0135 50.0006 16.0135C64.8857 16.0135 78.8971 22.4052 89.4544 34.0108C90.3366 34.9803 91.7667 34.981 92.6491 34.0108L99.3386 26.6569C99.7621 26.1914 100 25.5596 100 24.9011C100 24.2425 99.7624 23.6111 99.3383 23.1455ZM91.0227 28.7753C79.819 17.3243 65.339 11.0472 50.0006 11.0472C34.6615 11.0472 20.1815 17.3247 8.97781 28.7763L5.48039 24.9322C17.6199 12.456 33.3417 5.61371 50.0006 5.61371C66.6588 5.61371 82.3801 12.4554 94.5198 24.9309L91.0227 28.7753Z" fill="white"/>
</svg>
