<svg width="30" height="26" viewBox="0 0 30 26" fill="none" xmlns="http://www.w3.org/2000/svg">
<path d="M14.9628 25.2812C15.7911 25.2812 16.4626 24.5977 16.4626 23.7545C16.4626 22.9113 15.7911 22.2278 14.9628 22.2278C14.1344 22.2278 13.463 22.9113 13.463 23.7545C13.463 24.5977 14.1344 25.2812 14.9628 25.2812Z" fill="white"/>
<path d="M14.9628 16.1211C13.0216 16.121 11.1561 16.8872 9.75843 18.2584C9.47203 18.5398 9.30719 18.9255 9.30016 19.3307C9.29312 19.7358 9.44448 20.1272 9.72094 20.4187C9.99739 20.7102 10.3763 20.878 10.7743 20.8852C11.1723 20.8923 11.5568 20.7383 11.8432 20.4569C12.6949 19.663 13.8079 19.2226 14.9628 19.2226C16.1176 19.2226 17.2306 19.663 18.0824 20.4569C18.3688 20.7383 18.7532 20.8923 19.1512 20.8852C19.5492 20.878 19.9281 20.7102 20.2046 20.4187C20.481 20.1272 20.6324 19.7358 20.6254 19.3307C20.6183 18.9255 20.4535 18.5398 20.1671 18.2584C18.7695 16.8872 16.9039 16.121 14.9628 16.1211V16.1211ZM14.9628 8.48762C13.1513 8.48883 11.3586 8.86117 9.69151 9.58246C8.0244 10.3037 6.51696 11.3592 5.25901 12.686C5.12212 12.8334 5.01509 13.0067 4.94402 13.1962C4.87296 13.3857 4.83925 13.5875 4.84482 13.7902C4.85039 13.993 4.89513 14.1926 4.97649 14.3777C5.05785 14.5628 5.17424 14.7298 5.319 14.8692C5.61137 15.1506 6.00157 15.3022 6.40379 15.2908C6.60294 15.2851 6.79905 15.2396 6.98092 15.1568C7.16278 15.0739 7.32684 14.9555 7.46373 14.8081C8.44308 13.7738 9.61723 12.9511 10.916 12.3892C12.2148 11.8273 13.6115 11.5377 15.0228 11.5377C16.434 11.5377 17.8307 11.8273 19.1295 12.3892C20.4283 12.9511 21.6024 13.7738 22.5818 14.8081C22.7207 14.9524 22.8863 15.0671 23.0691 15.1457C23.2519 15.2244 23.4482 15.2653 23.6466 15.2661C23.9397 15.265 24.2261 15.1765 24.4703 15.0115C24.7145 14.8465 24.9059 14.6123 25.0207 14.3378C25.1356 14.0633 25.169 13.7606 25.1167 13.4671C25.0644 13.1735 24.9287 12.902 24.7265 12.686C23.4615 11.3518 21.9444 10.292 20.2664 9.57049C18.5884 8.84896 16.7843 8.48061 14.9628 8.48762Z" fill="white"/>
<path d="M29.5409 6.85405C25.627 3.01072 20.401 0.863007 14.9628 0.863007C9.52457 0.863007 4.2985 3.01072 0.384635 6.85405C0.131524 7.14054 -0.00580774 7.51386 0.00018839 7.89911C0.00618452 8.28437 0.155065 8.65307 0.416964 8.93125C0.678864 9.20944 1.03441 9.37653 1.41229 9.39902C1.79016 9.4215 2.16241 9.29771 2.45437 9.05248C5.81034 5.75044 10.2953 3.90467 14.9628 3.90467C19.6302 3.90467 24.1152 5.75044 27.4712 9.05248C27.7492 9.32527 28.1199 9.47839 28.506 9.47995C28.7081 9.47917 28.9078 9.43684 29.0934 9.35552C29.279 9.27419 29.4465 9.15554 29.5859 9.00668C29.8593 8.71463 30.0081 8.32427 29.9997 7.92092C29.9912 7.51756 29.8263 7.134 29.5409 6.85405V6.85405Z" fill="white"/>
</svg>
