<svg width="32" height="26" viewBox="0 0 32 26" fill="none" xmlns="http://www.w3.org/2000/svg">
<path d="M15.9628 25.5312C16.9333 25.5312 17.7126 24.7315 17.7126 23.7545C17.7126 22.7775 16.9333 21.9778 15.9628 21.9778C14.9922 21.9778 14.213 22.7775 14.213 23.7545C14.213 24.7315 14.9922 25.5312 15.9628 25.5312Z" fill="white" stroke="black" stroke-width="0.5"/>
<path d="M10.5833 18.08L10.5832 18.0801C10.2496 18.4079 10.0584 18.8563 10.0502 19.3263C10.042 19.7963 10.2176 20.2512 10.5395 20.5907C10.8616 20.9304 11.3041 21.1268 11.7698 21.1351C12.2344 21.1435 12.6824 20.964 13.0159 20.6376C13.8215 19.8878 14.8728 19.4726 15.9628 19.4726C17.0528 19.4726 18.104 19.8878 18.9096 20.6376C19.2432 20.964 19.6912 21.1435 20.1557 21.1351C20.6215 21.1268 21.0639 20.9304 21.386 20.5907C21.708 20.2512 21.8835 19.7963 21.8753 19.3263C21.8672 18.8563 21.676 18.4079 21.3423 18.0801L21.3422 18.08C19.8983 16.6633 17.97 15.871 15.9628 15.8711C13.9555 15.871 12.0273 16.6633 10.5833 18.08ZM15.9622 8.23762C14.1167 8.23891 12.2904 8.61828 10.5922 9.35301C8.89394 10.0878 7.35861 11.1629 6.07759 12.514L6.07758 12.514L6.07584 12.5159C5.91665 12.6872 5.79239 12.8886 5.70995 13.1084C5.62752 13.3282 5.58846 13.5622 5.59491 13.7971C5.60137 14.032 5.65322 14.2635 5.74762 14.4783C5.84203 14.6931 5.9772 14.8872 6.14563 15.0493C6.48589 15.3768 6.94096 15.5541 7.4109 15.5407C7.6435 15.5341 7.87241 15.4809 8.08453 15.3843C8.29625 15.2879 8.487 15.1501 8.64603 14.9792C9.60214 13.9697 10.7481 13.1669 12.0153 12.6186C13.2828 12.0702 14.6458 11.7877 16.0228 11.7877C17.3997 11.7877 18.7627 12.0702 20.0302 12.6186C21.2978 13.1671 22.444 13.9701 23.4002 14.98L23.4017 14.9815C23.5635 15.1496 23.7568 15.2835 23.9703 15.3754C24.1839 15.4673 24.4135 15.5151 24.6456 15.5161L24.6476 15.5161C24.9905 15.5148 25.3252 15.4112 25.6102 15.2186C25.8952 15.0261 26.1179 14.7533 26.2514 14.4343C26.3848 14.1154 26.4235 13.764 26.3628 13.4232C26.3021 13.0824 26.1446 12.7667 25.909 12.5151L25.9079 12.514C24.6198 11.1553 23.0745 10.0759 21.3652 9.34083C19.6559 8.60584 17.818 8.23053 15.9622 8.23762Z" fill="white" stroke="black" stroke-width="0.5"/>
<path d="M1.20947 6.67567L1.20315 6.68188L1.19728 6.68853C0.902555 7.02212 0.743261 7.45599 0.750219 7.903C0.757176 8.35002 0.9299 8.77861 1.23494 9.10262C1.5401 9.42675 1.95525 9.62226 2.39744 9.64857C2.83965 9.67489 3.27464 9.52993 3.61516 9.24391L3.6227 9.23759L3.62971 9.23069C6.93937 5.9742 11.3615 4.15467 15.9628 4.15467C20.564 4.15467 24.9862 5.9742 28.2958 9.23069L28.2961 9.23093C28.6201 9.54889 29.0531 9.72812 29.505 9.72996L29.507 9.72995C29.7433 9.72904 29.977 9.67951 30.1938 9.58449C30.4106 9.48947 30.606 9.35098 30.7684 9.17757L30.7684 9.17755C31.0869 8.83741 31.2594 8.38369 31.2496 7.91569C31.2398 7.44774 31.0485 7.00183 30.7161 6.67567C26.7559 2.78689 21.4671 0.613007 15.9628 0.613007C10.4584 0.613007 5.16963 2.78689 1.20947 6.67567Z" fill="white" stroke="black" stroke-width="0.5"/>
</svg>
