<svg width="30" height="26" viewBox="0 0 30 26" fill="none" xmlns="http://www.w3.org/2000/svg">
<path d="M16.2126 23.7545C16.2126 24.4638 15.6488 25.0312 14.9628 25.0312C14.2767 25.0312 13.713 24.4638 13.713 23.7545C13.713 23.0452 14.2767 22.4778 14.9628 22.4778C15.6488 22.4778 16.2126 23.0452 16.2126 23.7545Z" fill="white" stroke="black" stroke-width="0.5"/>
<path d="M11.6727 20.274L11.6726 20.2739L11.6679 20.2785C11.4289 20.5134 11.109 20.6412 10.7788 20.6352C10.4485 20.6293 10.1331 20.4901 9.90234 20.2467C9.67139 20.0031 9.54421 19.6752 9.55012 19.335C9.55602 18.9948 9.69444 18.6719 9.93352 18.4369C11.2849 17.111 13.0877 16.371 14.9628 16.3711C16.8378 16.371 18.6407 17.111 19.992 18.4369C20.2311 18.6719 20.3695 18.9948 20.3754 19.335C20.3813 19.6752 20.2541 20.0031 20.0232 20.2467C19.7924 20.4901 19.477 20.6293 19.1467 20.6352C18.8165 20.6412 18.4966 20.5134 18.2576 20.2785L18.2576 20.2785L18.2528 20.274C17.3552 19.4373 16.1815 18.9726 14.9628 18.9726C13.744 18.9726 12.5703 19.4373 11.6727 20.274ZM14.9629 8.73762L14.9637 8.73761C16.7509 8.73074 18.5211 9.09213 20.1676 9.80016C21.8139 10.5081 23.3028 11.5479 24.5444 12.8573C24.7131 13.0376 24.8267 13.2647 24.8706 13.5109C24.9144 13.7573 24.8864 14.0112 24.7901 14.2413C24.6939 14.4713 24.5338 14.6669 24.3303 14.8043C24.1272 14.9415 23.8896 15.015 23.6467 15.0161C23.4823 15.0153 23.3196 14.9813 23.1679 14.9161C23.0162 14.8508 22.8784 14.7555 22.7625 14.6354C21.7602 13.5771 20.5584 12.735 19.2288 12.1598C17.8987 11.5843 16.4682 11.2877 15.0228 11.2877C13.5773 11.2877 12.1468 11.5843 10.8167 12.1598C9.48672 12.7352 8.28464 13.5775 7.28219 14.6362L7.28219 14.6362L7.28056 14.638C7.166 14.7613 7.02893 14.8602 6.87731 14.9292C6.7257 14.9983 6.56239 15.0362 6.39667 15.0409C6.06219 15.0504 5.73684 14.9244 5.49237 14.6891C5.37128 14.5725 5.27368 14.4326 5.20536 14.2771C5.13705 14.1217 5.09941 13.9539 5.09472 13.7834C5.09004 13.6129 5.1184 13.4432 5.1781 13.284C5.23765 13.1252 5.32717 12.9802 5.44134 12.8571C6.67604 11.5551 8.15526 10.5195 9.79078 9.8119C11.4267 9.10411 13.1857 8.73881 14.9629 8.73762Z" fill="white" stroke="black" stroke-width="0.5"/>
<path d="M29.3657 7.03243L29.3658 7.03252C29.6041 7.26626 29.7426 7.58743 29.7497 7.92614C29.7568 8.26486 29.6318 8.59185 29.4034 8.83581C29.287 8.9601 29.1474 9.05891 28.9931 9.12654C28.8391 9.19404 28.6734 9.22916 28.5061 9.22995C28.186 9.2284 27.878 9.10142 27.6462 8.87403C24.244 5.52658 19.6964 3.65467 14.9628 3.65467C10.2324 3.65467 5.68786 5.52398 2.28639 8.86705C2.04411 9.06749 1.73759 9.16793 1.42714 9.14946C1.11358 9.1308 0.81763 8.99212 0.598989 8.75988C0.38023 8.52752 0.255193 8.21872 0.250158 7.89522C0.245168 7.57459 0.358457 7.26451 0.566388 7.02596C4.43323 3.23215 9.59378 1.11301 14.9628 1.11301C20.3348 1.11301 25.4982 3.23456 29.3657 7.03243Z" fill="white" stroke="black" stroke-width="0.5"/>
</svg>
