<svg width="40" height="29" viewBox="0 0 40 29" fill="none" xmlns="http://www.w3.org/2000/svg">
<path d="M24.4226 23.5L24.4225 23.4999C23.2406 22.3183 21.671 21.6682 20.0002 21.6682C18.3295 21.6682 16.7599 22.3183 15.578 23.4997C15.578 23.4997 15.5779 23.4998 15.5779 23.4998M24.4226 23.5L15.5779 23.4998M24.4226 23.5C24.5451 23.6224 24.614 23.7885 24.614 23.962C24.614 24.1355 24.5451 24.3016 24.4226 24.4243L20.4624 28.3844C20.3347 28.5121 20.1678 28.5759 20.0002 28.5759C19.8327 28.5759 19.6658 28.5121 19.538 28.3844C19.538 28.3844 19.5379 28.3844 19.5379 28.3843L15.5779 24.4243M24.4226 23.5L15.5779 24.4243M15.5779 23.4998C15.4553 23.6225 15.3865 23.7887 15.3865 23.962C15.3865 24.1355 15.4553 24.3016 15.5779 24.4243M15.5779 23.4998L15.5779 24.4243M19.8234 26.8212L20.0002 26.998L20.177 26.8212L22.7983 24.1999L23.0127 23.9855L22.7614 23.8159C21.9514 23.269 20.9976 22.9753 20.0002 22.9753C19.0029 22.9753 18.0491 23.269 17.239 23.816L16.9878 23.9856L17.2021 24.2L19.8234 26.8212Z" fill="white" stroke="black" stroke-width="0.5"/>
<path d="M10.4974 18.4197L10.4975 18.4196C13.0396 15.8776 16.4136 14.4783 20.0002 14.4783C23.5867 14.4783 26.9606 15.8775 29.5026 18.4193C29.6252 18.5419 29.6941 18.7081 29.6941 18.8815C29.6941 19.0548 29.6252 19.2211 29.5027 19.3435L29.5026 19.3436L26.8267 22.0194L26.8267 22.0194C26.5717 22.2746 26.1578 22.2746 25.9027 22.0194L25.9026 22.0194C24.3234 20.4401 22.2263 19.5695 20.0002 19.5695C17.7741 19.5695 15.6771 20.4402 14.0977 22.0196C13.97 22.1473 13.8031 22.2111 13.6355 22.2111C13.4679 22.2111 13.301 22.1472 13.1734 22.0196L13.1734 22.0196L10.4975 19.3438L10.4974 19.3438C10.3749 19.2213 10.306 19.0551 10.306 18.8817C10.306 18.7084 10.3749 18.5421 10.4974 18.4197ZM26.176 20.4996L26.3514 20.6462L26.5131 20.4846L27.9157 19.0819L28.1061 18.8914L27.902 18.7157C25.7011 16.8198 22.9278 15.7854 20.0001 15.7854C17.0724 15.7854 14.2989 16.82 12.0979 18.7159L11.8939 18.8917L12.0843 19.0821L13.4871 20.4848L13.6488 20.6465L13.8242 20.4999C15.5577 19.0509 17.7191 18.2624 20.0002 18.2624C22.2812 18.2624 24.4426 19.051 26.176 20.4996Z" fill="white" stroke="black" stroke-width="0.5"/>
<path d="M5.46951 14.3157L5.46945 14.3156C5.3469 14.1932 5.27805 14.0269 5.27805 13.8536C5.27805 13.6802 5.34691 13.5139 5.46939 13.3915C9.35665 9.50432 14.5164 7.36426 20.0002 7.36426C25.4841 7.36426 30.6438 9.5042 34.5309 13.3912L34.531 13.3913C34.6535 13.5137 34.7224 13.68 34.7224 13.8533C34.7224 14.0267 34.6535 14.193 34.531 14.3154L31.8553 16.9912C31.6 17.2465 31.1862 17.2464 30.9311 16.9912L30.931 16.9912C28.0064 14.0668 24.1238 12.4554 20.0003 12.4554C15.8769 12.4554 11.9943 14.0668 9.06974 16.9915C8.94202 17.1192 8.77513 17.1829 8.60751 17.1829C8.43989 17.1829 8.273 17.1192 8.14528 16.9915L5.46951 14.3157ZM31.2091 15.4534L31.3855 15.6124L31.5533 15.4445L32.9529 14.0449L33.138 13.8598L32.9445 13.6834C29.391 10.4446 24.8287 8.6714 20.0002 8.6714C15.1717 8.6714 10.6094 10.4448 7.0558 13.6836L6.86227 13.86L7.04743 14.0452L8.44712 15.4449L8.61498 15.6127L8.7913 15.4538C11.8782 12.6707 15.8243 11.1483 20.0002 11.1483C24.1762 11.1483 28.1223 12.6705 31.2091 15.4534Z" fill="white" stroke="black" stroke-width="0.5"/>
<path d="M4.04173 11.9633C3.91892 12.086 3.75282 12.1548 3.57944 12.1548C3.406 12.1548 3.23984 12.086 3.11721 11.9634L0.441433 9.28759L0.441403 9.28756C0.186216 9.03246 0.186173 8.61863 0.441432 8.36337L0.264656 8.18659L0.441437 8.36337C5.6737 3.13086 12.6191 0.25 20.0002 0.25C27.381 0.25 34.3262 3.13074 39.5585 8.36301L39.5586 8.36313C39.6812 8.48554 39.75 8.6516 39.75 8.825C39.75 8.99836 39.6811 9.16463 39.5586 9.2871L36.8829 11.9629C36.6275 12.2182 36.2138 12.2181 35.9585 11.9628C31.6888 7.69334 26.0208 5.34118 20.0002 5.34118C13.9795 5.34118 8.31138 7.6934 4.04173 11.9633ZM4.04173 11.9633L4.21844 12.1401L4.04173 11.9633ZM36.2388 10.4178L36.4154 10.5819L36.5858 10.4115L37.9847 9.01262L38.1675 8.82978L37.9786 8.65321C33.0765 4.0707 26.727 1.55714 20.0002 1.55714C13.2732 1.55714 6.92343 4.07095 2.02142 8.6537L1.83253 8.83029L2.01539 9.01311L3.41436 10.4118L3.58482 10.5823L3.76135 10.4181C8.19666 6.29428 13.9279 4.03416 20.0002 4.03416C26.0723 4.03416 31.8035 6.29416 36.2388 10.4178Z" fill="white" stroke="black" stroke-width="0.5"/>
</svg>
